<?xml version="1.0" standalone="no"?>
<!DOCTYPE svg PUBLIC "-//W3C//DTD SVG 1.1//EN" "http://www.w3.org/Graphics/SVG/1.1/DTD/svg11.dtd" >
<svg xmlns="http://www.w3.org/2000/svg" xmlns:xlink="http://www.w3.org/1999/xlink" version="1.1">
<metadata>
Created by FontForge 20170731 at Sun Aug 23 09:13:57 2020
 By Aleksey,,,
Copyright (c) 2016 by Radomir Tinkov. All rights reserved.
</metadata>
<defs>
<font id="Gilroy" horiz-adv-x="1302" >
  <font-face 
    font-family="Gilroy Regular"
    font-weight="400"
    font-stretch="normal"
    units-per-em="2048"
    panose-1="0 0 5 0 0 0 0 0 0 0"
    ascent="1587"
    descent="-461"
    x-height="1024"
    cap-height="1434"
    bbox="-649 -492 2066 2122"
    underline-thickness="102"
    underline-position="-307"
    unicode-range="U+0020-FB02"
  />
<missing-glyph horiz-adv-x="1024" 
d="M190 1638h650v-2048h-650v2048zM682 1434v67h-338v-67h133v-76h-135v-68h340v68h-135v76h135zM547 1094v143h-205v-213h340v70h-135zM410 1167h67v-73h-67v73zM682 901v68h-340v-68h135v-76h-135v-67h205v143h135zM682 641v205h-68v-135h-272v-70h340zM682 365v231h-205
v-115h70v47h67v-96h-204v164h-68v-231h340zM682 10v232h-340v-232h340zM410 174h204v-96h-204v96zM682 -104v67h-340v-67h143l-143 -97v-67h340v67h-209l143 97h66z" />
    <glyph glyph-name="fi" unicode="fi" horiz-adv-x="1056" 
d="M360 1024h553v-1024h-135v893h-418v-893h-135v893h-174v131h174v41q0 393 430 393q86 0 197 -24v-123q-109 16 -197 16q-155 0 -223 -59q-72 -63 -72 -203v-41z" />
    <glyph glyph-name="fl" unicode="fl" horiz-adv-x="1056" 
d="M913 1434v-1434h-135v1329q-64 6 -123 6q-153 0 -223 -61q-72 -66 -72 -209v-41h234v-131h-234v-893h-135v893h-174v131h174v41q0 393 430 393q120 0 258 -24z" />
    <glyph glyph-name="f_f" unicode="ff" horiz-adv-x="1208" 
d="M1208 1479v-131q-295 24 -295 -263v-61h295v-131h-295v-893h-135v893h-418v-893h-135v893h-174v131h174v41q0 203 111 305q115 103 319 88v-131q-295 24 -295 -262v-41h418v61q0 204 111 306q115 103 319 88z" />
    <glyph glyph-name="f_f_i" unicode="ffi" horiz-adv-x="1609" 
d="M913 1024h553v-1024h-135v893h-418v-893h-135v893h-418v-893h-135v893h-174v131h174v41q0 203 111 305q115 103 319 88v-131q-295 24 -295 -262v-41h418v61q0 394 430 394q81 0 197 -25v-123q-116 17 -197 17q-154 0 -223 -60q-72 -63 -72 -203v-61z" />
    <glyph glyph-name="f_f_l" unicode="ffl" horiz-adv-x="1609" 
d="M1466 1454v-1454h-135v1350q-65 6 -123 6q-152 0 -223 -62q-72 -66 -72 -209v-61h234v-131h-234v-893h-135v893h-418v-893h-135v893h-174v131h174v41q0 203 111 305q115 103 319 88v-131q-295 24 -295 -262v-41h418v61q0 394 430 394q114 0 258 -25z" />
    <glyph glyph-name=".notdef" horiz-adv-x="1024" 
d="M190 1638h650v-2048h-650v2048zM682 1434v67h-338v-67h133v-76h-135v-68h340v68h-135v76h135zM547 1094v143h-205v-213h340v70h-135zM410 1167h67v-73h-67v73zM682 901v68h-340v-68h135v-76h-135v-67h205v143h135zM682 641v205h-68v-135h-272v-70h340zM682 365v231h-205
v-115h70v47h67v-96h-204v164h-68v-231h340zM682 10v232h-340v-232h340zM410 174h204v-96h-204v96zM682 -104v67h-340v-67h143l-143 -97v-67h340v67h-209l143 97h66z" />
    <glyph glyph-name=".null" horiz-adv-x="0" 
 />
    <glyph glyph-name="nonmarkingreturn" horiz-adv-x="682" 
 />
    <glyph glyph-name="space" unicode=" " horiz-adv-x="512" 
 />
    <glyph glyph-name="exclam" unicode="!" horiz-adv-x="471" 
d="M287 389h-103l-30 635v410h163v-410zM236 -20q-48 0 -80 32q-33 33 -33 80t33 80t80 33q46 0 79 -33t33 -80t-33 -80q-32 -32 -79 -32z" />
    <glyph glyph-name="quotedbl" unicode="&#x22;" horiz-adv-x="634" 
d="M225 1024h-102l-21 410h144zM512 1024h-102l-21 410h143z" />
    <glyph glyph-name="numbersign" unicode="#" horiz-adv-x="1226" 
d="M1165 963l-20 -123h-244l-41 -246h246l-21 -123h-245l-62 -369h-131l62 369h-271l-61 -369h-131l61 369h-246l21 123h246l41 246h-248l20 123h248l62 368h131l-62 -368h271l61 368h131l-61 -368h243zM459 594h270l41 246h-270z" />
    <glyph glyph-name="dollar" unicode="$" horiz-adv-x="1126" 
d="M936 104q-106 -106 -281 -124v-185h-123v182q-341 21 -450 297l123 72q76 -208 327 -229v565q-166 58 -264 131q-114 85 -114 264q0 160 106 260q110 104 272 119v182h123v-184q257 -27 359 -264l-121 -68q-65 164 -238 191v-533q176 -60 269 -135q120 -95 120 -272
q0 -161 -108 -269zM354 928q54 -54 178 -103v490q-106 -12 -170 -76q-65 -65 -65 -162q0 -92 57 -149zM655 639v-520q115 15 181 84q65 68 65 170q0 96 -61 157q-52 55 -185 109z" />
    <glyph glyph-name="percent" unicode="%" horiz-adv-x="1452" 
d="M213 932q-90 90 -90 219q0 127 90 217t223 90t223 -90q91 -91 91 -217q0 -131 -88 -219t-226 -88q-135 0 -223 88zM436 967q78 0 131 53q51 51 51 131t-51 131q-53 53 -131 53t-131 -53q-51 -51 -51 -131t51 -131q53 -53 131 -53zM281 145l-86 50l960 1079l88 -49z
M1016 -25q-135 0 -223 88q-91 91 -91 220q0 126 91 217q90 90 223 90t223 -90t90 -217q0 -130 -90 -220q-88 -88 -223 -88zM1016 98q77 0 131 54q51 51 51 131t-51 131q-53 53 -131 53t-131 -53q-51 -51 -51 -131t51 -131q54 -54 131 -54z" />
    <glyph glyph-name="ampersand" unicode="&#x26;" horiz-adv-x="1345" 
d="M1102 252l192 -205l-127 -72l-151 162q-162 -162 -422 -162q-209 0 -342 109q-129 111 -129 297q0 290 276 416q-106 118 -106 270q0 177 123 285q118 106 286 106q134 0 250 -78q114 -77 164 -206l-121 -70q-29 97 -108 158q-77 57 -182 57q-111 0 -191 -68
q-78 -69 -78 -176q0 -117 133 -256l432 -461q60 124 78 273l127 -74q-26 -177 -104 -305zM918 242l-422 448q-230 -82 -230 -305q0 -127 88 -197q85 -73 236 -73q204 0 328 127z" />
    <glyph glyph-name="quotesingle" unicode="'" horiz-adv-x="348" 
d="M225 1024h-102l-21 410h144z" />
    <glyph glyph-name="parenleft" unicode="(" horiz-adv-x="544" 
d="M483 -205h-135q-225 452 -225 922q0 469 225 921h135q-225 -452 -225 -921q0 -470 225 -922z" />
    <glyph glyph-name="parenright" unicode=")" horiz-adv-x="544" 
d="M197 -205h-136q226 454 226 922q0 467 -226 921h136q225 -452 225 -921q0 -470 -225 -922z" />
    <glyph glyph-name="asterisk" unicode="*" horiz-adv-x="802" 
d="M494 1243l186 6v-114l-186 6l106 -154l-104 -61l-95 166l-94 -166l-104 61l106 154l-186 -6v114l186 -6l-106 154l104 61l94 -166l95 166l104 -61z" />
    <glyph glyph-name="plus" unicode="+" horiz-adv-x="1105" 
d="M618 782h365v-131h-365v-364h-131v364h-364v131h364v365h131v-365z" />
    <glyph glyph-name="comma" unicode="," horiz-adv-x="491" 
d="M205 174h164l-123 -461h-123z" />
    <glyph glyph-name="hyphen" unicode="-" horiz-adv-x="1064" 
d="M901 567h-737v131h737v-131z" />
    <glyph glyph-name="period" unicode="." horiz-adv-x="471" 
d="M236 -20q-48 0 -80 32q-33 33 -33 80t33 80t80 33q46 0 79 -33t33 -80t-33 -80q-32 -32 -79 -32z" />
    <glyph glyph-name="slash" unicode="/" horiz-adv-x="1085" 
d="M1004 1638l-820 -1843h-102l819 1843h103z" />
    <glyph glyph-name="zero" unicode="0" horiz-adv-x="1290" 
d="M645 -25q-256 0 -401 201q-142 204 -142 541t142 538q144 203 401 203q258 0 399 -203q144 -199 144 -538q0 -341 -144 -541q-142 -201 -399 -201zM645 115q187 0 293 157q106 153 106 445q0 291 -106 444q-106 158 -293 158q-186 0 -295 -158q-104 -155 -104 -444
q0 -290 104 -445q109 -157 295 -157z" />
    <glyph glyph-name="one" unicode="1" horiz-adv-x="696" 
d="M31 1303l379 131h122v-1434h-143v1276l-321 -96z" />
    <glyph glyph-name="two" unicode="2" horiz-adv-x="1075" 
d="M993 0h-911v129l516 520q221 221 221 379q0 133 -86 213q-81 78 -203 78q-219 0 -321 -203l-121 72q138 270 442 270q172 0 301 -117q132 -114 132 -313q0 -214 -267 -481l-409 -408h706v-139z" />
    <glyph glyph-name="three" unicode="3" horiz-adv-x="1085" 
d="M942 1298l-334 -460q171 -21 283 -133q113 -107 113 -289q0 -203 -142 -324q-138 -117 -340 -117q-160 0 -284 74q-128 78 -177 211l119 70q71 -215 342 -215q152 0 244 80q94 82 94 221t-94 221q-92 80 -244 80v2l-2 -2h-39l-61 94l356 487h-674v136h840v-136z" />
    <glyph glyph-name="four" unicode="4" horiz-adv-x="1187" 
d="M952 422h185v-135h-185v-287h-143v287h-758v135l533 1012h157l-532 -1012h600v438h143v-438z" />
    <glyph glyph-name="five" unicode="5" horiz-adv-x="1105" 
d="M301 856h242q203 0 340 -119q141 -117 141 -321t-141 -324q-138 -117 -340 -117q-165 0 -289 80q-129 82 -172 226l121 69q64 -235 340 -235q151 0 243 80q95 83 95 221t-95 221q-92 80 -243 80h-389l51 717h768v-136h-641z" />
    <glyph glyph-name="six" unicode="6" horiz-adv-x="1085" 
d="M889 788q135 -132 135 -339q0 -211 -135 -343q-131 -131 -346 -131t-346 131q-136 133 -136 343q0 159 89 286l468 699h162l-352 -525q60 13 115 13q206 0 346 -134zM543 115q151 0 243 92q95 92 95 242q0 149 -95 241q-92 92 -243 92t-246 -92q-92 -92 -92 -241
q0 -150 92 -242q95 -92 246 -92z" />
    <glyph glyph-name="seven" unicode="7" horiz-adv-x="1003" 
d="M41 1298v136h881v-136l-541 -1298h-150l541 1298h-731z" />
    <glyph glyph-name="eight" unicode="8" horiz-adv-x="1122" 
d="M1040 389q0 -195 -137 -305q-139 -109 -342 -109t-342 109q-137 110 -137 305q0 239 237 350q-190 108 -190 322q0 192 127 295q132 102 305 102q177 0 303 -102q129 -102 129 -295q0 -214 -190 -322q237 -111 237 -350zM358 870q79 -67 203 -67t203 67q86 71 86 191
q0 124 -82 194q-76 64 -207 64q-129 0 -205 -64q-84 -72 -84 -194q0 -120 86 -191zM561 115q157 0 244 69q92 71 92 205q0 132 -92 203q-97 72 -244 72t-244 -72q-92 -71 -92 -203q0 -134 92 -205q87 -69 244 -69z" />
    <glyph glyph-name="nine" unicode="9" horiz-adv-x="1085" 
d="M936 698l-469 -698h-162l352 524q-55 -12 -114 -12q-215 0 -346 131q-136 133 -136 342q0 207 136 340q139 133 346 133t346 -133q135 -132 135 -340q0 -162 -88 -287zM205 985q0 -150 92 -242q95 -92 246 -92t243 92q95 92 95 242t-95 242q-92 92 -243 92t-246 -92
q-92 -92 -92 -242z" />
    <glyph glyph-name="colon" unicode=":" horiz-adv-x="471" 
d="M236 819q-47 0 -80 33t-33 80t33 80q32 32 80 32q47 0 79 -32q33 -33 33 -80t-33 -80t-79 -33zM236 -20q-48 0 -80 32q-33 33 -33 80t33 80t80 33q46 0 79 -33t33 -80t-33 -80q-32 -32 -79 -32z" />
    <glyph glyph-name="semicolon" unicode=";" horiz-adv-x="501" 
d="M266 819q-47 0 -80 33q-32 32 -32 80t32 80t80 32t80 -32q33 -33 33 -80t-33 -80t-80 -33zM205 174h164l-123 -461h-123z" />
    <glyph glyph-name="less" unicode="&#x3c;" horiz-adv-x="1064" 
d="M123 788l819 359v-152l-666 -278l666 -279v-151l-819 358v143z" />
    <glyph glyph-name="equal" unicode="=" horiz-adv-x="1105" 
d="M983 856h-860v131h860v-131zM983 446h-860v132h860v-132z" />
    <glyph glyph-name="greater" unicode="&#x3e;" horiz-adv-x="1064" 
d="M123 995v152l819 -359v-143l-819 -358v151l665 279z" />
    <glyph glyph-name="question" unicode="?" horiz-adv-x="1089" 
d="M573 389h-143q0 185 139 324l43 41l43 41q68 68 82 86q86 103 86 198q0 113 -80 178q-77 62 -208 62q-253 0 -312 -207l-121 68q47 133 166 206q116 72 267 72q181 0 305 -100q127 -100 127 -279q0 -157 -140 -297l-43 -41l-43 -41q-51 -48 -82 -90q-86 -109 -86 -221z
M502 -20q-48 0 -80 32q-33 33 -33 80t33 80t80 33t80 -33q32 -32 32 -80t-32 -80t-80 -32z" />
    <glyph glyph-name="at" unicode="@" horiz-adv-x="1626" 
d="M1212 1147q164 -102 250 -262q82 -152 82 -332q0 -219 -88 -326q-88 -108 -207 -108q-188 0 -229 176q-88 -111 -227 -111q-143 0 -238 95q-94 94 -94 233t94 233q95 95 238 95q132 0 217 -99v84h127v-442q0 -197 133 -197q96 0 151 88q62 95 62 279q0 274 -191 459
q-187 184 -465 184q-285 0 -485 -197q-199 -196 -199 -487q0 -299 205 -492q204 -192 516 -192q203 0 357 59v-61q-152 -55 -357 -55q-335 0 -559 211q-223 207 -223 530q0 305 213 524q214 217 532 217q219 0 385 -106zM801 307q89 0 147 55q62 59 62 150t-62 147
q-58 58 -147 58q-88 0 -152 -58q-61 -55 -61 -147t61 -150q64 -55 152 -55z" />
    <glyph glyph-name="A" unicode="A" horiz-adv-x="1290" 
d="M1270 0h-152l-133 352h-680l-133 -352h-152l551 1434h148zM645 1255l-289 -768h578z" />
    <glyph glyph-name="B" unicode="B" horiz-adv-x="1269" 
d="M1126 608q62 -95 62 -209q0 -165 -117 -282t-283 -117h-624v1434h577q158 0 273 -115q112 -112 112 -270q0 -202 -168 -306q106 -46 168 -135zM741 1298h-434v-499h434q99 0 170 71q72 78 72 179q0 98 -72 176q-70 73 -170 73zM307 135h481q108 0 181 76q75 75 75 188
q0 112 -75 187q-75 78 -181 78h-481v-529z" />
    <glyph glyph-name="C" unicode="C" horiz-adv-x="1525" 
d="M295 190q-213 219 -213 527q0 307 213 526q212 215 539 215q192 0 364 -96q167 -96 256 -256l-127 -74q-67 131 -201 209q-135 78 -292 78q-271 0 -439 -174q-170 -176 -170 -428t170 -428q168 -174 439 -174q157 0 292 78q134 78 201 208l127 -71q-89 -164 -254 -258
q-174 -97 -366 -97q-327 0 -539 215z" />
    <glyph glyph-name="D" unicode="D" horiz-adv-x="1474" 
d="M164 1434h553q292 0 483 -209q193 -205 193 -508q0 -305 -193 -510q-192 -207 -483 -207h-553v1434zM307 135h410q236 0 385 168q151 171 151 414q0 242 -151 413q-149 168 -385 168h-410v-1163z" />
    <glyph glyph-name="E" unicode="E" horiz-adv-x="1085" 
d="M307 655v-520h697v-135h-840v1434h829v-136h-686v-507h635v-136h-635z" />
    <glyph glyph-name="F" unicode="F" horiz-adv-x="1054" 
d="M973 1434v-136h-666v-528h635v-135h-635v-635h-143v1434h809z" />
    <glyph glyph-name="G" unicode="G" horiz-adv-x="1615" 
d="M817 682h717v-74q0 -265 -191 -450q-195 -183 -509 -183q-327 0 -539 215q-213 219 -213 527q0 307 213 526q212 215 539 215q192 0 364 -96q166 -94 256 -256l-127 -74q-67 131 -201 209q-135 78 -292 78q-271 0 -439 -174q-170 -176 -170 -428t170 -428
q168 -174 439 -174q242 0 387 121q144 123 165 311h-569v135z" />
    <glyph glyph-name="H" unicode="H" horiz-adv-x="1392" 
d="M1085 805v629h144v-1434h-144v670h-778v-670h-143v1434h143v-629h778z" />
    <glyph glyph-name="I" unicode="I" horiz-adv-x="471" 
d="M164 0v1434h143v-1434h-143z" />
    <glyph glyph-name="J" unicode="J" horiz-adv-x="1132" 
d="M252 37q-121 65 -170 184l121 72q67 -178 315 -178q328 0 328 291v1028h143v-1028q0 -209 -135 -320q-132 -111 -336 -111q-151 0 -266 62z" />
    <glyph glyph-name="K" unicode="K" horiz-adv-x="1187" 
d="M459 737l708 -737h-188l-672 694v-694h-143v1434h143v-656l651 656h189z" />
    <glyph glyph-name="L" unicode="L" horiz-adv-x="1003" 
d="M307 1434v-1299h656v-135h-799v1434h143z" />
    <glyph glyph-name="M" unicode="M" horiz-adv-x="1638" 
d="M1296 1434h179v-1434h-144v1217l-502 -840h-20l-502 840v-1217h-143v1434h178l477 -799z" />
    <glyph glyph-name="N" unicode="N" horiz-adv-x="1392" 
d="M1085 266v1168h144v-1434h-123l-799 1167v-1167h-143v1434h123z" />
    <glyph glyph-name="O" unicode="O" horiz-adv-x="1646" 
d="M823 -25q-311 0 -526 215q-215 218 -215 527t215 524q214 217 526 217q313 0 527 -217q215 -215 215 -524t-215 -527q-215 -215 -527 -215zM823 115q255 0 426 174q172 175 172 428q0 251 -172 426q-173 176 -426 176t-426 -176q-172 -175 -172 -426q0 -253 172 -428
q171 -174 426 -174z" />
    <glyph glyph-name="P" unicode="P" horiz-adv-x="1208" 
d="M164 1434h512q192 0 321 -129t129 -322q0 -192 -129 -321q-130 -130 -321 -130h-369v-532h-143v1434zM307 668h369q134 0 219 88q88 88 88 227q0 137 -88 225q-87 90 -219 90h-369v-630z" />
    <glyph glyph-name="Q" unicode="Q" horiz-adv-x="1656" 
d="M1348 193l163 -160l-96 -88l-166 164q-196 -134 -426 -134q-306 0 -524 218q-217 217 -217 524t217 524t524 217q308 0 525 -217t217 -524t-217 -524zM1147 209l-311 307l96 88l317 -311q172 175 172 424q0 250 -176 426t-422 176q-248 0 -424 -176q-174 -174 -174 -426
t174 -426q176 -176 424 -176q175 0 324 94z" />
    <glyph glyph-name="R" unicode="R" horiz-adv-x="1249" 
d="M1208 0h-164l-335 573h-402v-573h-143v1434h573q176 0 303 -127t127 -303q0 -148 -88 -261q-82 -110 -221 -151zM737 1298h-430v-589h430q120 0 203 86q84 90 84 209q0 118 -84 208q-83 86 -203 86z" />
    <glyph glyph-name="S" unicode="S" horiz-adv-x="1179" 
d="M279 68q-142 95 -197 258l123 71q83 -282 411 -282q158 0 250 71q88 67 88 187q0 112 -82 170q-77 57 -270 119q-233 78 -295 118q-164 99 -164 285q0 181 127 287q124 106 314 106q160 0 290 -86q121 -83 183 -223l-121 -68q-99 238 -352 238q-134 0 -215 -66
q-82 -67 -82 -182q0 -108 73 -160q78 -54 244 -108l111 -39q26 -7 98 -37q67 -26 96 -45q17 -8 35 -23q5 -3 19.5 -12.5t21.5 -15.5q48 -42 62 -70q51 -80 51 -184q0 -181 -133 -293q-133 -109 -351 -109q-195 0 -335 93z" />
    <glyph glyph-name="T" unicode="T" horiz-adv-x="1105" 
d="M41 1434h1024v-136h-440v-1298h-144v1298h-440v136z" />
    <glyph glyph-name="U" unicode="U" horiz-adv-x="1351" 
d="M143 487v947h144v-947q0 -173 102 -272q103 -100 287 -100t287 100q102 99 102 272v947h143v-947q0 -234 -147 -372q-152 -140 -385 -140t-385 140q-148 139 -148 372z" />
    <glyph glyph-name="V" unicode="V" horiz-adv-x="1245" 
d="M696 0h-147l-529 1434h156l447 -1244l446 1244h156z" />
    <glyph glyph-name="W" unicode="W" horiz-adv-x="2048" 
d="M649 0h-172l-416 1434h152l354 -1239l373 1239h168l373 -1239l354 1239h152l-416 -1434h-172l-375 1245z" />
    <glyph glyph-name="X" unicode="X" horiz-adv-x="1187" 
d="M676 739l471 -739h-164l-389 612l-389 -612h-164l471 739l-440 695h161l361 -566l360 566h162z" />
    <glyph glyph-name="Y" unicode="Y" horiz-adv-x="1218" 
d="M1036 1434h162l-518 -846v-588h-143v592l-517 842h162l428 -703z" />
    <glyph glyph-name="Z" unicode="Z" horiz-adv-x="1064" 
d="M983 1298l-741 -1163h762v-135h-922v135l741 1163h-721v136h881v-136z" />
    <glyph glyph-name="bracketleft" unicode="[" horiz-adv-x="573" 
d="M532 1638v-131h-274v-1581h274v-131h-409v1843h409z" />
    <glyph glyph-name="backslash" unicode="\" horiz-adv-x="1085" 
d="M1004 -205h-103l-819 1843h102z" />
    <glyph glyph-name="bracketright" unicode="]" horiz-adv-x="573" 
d="M41 1638h410v-1843h-410v131h274v1581h-274v131z" />
    <glyph glyph-name="asciicircum" unicode="^" horiz-adv-x="1024" 
d="M442 1434h140l360 -615h-158l-272 465l-272 -465h-158z" />
    <glyph glyph-name="underscore" unicode="_" horiz-adv-x="1064" 
d="M983 -289h-901v131h901v-131z" />
    <glyph glyph-name="grave" unicode="`" horiz-adv-x="409" 
d="M369 1167h-131l-197 267h164z" />
    <glyph glyph-name="A001" unicode="a" 
d="M1024 823v201h135v-1024h-135v201q-142 -226 -414 -226q-218 0 -374 156q-154 157 -154 381t154 381q156 156 374 156q272 0 414 -226zM621 106q169 0 286 117q117 120 117 289q0 170 -117 287q-116 119 -286 119q-171 0 -287 -119q-117 -117 -117 -287q0 -169 117 -289
q117 -117 287 -117z" />
    <glyph glyph-name="B002" unicode="b" 
d="M1065 893q156 -156 156 -381t-156 -381q-153 -156 -373 -156q-271 0 -413 226v-201h-136v1434h136v-611q142 226 413 226q220 0 373 -156zM682 106q170 0 287 117q116 119 116 289q0 171 -116 287q-116 119 -287 119t-287 -119q-116 -116 -116 -287q0 -170 116 -289
q117 -117 287 -117z" />
    <glyph glyph-name="C003" unicode="c" horiz-adv-x="1130" 
d="M236 129q-154 157 -154 383q0 227 154 381q153 156 385 156q149 0 272 -72q120 -74 176 -197l-111 -63q-40 90 -131 147q-94 54 -206 54q-171 0 -287 -119q-117 -117 -117 -287q0 -169 117 -289q117 -117 287 -117q234 0 346 201l112 -65q-66 -126 -186 -195
q-126 -72 -272 -72q-231 0 -385 154z" />
    <glyph glyph-name="D004" unicode="d" 
d="M1024 823v611h135v-1434h-135v201q-142 -226 -414 -226q-218 0 -374 156q-154 157 -154 381t154 381q156 156 374 156q272 0 414 -226zM621 106q169 0 286 117q117 120 117 289q0 170 -117 287q-116 119 -286 119q-171 0 -287 -119q-117 -117 -117 -287q0 -169 117 -289
q117 -117 287 -117z" />
    <glyph glyph-name="E005" unicode="e" horiz-adv-x="1196" 
d="M983 887q141 -159 141 -379q0 -3 -0.5 -11t-1.5 -23.5t-2 -29.5h-899q21 -154 131 -245q113 -93 277 -93q235 0 329 175l119 -70q-143 -236 -450 -236q-242 0 -394 152q-151 151 -151 385t149 383q151 154 385 154q230 0 367 -162zM348 823q-106 -92 -127 -248h764
q-21 162 -125 252q-111 91 -244 91q-159 0 -268 -95z" />
    <glyph glyph-name="F006" unicode="f" horiz-adv-x="655" 
d="M655 1458v-131q-295 24 -295 -262v-41h295v-131h-295v-893h-135v893h-174v131h174v41q0 203 111 305q115 103 319 88z" />
    <glyph glyph-name="G007" unicode="g" 
d="M1024 823v201h135v-983q0 -221 -151 -348t-363 -127q-358 0 -485 250l119 67q91 -186 366 -186q176 0 279 92q100 90 100 252v160q-142 -226 -414 -226q-218 0 -374 156q-154 157 -154 381t154 381q156 156 374 156q272 0 414 -226zM621 106q169 0 286 117
q117 120 117 289q0 170 -117 287q-116 119 -286 119q-171 0 -287 -119q-117 -117 -117 -287q0 -169 117 -289q117 -117 287 -117z" />
    <glyph glyph-name="H008" unicode="h" horiz-adv-x="1142" 
d="M915 934q109 -115 109 -305v-629h-135v629q0 135 -72 213q-73 76 -207 76q-152 0 -239 -93q-92 -103 -92 -288v-537h-136v1434h136v-570q114 185 344 185q183 0 292 -115z" />
    <glyph glyph-name="I009" unicode="i" horiz-adv-x="421" 
d="M211 1241q-41 0 -70 29q-28 28 -28 69q0 42 28 70q29 29 70 29t70 -29q28 -28 28 -70q0 -41 -28 -69q-29 -29 -70 -29zM279 0h-136v1024h136v-1024z" />
    <glyph glyph-name="J010" unicode="j" horiz-adv-x="471" 
d="M260 1438q41 0 70 -29q28 -28 28 -70q0 -41 -28 -69q-29 -29 -70 -29t-70 29q-28 28 -28 69q0 42 28 70q29 29 70 29zM193 -82v1106h135v-1106q0 -182 -97 -276q-94 -91 -272 -76v131q124 -12 178 39q56 53 56 182z" />
    <glyph glyph-name="K011" unicode="k" horiz-adv-x="1011" 
d="M422 532l549 -532h-180l-512 494v-494h-136v1434h136v-863l487 453h184z" />
    <glyph glyph-name="L012" unicode="l" horiz-adv-x="421" 
d="M279 0h-136v1495h136v-1495z" />
    <glyph glyph-name="M013" unicode="m" horiz-adv-x="1736" 
d="M1513 938q105 -111 105 -299v-639h-135v639q0 131 -70 207q-66 72 -180 72q-132 0 -207 -87q-78 -90 -78 -264v-567h-135v639q0 135 -63 207q-66 72 -177 72q-127 0 -208 -87q-86 -95 -86 -264v-567h-136v1024h136v-150q111 175 313 175q223 0 311 -187q111 187 332 187
q173 0 278 -111z" />
    <glyph glyph-name="N014" unicode="n" horiz-adv-x="1142" 
d="M915 934q109 -115 109 -305v-629h-135v629q0 135 -72 213q-73 76 -207 76q-152 0 -239 -93q-92 -103 -92 -288v-537h-136v1024h136v-160q114 185 344 185q183 0 292 -115z" />
    <glyph glyph-name="O015" unicode="o" horiz-adv-x="1241" 
d="M621 -25q-226 0 -383 154q-156 156 -156 383q0 228 156 381q156 156 383 156q224 0 380 -156q158 -155 158 -381q0 -225 -158 -383q-157 -154 -380 -154zM621 106q169 0 286 117q117 120 117 289q0 170 -117 287q-116 119 -286 119q-171 0 -287 -119q-117 -117 -117 -287
q0 -169 117 -289q117 -117 287 -117z" />
    <glyph glyph-name="P016" unicode="p" 
d="M1065 893q156 -156 156 -381t-156 -381q-153 -156 -373 -156q-271 0 -413 226v-611h-136v1434h136v-201q142 226 413 226q220 0 373 -156zM682 106q170 0 287 117q116 119 116 289q0 171 -116 287q-116 119 -287 119t-287 -119q-116 -116 -116 -287q0 -170 116 -289
q117 -117 287 -117z" />
    <glyph glyph-name="Q017" unicode="q" 
d="M1024 823v201h135v-1434h-135v611q-142 -226 -414 -226q-218 0 -374 156q-154 157 -154 381t154 381q156 156 374 156q272 0 414 -226zM621 106q169 0 286 117q117 120 117 289q0 170 -117 287q-116 119 -286 119q-171 0 -287 -119q-117 -117 -117 -287q0 -169 117 -289
q117 -117 287 -117z" />
    <glyph glyph-name="R018" unicode="r" horiz-adv-x="643" 
d="M279 1024v-170q94 186 323 186v-131q-149 0 -231 -82q-92 -89 -92 -258v-569h-136v1024h136z" />
    <glyph glyph-name="S019" unicode="s" horiz-adv-x="929" 
d="M461 582l65 -17l68 -18q66 -21 125 -53q129 -76 129 -224q0 -130 -105 -213q-101 -82 -266 -82q-139 0 -250 66q-103 65 -145 170l115 68q65 -173 280 -173q236 0 236 164q0 119 -211 174l-66 17l-67 18q-66 21 -125 53q-129 76 -129 224q0 127 98 209q104 84 252 84
q124 0 219 -56q93 -54 139 -153l-112 -66q-59 144 -246 144q-93 0 -152 -41q-63 -45 -63 -121q0 -119 211 -174z" />
    <glyph glyph-name="T020" unicode="t" horiz-adv-x="768" 
d="M686 1024v-131h-295v-621q0 -118 74 -145q48 -17 221 -8v-119q-217 -34 -321 31q-109 65 -109 241v621h-215v131h215v246l135 41v-287h295z" />
    <glyph glyph-name="U021" unicode="u" horiz-adv-x="1142" 
d="M864 487v537h135v-1024h-135v160q-114 -185 -344 -185q-184 0 -293 115q-108 114 -108 305v629h135v-629q0 -135 72 -213q73 -76 206 -76q153 0 240 93q92 103 92 288z" />
    <glyph glyph-name="V022" unicode="v" horiz-adv-x="1044" 
d="M522 141l359 883h143l-420 -1024h-164l-420 1024h144z" />
    <glyph glyph-name="W023" unicode="w" horiz-adv-x="1576" 
d="M1124 174l252 850h140l-316 -1024h-147l-265 825l-264 -825h-147l-316 1024h140l252 -850l268 850h135z" />
    <glyph glyph-name="X024" unicode="x" horiz-adv-x="1044" 
d="M604 530l400 -530h-162l-320 422l-319 -422h-162l401 530l-374 494h161l293 -387l293 387h162z" />
    <glyph glyph-name="Y025" unicode="y" horiz-adv-x="1044" 
d="M549 166l332 858h143l-438 -1118q-62 -158 -170 -240q-110 -85 -244 -76v127q188 -21 281 213l26 64l-459 1030h144z" />
    <glyph glyph-name="Z026" unicode="z" horiz-adv-x="962" 
d="M860 934l-569 -803h590v-131h-779v90l570 803h-549v131h737v-90z" />
    <glyph glyph-name="braceleft" unicode="{" horiz-adv-x="724" 
d="M684 -90v-131q-369 -35 -369 332v342q0 118 -49 161q-45 39 -164 39v131q119 0 164 39q49 43 49 162v342q0 367 369 332v-131q-126 12 -178 -31q-55 -46 -55 -170v-342q0 -219 -160 -266q160 -47 160 -266v-342q0 -124 55 -170q52 -43 178 -31z" />
    <glyph glyph-name="bar" unicode="|" horiz-adv-x="462" 
d="M299 -410h-135v1885h135v-1885z" />
    <glyph glyph-name="braceright" unicode="}" horiz-adv-x="724" 
d="M41 -221v131q126 -12 178 31q55 46 55 170v342q0 219 160 266q-160 47 -160 266v342q0 124 -55 170q-52 43 -178 31v131q369 35 369 -332v-342q0 -119 49 -162q45 -39 164 -39v-131q-119 0 -164 -39q-49 -43 -49 -161v-342q0 -367 -369 -332z" />
    <glyph glyph-name="asciitilde" unicode="~" horiz-adv-x="1216" 
d="M971 848l123 -57q-114 -366 -516 -132q-158 90 -230 68q-68 -21 -102 -141l-123 57q114 365 516 131q149 -94 229 -67q69 21 103 141z" />
    <glyph glyph-name="exclamdown" unicode="&#xa1;" horiz-adv-x="471" 
d="M236 1044q47 0 79 -32q33 -33 33 -80t-33 -80t-79 -33q-47 0 -80 33t-33 80t33 80q32 32 80 32zM154 0l30 635h103l30 -635v-410h-163v410z" />
    <glyph glyph-name="cent" unicode="&#xa2;" horiz-adv-x="1130" 
d="M967 512l112 -66q-66 -125 -186 -194q-126 -72 -272 -72q-53 0 -140 17l-63 -197h-103l74 229q-141 61 -223 193q-84 134 -84 295q0 227 154 381q152 155 385 155q65 0 96 -8l61 189h103l-70 -215q181 -67 258 -234l-111 -63q-58 119 -186 172l-250 -770q50 -13 99 -13
q234 0 346 201zM274 504q60 -97 156 -148l246 762q-14 1 -27.5 2t-19.5 1.5t-8 0.5q-172 0 -287 -118q-117 -117 -117 -287q0 -121 57 -213z" />
    <glyph glyph-name="sterling" unicode="&#xa3;" horiz-adv-x="1198" 
d="M418 592v-453h749v-139h-1085v139h192v453h-151v127h151v309q0 208 125 318q124 112 295 112q280 0 391 -274l-116 -66q-74 201 -275 201q-121 0 -196 -72q-80 -77 -80 -219v-309h473v-127h-473z" />
    <glyph glyph-name="currency" unicode="&#xa4;" horiz-adv-x="1130" 
d="M905 442l144 -143l-66 -66l-143 144q-119 -94 -275 -94q-155 0 -274 94l-144 -144l-65 66l143 143q-96 122 -96 275q0 152 96 274l-143 144l65 65l144 -143q119 94 274 94q156 0 275 -94l143 143l66 -65l-144 -144q96 -116 96 -274q0 -159 -96 -275zM264 717
q0 -126 86 -215q88 -88 215 -88q128 0 213 88q88 88 88 215t-88 215q-85 88 -213 88q-127 0 -215 -88q-86 -89 -86 -215z" />
    <glyph glyph-name="yen" unicode="&#xa5;" horiz-adv-x="1177" 
d="M1036 1434h162l-442 -723h274v-119h-348l-2 -4v-119h350v-119h-350v-350h-143v350h-387v119h387v123h-387v119h313l-443 723h162l428 -703z" />
    <glyph glyph-name="brokenbar" unicode="&#xa6;" horiz-adv-x="462" 
d="M299 717h-135v758h135v-758zM299 -410h-135v758h135v-758z" />
    <glyph glyph-name="section" unicode="&#xa7;" horiz-adv-x="1044" 
d="M922 74q0 -129 -103 -215q-101 -88 -266 -88q-323 0 -428 272l115 66q65 -207 313 -207q106 0 168 45q65 47 65 127q0 59 -49 108q-65 66 -262 148l-31 12q-144 61 -221 127q-100 87 -100 225q0 150 145 256q-84 84 -84 205q0 127 99 215q94 88 252 88q268 0 370 -246
l-110 -63q-70 178 -260 178q-92 0 -152 -45q-64 -49 -64 -127q0 -60 46 -106q51 -51 96 -74q75 -36 147 -68l33 -14q160 -72 236 -148q86 -89 86 -210q0 -148 -132 -250q91 -88 91 -211zM496 459q168 -63 231 -101q100 69 100 177q0 82 -63 139q-51 48 -180 102
q-150 58 -215 98q-111 -68 -111 -180q0 -146 238 -235z" />
    <glyph glyph-name="dieresis" unicode="&#xa8;" horiz-adv-x="655" 
d="M133 1178q-39 0 -65 26q-27 27 -27 66q0 38 27 65t65 27q39 0 66 -27q26 -26 26 -65q0 -40 -26 -66t-66 -26zM522 1178q-39 0 -65 26q-27 27 -27 66q0 38 27 65t65 27q39 0 66 -27q26 -26 26 -65q0 -40 -26 -66t-66 -26z" />
    <glyph glyph-name="copyright" unicode="&#xa9;" horiz-adv-x="1646" 
d="M823 -25q-306 0 -524 218q-217 217 -217 524t217 524t524 217q308 0 525 -217t217 -524t-217 -524q-218 -218 -525 -218zM823 33q282 0 480 198q200 200 200 486q0 283 -200 483q-201 201 -480 201q-280 0 -481 -201q-199 -199 -199 -483q0 -287 199 -486
q198 -198 481 -198zM547 438q-115 115 -115 279q0 163 115 278t282 115q228 0 336 -190l-112 -66q-59 129 -224 129q-118 0 -192 -80q-72 -78 -72 -186q0 -105 72 -189q74 -77 192 -77q165 0 226 131l112 -68q-108 -190 -338 -190q-168 0 -282 114z" />
    <glyph glyph-name="guillemotleft" unicode="&#xab;" horiz-adv-x="1007" 
d="M369 1001h168l-226 -368l226 -369h-168l-226 369zM696 1001h168l-225 -368l225 -369h-168l-225 369z" />
    <glyph glyph-name="logicalnot" unicode="&#xac;" horiz-adv-x="1064" 
d="M123 651v131h819v-368h-135v237h-684z" />
    <glyph glyph-name="registered" unicode="&#xae;" horiz-adv-x="1646" 
d="M823 1458q308 0 525 -217t217 -524t-217 -524q-218 -218 -525 -218q-306 0 -524 218q-217 217 -217 524t217 524t524 217zM823 33q282 0 480 198q200 200 200 486q0 283 -200 483q-201 201 -480 201q-280 0 -481 -201q-199 -199 -199 -483q0 -287 199 -486
q198 -198 481 -198zM979 633l160 -295h-142l-145 270h-127v-270h-127v758h233q132 0 211 -70q76 -67 76 -174q0 -163 -139 -219zM840 973h-115v-242h115q151 0 151 121t-151 121z" />
    <glyph glyph-name="macron" unicode="&#xaf;" horiz-adv-x="614" 
d="M573 1188h-532v119h532v-119z" />
    <glyph glyph-name="degree" unicode="&#xb0;" horiz-adv-x="790" 
d="M172 1133q-90 90 -90 219q0 127 90 217t223 90t223 -90q91 -91 91 -217q0 -131 -88 -219q-89 -89 -226 -89q-134 0 -223 89zM395 1167q77 0 131 54q52 52 52 131t-52 131q-53 53 -131 53t-131 -53q-51 -51 -51 -131t51 -131q54 -54 131 -54z" />
    <glyph glyph-name="plusminus" unicode="&#xb1;" horiz-adv-x="1105" 
d="M618 1249v-334h365v-131h-365v-333h-131v333h-364v131h364v334h131zM983 184h-860v131h860v-131z" />
    <glyph glyph-name="acute" unicode="&#xb4;" horiz-adv-x="409" 
d="M41 1167l164 267h164l-197 -267h-131z" />
    <glyph glyph-name="mu" unicode="&#xb5;" horiz-adv-x="1241" 
d="M1100 131h80v-131h-97q-165 0 -192 166q-114 -191 -346 -191q-175 0 -266 105v-490h-136v1434h136v-629q0 -136 71 -213q73 -76 207 -76q153 0 240 93q92 103 92 288v537h135v-819q0 -74 76 -74z" />
    <glyph glyph-name="paragraph" unicode="&#xb6;" horiz-adv-x="1187" 
d="M492 1434h614v-127h-123v-1717h-131v1717h-229v-1717h-131v1024q-172 0 -291 119t-119 291q0 170 119 289q121 121 291 121z" />
    <glyph glyph-name="periodcentered" unicode="&#xb7;" horiz-adv-x="471" 
d="M236 604q-47 0 -80 33t-33 80t33 80q32 32 80 32q47 0 79 -32q33 -33 33 -80t-33 -80t-79 -33z" />
    <glyph glyph-name="cedilla" unicode="&#xb8;" horiz-adv-x="501" 
d="M270 0v-92q191 -38 191 -166q0 -208 -420 -184v110q301 -24 301 74q0 78 -190 84v174h118z" />
    <glyph glyph-name="guillemotright" unicode="&#xbb;" horiz-adv-x="1007" 
d="M143 1001h168l226 -368l-226 -369h-168l226 369zM471 1001h168l225 -368l-225 -369h-168l225 369z" />
    <glyph glyph-name="onequarter" unicode="&#xbc;" horiz-adv-x="1681" 
d="M367 1434v-820h-127v680l-187 -55l-33 109l238 86h109zM260 0l819 1434h123l-819 -1434h-123zM1536 272h104v-118h-104v-154h-127v154h-422v118l305 547h138l-304 -547h283v197h127v-197z" />
    <glyph glyph-name="onehalf" unicode="&#xbd;" horiz-adv-x="1652" 
d="M367 1434v-820h-127v680l-187 -55l-33 109l238 86h109zM260 0l819 1434h123l-819 -1434h-123zM1450 338l-242 -215h385v-123h-573v104l344 316q86 77 86 174q0 59 -39 92q-41 35 -108 35q-126 0 -179 -127l-106 59q77 191 285 191q120 0 198 -72q76 -70 76 -178
q0 -141 -127 -256z" />
    <glyph glyph-name="threequarters" unicode="&#xbe;" horiz-adv-x="1896" 
d="M559 664q-83 -74 -217 -74q-209 0 -291 172l107 61q52 -110 184 -110q172 0 172 141q0 63 -45 102t-127 39h-8l-64 97l185 219h-377v123h528v-123l-182 -217q217 -43 217 -240q0 -120 -82 -190zM475 0l819 1434h123l-819 -1434h-123zM1751 272h104v-118h-104v-154h-127
v154h-422v118l305 547h138l-304 -547h283v197h127v-197z" />
    <glyph glyph-name="questiondown" unicode="&#xbf;" horiz-adv-x="1089" 
d="M588 1044q48 0 80 -32t32 -80t-32 -80q-33 -33 -80 -33t-80 33t-33 80t33 80q32 32 80 32zM516 635h143q0 -185 -139 -324l-43 -41l-43 -41q-68 -68 -82 -86q-86 -103 -86 -198q0 -113 80 -178q77 -62 209 -62q252 0 311 207l121 -68q-47 -133 -166 -206
q-116 -72 -266 -72q-183 0 -307 100q-125 98 -125 279q0 159 139 295l43 41l43 43q59 59 82 90q86 112 86 221z" />
    <glyph glyph-name="Agrave" unicode="&#xc0;" horiz-adv-x="1290" 
d="M604 1843l164 -266h-131l-197 266h164zM1270 0h-152l-133 352h-680l-133 -352h-152l551 1434h148zM645 1255l-289 -768h578z" />
    <glyph glyph-name="Aacute" unicode="&#xc1;" horiz-adv-x="1290" 
d="M707 1843h163l-196 -266h-131zM1270 0h-152l-133 352h-680l-133 -352h-152l551 1434h148zM645 1255l-289 -768h578z" />
    <glyph glyph-name="Acircumflex" unicode="&#xc2;" horiz-adv-x="1290" 
d="M788 1511l-143 179l-143 -179h-154l217 267h160l217 -267h-154zM1270 0h-152l-133 352h-680l-133 -352h-152l551 1434h148zM645 1255l-289 -768h578z" />
    <glyph glyph-name="Atilde" unicode="&#xc3;" horiz-adv-x="1290" 
d="M522 1712q-45 3 -45 -115h-119q0 177 93 224q82 40 196 -45q92 -71 123 -68q43 3 43 115h119q0 -177 -90 -224q-82 -40 -197 46q-88 64 -123 67zM1270 0h-152l-133 352h-680l-133 -352h-152l551 1434h148zM645 1255l-289 -768h578z" />
    <glyph glyph-name="Adieresis" unicode="&#xc4;" horiz-adv-x="1290" 
d="M451 1587q-39 0 -66 27t-27 65q0 39 27 66t66 27q38 0 65 -27t27 -66q0 -38 -27 -65t-65 -27zM840 1587q-39 0 -66 27q-26 26 -26 65q0 40 26 66q27 27 66 27q38 0 65 -27t27 -66q0 -38 -27 -65t-65 -27zM1270 0h-152l-133 352h-680l-133 -352h-152l551 1434h148z
M645 1255l-289 -768h578z" />
    <glyph glyph-name="Aring" unicode="&#xc5;" horiz-adv-x="1290" 
d="M1270 0h-152l-133 352h-680l-133 -352h-152l527 1370q-119 52 -119 186q0 87 59 146q62 59 158 59t158 -59q59 -59 59 -146q0 -134 -119 -186zM567 1628q-24 -27 -24 -72q0 -44 24 -71q25 -32 78 -29q52 -3 80 29q27 27 27 71q0 45 -27 72q-28 32 -80 29q-53 3 -78 -29z
M645 1255l-289 -768h578z" />
    <glyph glyph-name="AE" unicode="&#xc6;" horiz-adv-x="1802" 
d="M1065 655v-520h655v-135h-798v352h-543l-215 -352h-164l297 485v2h2l580 947h831v-136h-645v-507h614v-136h-614zM922 1243l-461 -756h461v756z" />
    <glyph glyph-name="Ccedilla" unicode="&#xc7;" horiz-adv-x="1525" 
d="M1126 193q134 78 201 208l127 -71q-83 -151 -231 -244q-149 -94 -334 -109v-69q190 -37 190 -166q0 -208 -420 -184v110q302 -24 302 74q0 78 -191 84v151q-301 21 -496 234q-192 210 -192 506q0 307 213 526q212 215 539 215q192 0 364 -96q167 -96 256 -256l-127 -74
q-67 131 -201 209q-135 78 -292 78q-271 0 -439 -174q-170 -176 -170 -428t170 -428q168 -174 439 -174q157 0 292 78z" />
    <glyph glyph-name="Egrave" unicode="&#xc8;" horiz-adv-x="1085" 
d="M539 1843l163 -266h-131l-196 266h164zM307 655v-520h697v-135h-840v1434h829v-136h-686v-507h635v-136h-635z" />
    <glyph glyph-name="Eacute" unicode="&#xc9;" horiz-adv-x="1085" 
d="M641 1843h164l-197 -266h-131zM307 655v-520h697v-135h-840v1434h829v-136h-686v-507h635v-136h-635z" />
    <glyph glyph-name="Ecircumflex" unicode="&#xca;" horiz-adv-x="1085" 
d="M723 1577l-143 178l-144 -178h-153l217 266h159l218 -266h-154zM307 655v-520h697v-135h-840v1434h829v-136h-686v-507h635v-136h-635z" />
    <glyph glyph-name="Edieresis" unicode="&#xcb;" horiz-adv-x="1085" 
d="M385 1587q-39 0 -66 27q-26 26 -26 65q0 40 26 66q27 27 66 27t66 -27q26 -26 26 -66q0 -39 -26 -65q-27 -27 -66 -27zM774 1587q-38 0 -65 27t-27 65q0 39 27 66t65 27q39 0 66 -27q26 -26 26 -66q0 -39 -26 -65q-27 -27 -66 -27zM307 655v-520h697v-135h-840v1434h829
v-136h-686v-507h635v-136h-635z" />
    <glyph glyph-name="Igrave" unicode="&#xcc;" horiz-adv-x="471" 
d="M227 1577h131l-163 266h-164zM164 0v1434h143v-1434h-143z" />
    <glyph glyph-name="Iacute" unicode="&#xcd;" horiz-adv-x="471" 
d="M297 1843l-164 -266h131l197 266h-164zM164 0v1434h143v-1434h-143z" />
    <glyph glyph-name="Icircumflex" unicode="&#xce;" horiz-adv-x="471" 
d="M156 1843h159l217 -266h-153l-143 178l-144 -178h-153zM307 0h-143v1434h143v-1434z" />
    <glyph glyph-name="Idieresis" unicode="&#xcf;" horiz-adv-x="471" 
d="M41 1587q-39 0 -66 27q-26 26 -26 65q0 40 26 66q27 27 66 27q38 0 65 -27t27 -66q0 -38 -27 -65t-65 -27zM430 1587q-38 0 -65 27t-27 65q0 39 27 66t65 27q39 0 66 -27q26 -26 26 -66q0 -39 -26 -65q-27 -27 -66 -27zM164 0v1434h143v-1434h-143z" />
    <glyph glyph-name="Eth" unicode="&#xd0;" horiz-adv-x="1515" 
d="M205 1434h553q292 0 483 -209q193 -205 193 -508q0 -305 -193 -510q-192 -207 -483 -207h-553v651h-144v131h144v652zM348 135h410q236 0 385 168q151 171 151 414q0 242 -151 413q-149 168 -385 168h-410v-516h451v-131h-451v-516z" />
    <glyph glyph-name="Ntilde" unicode="&#xd1;" horiz-adv-x="1392" 
d="M528 1597h-118q0 177 92 224q82 40 196 -45q92 -71 123 -68q43 3 43 115h119q0 -177 -90 -224q-82 -40 -197 46q-88 64 -123 67q-45 3 -45 -115zM1085 266v1168h144v-1434h-123l-799 1167v-1167h-143v1434h123z" />
    <glyph glyph-name="Ograve" unicode="&#xd2;" horiz-adv-x="1646" 
d="M815 1577h131l-164 266h-164zM1565 717q0 -309 -215 -527q-215 -215 -527 -215q-311 0 -526 215q-215 218 -215 527t215 524q214 217 526 217q313 0 527 -217q215 -215 215 -524zM225 717q0 -253 172 -428q171 -174 426 -174t426 174q172 175 172 428q0 251 -172 426
q-173 176 -426 176t-426 -176q-172 -175 -172 -426z" />
    <glyph glyph-name="Oacute" unicode="&#xd3;" horiz-adv-x="1646" 
d="M885 1843l-164 -266h131l197 266h-164zM1565 717q0 -309 -215 -527q-215 -215 -527 -215q-311 0 -526 215q-215 218 -215 527t215 524q214 217 526 217q313 0 527 -217q215 -215 215 -524zM225 717q0 -253 172 -428q171 -174 426 -174t426 174q172 175 172 428
q0 251 -172 426q-173 176 -426 176t-426 -176q-172 -175 -172 -426z" />
    <glyph glyph-name="Ocircumflex" unicode="&#xd4;" horiz-adv-x="1646" 
d="M967 1577l-144 178l-143 -178h-154l217 266h160l217 -266h-153zM823 1458q313 0 527 -217q215 -215 215 -524t-215 -527q-215 -215 -527 -215q-311 0 -526 215q-215 218 -215 527t215 524q214 217 526 217zM823 115q255 0 426 174q172 175 172 428q0 251 -172 426
q-173 176 -426 176t-426 -176q-172 -175 -172 -426q0 -253 172 -428q171 -174 426 -174z" />
    <glyph glyph-name="Otilde" unicode="&#xd5;" horiz-adv-x="1646" 
d="M655 1597h-118q0 177 92 224q82 40 196 -45q92 -71 123 -68q43 3 43 115h119q0 -177 -90 -224q-82 -40 -197 46q-88 64 -123 67q-45 3 -45 -115zM823 -25q-311 0 -526 215q-215 218 -215 527t215 524q214 217 526 217q313 0 527 -217q215 -215 215 -524t-215 -527
q-215 -215 -527 -215zM823 115q255 0 426 174q172 175 172 428q0 251 -172 426q-173 176 -426 176t-426 -176q-172 -175 -172 -426q0 -253 172 -428q171 -174 426 -174z" />
    <glyph glyph-name="Odieresis" unicode="&#xd6;" horiz-adv-x="1646" 
d="M629 1587q-39 0 -66 27q-26 26 -26 65q0 40 26 66q27 27 66 27q38 0 65 -27t27 -66q0 -38 -27 -65t-65 -27zM1018 1587q-39 0 -66 27q-26 26 -26 65q0 40 26 66q27 27 66 27q38 0 65 -27t27 -66q0 -38 -27 -65t-65 -27zM823 -25q-311 0 -526 215q-215 218 -215 527
t215 524q214 217 526 217q313 0 527 -217q215 -215 215 -524t-215 -527q-215 -215 -527 -215zM823 115q255 0 426 174q172 175 172 428q0 251 -172 426q-173 176 -426 176t-426 -176q-172 -175 -172 -426q0 -253 172 -428q171 -174 426 -174z" />
    <glyph glyph-name="multiply" unicode="&#xd7;" horiz-adv-x="964" 
d="M770 1094l92 -86l-291 -291l291 -291l-92 -86l-287 289l-288 -289l-93 86l291 291l-291 291l93 86l288 -287z" />
    <glyph glyph-name="Oslash" unicode="&#xd8;" horiz-adv-x="1667" 
d="M1483 1378l-115 -133q217 -217 217 -528q0 -309 -215 -527q-215 -215 -526 -215q-243 0 -441 142l-100 -117l-96 55l115 133q-220 217 -220 529q0 309 215 524q214 217 527 217q250 0 442 -143l100 119zM412 295l782 913q-156 111 -350 111q-253 0 -426 -176
q-172 -175 -172 -426q0 -247 166 -422zM1270 289q172 175 172 428q0 248 -166 420l-780 -914q156 -108 348 -108q255 0 426 174z" />
    <glyph glyph-name="Ugrave" unicode="&#xd9;" horiz-adv-x="1351" 
d="M668 1577h131l-164 266h-164zM143 487v947h144v-947q0 -173 102 -272q103 -100 287 -100t287 100q102 99 102 272v947h143v-947q0 -234 -147 -372q-152 -140 -385 -140t-385 140q-148 139 -148 372z" />
    <glyph glyph-name="Uacute" unicode="&#xda;" horiz-adv-x="1351" 
d="M737 1843l-164 -266h132l196 266h-164zM143 487v947h144v-947q0 -173 102 -272q103 -100 287 -100t287 100q102 99 102 272v947h143v-947q0 -234 -147 -372q-152 -140 -385 -140t-385 140q-148 139 -148 372z" />
    <glyph glyph-name="Ucircumflex" unicode="&#xdb;" horiz-adv-x="1351" 
d="M819 1577l-143 178l-144 -178h-153l217 266h160l217 -266h-154zM1065 487v947h143v-947q0 -234 -147 -372q-152 -140 -385 -140t-385 140q-148 139 -148 372v947h144v-947q0 -173 102 -272q103 -100 287 -100t287 100q102 99 102 272z" />
    <glyph glyph-name="Udieresis" unicode="&#xdc;" horiz-adv-x="1351" 
d="M481 1587q-38 0 -65 27t-27 65q0 39 27 66t65 27q39 0 66 -27q26 -26 26 -66q0 -39 -26 -65q-27 -27 -66 -27zM870 1587q-38 0 -65 27t-27 65q0 39 27 66t65 27q39 0 66 -27t27 -66q0 -38 -27 -65t-66 -27zM143 487v947h144v-947q0 -173 102 -272q103 -100 287 -100
t287 100q102 99 102 272v947h143v-947q0 -234 -147 -372q-152 -140 -385 -140t-385 140q-148 139 -148 372z" />
    <glyph glyph-name="Yacute" unicode="&#xdd;" horiz-adv-x="1218" 
d="M664 1843h163l-196 -266h-131zM1036 1434h162l-518 -846v-588h-143v592l-517 842h162l428 -703z" />
    <glyph glyph-name="Thorn" unicode="&#xde;" horiz-adv-x="1208" 
d="M307 1167h369q192 0 321 -129t129 -321q0 -193 -129 -322t-321 -129h-369v-266h-143v1434h143v-267zM307 401h369q134 0 219 88q88 88 88 228q0 137 -88 225q-87 90 -219 90h-369v-631z" />
    <glyph glyph-name="germandbls" unicode="&#xdf;" horiz-adv-x="1056" 
d="M592 -6v123q289 -15 289 172q0 121 -148 266q-147 147 -147 252q-3 52 90 164q51 64 63 86q30 51 27 80q0 89 -61 141q-58 49 -162 49q-116 0 -187 -65q-77 -71 -77 -207v-1055h-136v1055q0 187 111 295q114 108 289 108q167 0 262 -92q96 -93 96 -229q3 -43 -27 -101
q-22 -43 -63 -92q-93 -112 -90 -137q0 -78 147 -213q62 -56 103 -133q45 -86 45 -172q0 -149 -111 -228q-113 -82 -313 -67z" />
    <glyph glyph-name="Agrave027" unicode="&#xe0;" 
d="M584 1434l164 -267h-132l-196 267h164zM1024 823v201h135v-1024h-135v201q-142 -226 -414 -226q-218 0 -374 156q-154 157 -154 381t154 381q156 156 374 156q272 0 414 -226zM621 106q169 0 286 117q117 120 117 289q0 170 -117 287q-116 119 -286 119q-171 0 -287 -119
q-117 -117 -117 -287q0 -169 117 -289q117 -117 287 -117z" />
    <glyph glyph-name="Aacute028" unicode="&#xe1;" 
d="M686 1434h164l-197 -267h-131zM1024 823v201h135v-1024h-135v201q-142 -226 -414 -226q-218 0 -374 156q-154 157 -154 381t154 381q156 156 374 156q272 0 414 -226zM621 106q169 0 286 117q117 120 117 289q0 170 -117 287q-116 119 -286 119q-171 0 -287 -119
q-117 -117 -117 -287q0 -169 117 -289q117 -117 287 -117z" />
    <glyph glyph-name="Acircumflex029" unicode="&#xe2;" 
d="M768 1167l-143 179l-144 -179h-153l217 267h160l217 -267h-154zM1024 823v201h135v-1024h-135v201q-142 -226 -414 -226q-218 0 -374 156q-154 157 -154 381t154 381q156 156 374 156q272 0 414 -226zM621 106q169 0 286 117q117 120 117 289q0 170 -117 287
q-116 119 -286 119q-171 0 -287 -119q-117 -117 -117 -287q0 -169 117 -289q117 -117 287 -117z" />
    <glyph glyph-name="Atilde030" unicode="&#xe3;" 
d="M502 1303q-45 3 -45 -115h-119q0 176 92 223q83 41 197 -45q92 -71 123 -68q43 3 43 115h118q0 -176 -90 -223q-82 -40 -196 45q-89 65 -123 68zM1024 823v201h135v-1024h-135v201q-142 -226 -414 -226q-218 0 -374 156q-154 157 -154 381t154 381q156 156 374 156
q272 0 414 -226zM621 106q169 0 286 117q117 120 117 289q0 170 -117 287q-116 119 -286 119q-171 0 -287 -119q-117 -117 -117 -287q0 -169 117 -289q117 -117 287 -117z" />
    <glyph glyph-name="Adieresis031" unicode="&#xe4;" 
d="M430 1178q-39 0 -65 26q-27 27 -27 66q0 38 27 65t65 27q39 0 66 -27q26 -26 26 -65q0 -40 -26 -66t-66 -26zM819 1178q-39 0 -65 26q-27 27 -27 66q0 38 27 65t65 27q39 0 66 -27q26 -26 26 -65q0 -40 -26 -66t-66 -26zM1024 823v201h135v-1024h-135v201
q-142 -226 -414 -226q-218 0 -374 156q-154 157 -154 381t154 381q156 156 374 156q272 0 414 -226zM621 106q169 0 286 117q117 120 117 289q0 170 -117 287q-116 119 -286 119q-171 0 -287 -119q-117 -117 -117 -287q0 -169 117 -289q117 -117 287 -117z" />
    <glyph glyph-name="Aring032" unicode="&#xe5;" 
d="M625 1126q-100 0 -158 58q-59 59 -59 147q0 87 59 146q65 59 158 59q96 0 155 -59q62 -59 62 -146q0 -88 -62 -147q-58 -58 -155 -58zM547 1403q-25 -28 -25 -72q0 -43 25 -71q25 -32 78 -29q52 -3 80 29q26 26 26 71q0 46 -26 72q-28 32 -80 29q-53 3 -78 -29zM1024 823
v201h135v-1024h-135v201q-142 -226 -414 -226q-218 0 -374 156q-154 157 -154 381t154 381q156 156 374 156q272 0 414 -226zM621 106q169 0 286 117q117 120 117 289q0 170 -117 287q-116 119 -286 119q-171 0 -287 -119q-117 -117 -117 -287q0 -169 117 -289
q117 -117 287 -117z" />
    <glyph glyph-name="AE033" unicode="&#xe6;" horiz-adv-x="2134" 
d="M1927 889q135 -156 135 -381q0 -3 -0.5 -11t-1.5 -23.5t-2 -29.5h-895q21 -158 127 -245q110 -93 269 -93q238 0 337 175l119 -70q-67 -110 -182 -172q-116 -64 -256 -64q-290 0 -418 224v-199h-135v201q-142 -226 -414 -226q-218 0 -374 156q-154 157 -154 381t154 381
q156 156 374 156q272 0 414 -226v201h135v-205q128 230 404 230q231 0 364 -160zM621 106q169 0 286 117q117 120 117 289q0 170 -117 287q-116 119 -286 119q-171 0 -287 -119q-117 -117 -117 -287q0 -169 117 -289q117 -117 287 -117zM1286 823q-105 -91 -123 -248h760
q-18 157 -121 252q-105 91 -246 91q-161 0 -270 -95z" />
    <glyph glyph-name="Ccedilla034" unicode="&#xe7;" horiz-adv-x="1130" 
d="M967 307l112 -65q-59 -113 -164 -181q-111 -72 -241 -84v-69q190 -37 190 -166q0 -208 -420 -184v110q301 -24 301 74q0 78 -190 84v154q-207 21 -340 172t-133 360q0 227 154 381q153 156 385 156q149 0 272 -72q120 -74 176 -197l-111 -63q-40 90 -131 147
q-94 54 -206 54q-171 0 -287 -119q-117 -117 -117 -287q0 -169 117 -289q117 -117 287 -117q234 0 346 201z" />
    <glyph glyph-name="Egrave035" unicode="&#xe8;" horiz-adv-x="1196" 
d="M563 1434l164 -267h-131l-197 267h164zM983 887q141 -159 141 -379q0 -3 -0.5 -11t-1.5 -23.5t-2 -29.5h-899q21 -154 131 -245q113 -93 277 -93q235 0 329 175l119 -70q-143 -236 -450 -236q-242 0 -394 152q-151 151 -151 385t149 383q151 154 385 154q230 0 367 -162z
M348 823q-106 -92 -127 -248h764q-21 162 -125 252q-111 91 -244 91q-159 0 -268 -95z" />
    <glyph glyph-name="Eacute036" unicode="&#xe9;" horiz-adv-x="1196" 
d="M666 1434h163l-196 -267h-131zM983 887q141 -159 141 -379q0 -3 -0.5 -11t-1.5 -23.5t-2 -29.5h-899q21 -154 131 -245q113 -93 277 -93q235 0 329 175l119 -70q-143 -236 -450 -236q-242 0 -394 152q-151 151 -151 385t149 383q151 154 385 154q230 0 367 -162zM348 823
q-106 -92 -127 -248h764q-21 162 -125 252q-111 91 -244 91q-159 0 -268 -95z" />
    <glyph glyph-name="Ecircumflex037" unicode="&#xea;" horiz-adv-x="1196" 
d="M748 1167l-144 179l-143 -179h-154l217 267h160l217 -267h-153zM983 887q141 -159 141 -379q0 -3 -0.5 -11t-1.5 -23.5t-2 -29.5h-899q21 -154 131 -245q113 -93 277 -93q235 0 329 175l119 -70q-143 -236 -450 -236q-242 0 -394 152q-151 151 -151 385t149 383
q151 154 385 154q230 0 367 -162zM348 823q-106 -92 -127 -248h764q-21 162 -125 252q-111 91 -244 91q-159 0 -268 -95z" />
    <glyph glyph-name="Edieresis038" unicode="&#xeb;" horiz-adv-x="1196" 
d="M410 1178q-40 0 -66 26q-27 27 -27 66q0 38 27 65t66 27q38 0 65 -27t27 -65q0 -39 -27 -66q-26 -26 -65 -26zM799 1178q-40 0 -66 26t-26 66q0 39 26 65q27 27 66 27q38 0 65 -27t27 -65q0 -39 -27 -66q-26 -26 -65 -26zM983 887q141 -159 141 -379q0 -3 -0.5 -11
t-1.5 -23.5t-2 -29.5h-899q21 -154 131 -245q113 -93 277 -93q235 0 329 175l119 -70q-143 -236 -450 -236q-242 0 -394 152q-151 151 -151 385t149 383q151 154 385 154q230 0 367 -162zM348 823q-106 -92 -127 -248h764q-21 162 -125 252q-111 91 -244 91q-159 0 -268 -95
z" />
    <glyph glyph-name="Igrave039" unicode="&#xec;" horiz-adv-x="421" 
d="M143 1167h131l-102 267h-164zM279 1024v-1024h-136v1024h136z" />
    <glyph glyph-name="Iacute040" unicode="&#xed;" horiz-adv-x="421" 
d="M252 1434l-102 -267h131l135 267h-164zM279 0h-136v1024h136v-1024z" />
    <glyph glyph-name="Icircumflex041" unicode="&#xee;" horiz-adv-x="421" 
d="M131 1434h160l176 -267h-154l-102 156l-102 -156h-154zM279 0h-136v1024h136v-1024z" />
    <glyph glyph-name="Idieresis042" unicode="&#xef;" horiz-adv-x="421" 
d="M68 1178q-40 0 -66 26q-27 27 -27 66q0 38 27 65t66 27q38 0 65 -27t27 -65q0 -39 -27 -66q-26 -26 -65 -26zM354 1178q-39 0 -65 26q-27 27 -27 66q0 38 27 65t65 27q39 0 66 -27q26 -26 26 -65q0 -40 -26 -66t-66 -26zM279 0h-136v1024h136v-1024z" />
    <glyph glyph-name="Eth043" unicode="&#xf0;" horiz-adv-x="1200" 
d="M670 1233l354 -475q94 -125 94 -287q0 -220 -153 -358q-150 -138 -365 -138q-217 0 -367 138q-151 139 -151 358q0 213 147 348q150 135 351 135q95 0 163 -32l-182 243l-229 -141v123l168 102l-138 185h158l88 -117l230 141v-123zM922 682q-109 145 -318 145
q-168 0 -278 -98q-109 -100 -109 -258q0 -163 113 -264t270 -101t270 101t113 264q0 129 -61 211z" />
    <glyph glyph-name="Ntilde044" unicode="&#xf1;" horiz-adv-x="1142" 
d="M471 1303q-45 3 -45 -115h-119q0 176 92 223q83 41 197 -45q92 -71 123 -68q43 3 43 115h119q0 -176 -90 -223q-83 -41 -197 45q-89 65 -123 68zM915 934q109 -115 109 -305v-629h-135v629q0 135 -72 213q-73 76 -207 76q-152 0 -239 -93q-92 -103 -92 -288v-537h-136
v1024h136v-160q114 185 344 185q183 0 292 -115z" />
    <glyph glyph-name="Ograve045" unicode="&#xf2;" horiz-adv-x="1241" 
d="M612 1167h131l-163 267h-164zM1159 512q0 -225 -158 -383q-157 -154 -380 -154q-226 0 -383 154q-156 156 -156 383q0 228 156 381q156 156 383 156q224 0 380 -156q158 -155 158 -381zM217 512q0 -169 117 -289q117 -117 287 -117q169 0 286 117q117 120 117 289
q0 170 -117 287q-116 119 -286 119q-171 0 -287 -119q-117 -117 -117 -287z" />
    <glyph glyph-name="Oacute046" unicode="&#xf3;" horiz-adv-x="1241" 
d="M682 1434l-164 -267h131l197 267h-164zM1159 512q0 -225 -158 -383q-157 -154 -380 -154q-226 0 -383 154q-156 156 -156 383q0 228 156 381q156 156 383 156q224 0 380 -156q158 -155 158 -381zM217 512q0 -169 117 -289q117 -117 287 -117q169 0 286 117
q117 120 117 289q0 170 -117 287q-116 119 -286 119q-171 0 -287 -119q-117 -117 -117 -287z" />
    <glyph glyph-name="Ocircumflex047" unicode="&#xf4;" horiz-adv-x="1241" 
d="M764 1167l-143 179l-144 -179h-153l217 267h159l218 -267h-154zM621 1049q224 0 380 -156q158 -155 158 -381q0 -225 -158 -383q-157 -154 -380 -154q-226 0 -383 154q-156 156 -156 383q0 228 156 381q156 156 383 156zM621 106q169 0 286 117q117 120 117 289
q0 170 -117 287q-116 119 -286 119q-171 0 -287 -119q-117 -117 -117 -287q0 -169 117 -289q117 -117 287 -117z" />
    <glyph glyph-name="Otilde048" unicode="&#xf5;" horiz-adv-x="1241" 
d="M453 1188h-119q0 176 92 223q83 41 197 -45q92 -71 122 -68q43 3 43 115h119q0 -176 -90 -223q-82 -40 -196 45q-89 65 -123 68q-45 3 -45 -115zM621 -25q-226 0 -383 154q-156 156 -156 383q0 228 156 381q156 156 383 156q224 0 380 -156q158 -155 158 -381
q0 -225 -158 -383q-157 -154 -380 -154zM621 106q169 0 286 117q117 120 117 289q0 170 -117 287q-116 119 -286 119q-171 0 -287 -119q-117 -117 -117 -287q0 -169 117 -289q117 -117 287 -117z" />
    <glyph glyph-name="Odieresis049" unicode="&#xf6;" horiz-adv-x="1241" 
d="M426 1178q-40 0 -66 26t-26 66q0 39 26 65q27 27 66 27t66 -27q26 -26 26 -65q0 -40 -26 -66t-66 -26zM815 1178q-39 0 -65 26q-27 27 -27 66q0 38 27 65t65 27q39 0 66 -27q26 -26 26 -65q0 -40 -26 -66t-66 -26zM621 -25q-226 0 -383 154q-156 156 -156 383
q0 228 156 381q156 156 383 156q224 0 380 -156q158 -155 158 -381q0 -225 -158 -383q-157 -154 -380 -154zM621 106q169 0 286 117q117 120 117 289q0 170 -117 287q-116 119 -286 119q-171 0 -287 -119q-117 -117 -117 -287q0 -169 117 -289q117 -117 287 -117z" />
    <glyph glyph-name="divide" unicode="&#xf7;" horiz-adv-x="1187" 
d="M594 987q-47 0 -80 33t-33 80t33 80q32 32 80 32t80 -32q33 -33 33 -80t-33 -80t-80 -33zM1065 651h-942v131h942v-131zM594 221q-47 0 -80 33t-33 80t33 80q32 32 80 32t80 -32q33 -33 33 -80t-33 -80t-80 -33z" />
    <glyph glyph-name="Oslash050" unicode="&#xf8;" horiz-adv-x="1241" 
d="M1106 987l-92 -104q145 -157 145 -371q0 -225 -158 -383q-157 -154 -380 -154q-180 0 -324 105l-80 -90l-82 47l92 104q-145 157 -145 371q0 228 156 381q156 156 383 156q179 0 323 -105l80 90zM317 242l537 602q-103 74 -233 74q-171 0 -287 -119q-117 -117 -117 -287
q0 -158 100 -270zM907 223q117 120 117 289q0 158 -100 270l-537 -602q103 -74 234 -74q169 0 286 117z" />
    <glyph glyph-name="Ugrave051" unicode="&#xf9;" horiz-adv-x="1142" 
d="M514 1434l164 -267h-131l-197 267h164zM864 487v537h135v-1024h-135v160q-114 -185 -344 -185q-184 0 -293 115q-108 114 -108 305v629h135v-629q0 -135 72 -213q73 -76 206 -76q153 0 240 93q92 103 92 288z" />
    <glyph glyph-name="Uacute052" unicode="&#xfa;" horiz-adv-x="1142" 
d="M616 1434h164l-196 -267h-131zM864 487v537h135v-1024h-135v160q-114 -185 -344 -185q-184 0 -293 115q-108 114 -108 305v629h135v-629q0 -135 72 -213q73 -76 206 -76q153 0 240 93q92 103 92 288z" />
    <glyph glyph-name="Ucircumflex053" unicode="&#xfb;" horiz-adv-x="1142" 
d="M698 1167l-143 179l-143 -179h-154l217 267h160l217 -267h-154zM864 487v537h135v-1024h-135v160q-114 -185 -344 -185q-184 0 -293 115q-108 114 -108 305v629h135v-629q0 -135 72 -213q73 -76 206 -76q153 0 240 93q92 103 92 288z" />
    <glyph glyph-name="Udieresis054" unicode="&#xfc;" horiz-adv-x="1142" 
d="M360 1178q-39 0 -65 26q-27 27 -27 66q0 38 27 65t65 27q39 0 66 -27t27 -65q0 -39 -27 -66q-26 -26 -66 -26zM750 1178q-40 0 -66 26q-27 27 -27 66q0 38 27 65t66 27q38 0 65 -27t27 -65q0 -39 -27 -66q-26 -26 -65 -26zM864 487v537h135v-1024h-135v160
q-114 -185 -344 -185q-184 0 -293 115q-108 114 -108 305v629h135v-629q0 -135 72 -213q73 -76 206 -76q153 0 240 93q92 103 92 288z" />
    <glyph glyph-name="Yacute055" unicode="&#xfd;" horiz-adv-x="1044" 
d="M580 1434h163l-196 -267h-131zM549 166l332 858h143l-438 -1118q-62 -158 -170 -240q-110 -85 -244 -76v127q188 -21 281 213l26 64l-459 1030h144z" />
    <glyph glyph-name="Thorn056" unicode="&#xfe;" 
d="M1065 893q156 -156 156 -381t-156 -381q-153 -156 -373 -156q-271 0 -413 226v-611h-136v1844h136v-611q142 226 413 226q220 0 373 -156zM682 106q170 0 287 117q116 119 116 289q0 171 -116 287q-116 119 -287 119t-287 -119q-116 -116 -116 -287q0 -170 116 -289
q117 -117 287 -117z" />
    <glyph glyph-name="Ydieresis" unicode="&#xff;" horiz-adv-x="1044" 
d="M324 1178q-40 0 -66 26q-27 27 -27 66q0 38 27 65t66 27q38 0 65 -27t27 -65q0 -39 -27 -66q-26 -26 -65 -26zM713 1178q-40 0 -66 26t-26 66q0 39 26 65q27 27 66 27q38 0 65 -27t27 -65q0 -39 -27 -66q-26 -26 -65 -26zM549 166l332 858h143l-438 -1118
q-62 -158 -170 -240q-110 -85 -244 -76v127q188 -21 281 213l26 64l-459 1030h144z" />
    <glyph glyph-name="Amacron" unicode="&#x100;" horiz-adv-x="1290" 
d="M379 1716h532v-119h-532v119zM1270 0h-152l-133 352h-680l-133 -352h-152l551 1434h148zM645 1255l-289 -768h578z" />
    <glyph glyph-name="Amacron057" unicode="&#x101;" 
d="M358 1307h533v-119h-533v119zM1024 823v201h135v-1024h-135v201q-142 -226 -414 -226q-218 0 -374 156q-154 157 -154 381t154 381q156 156 374 156q272 0 414 -226zM621 106q169 0 286 117q117 120 117 289q0 170 -117 287q-116 119 -286 119q-171 0 -287 -119
q-117 -117 -117 -287q0 -169 117 -289q117 -117 287 -117z" />
    <glyph glyph-name="Abreve" unicode="&#x102;" horiz-adv-x="1290" 
d="M436 1632q-78 72 -78 195h131q0 -148 156 -148t156 148h131q0 -127 -76 -197q-75 -69 -211 -69q-132 0 -209 71zM1270 0h-152l-133 352h-680l-133 -352h-152l551 1434h148zM645 1255l-289 -768h578z" />
    <glyph glyph-name="Abreve058" unicode="&#x103;" 
d="M416 1223q-78 72 -78 194h131q0 -147 156 -147q155 0 155 147h131q0 -127 -75 -196q-76 -70 -211 -70q-131 0 -209 72zM1024 823v201h135v-1024h-135v201q-142 -226 -414 -226q-218 0 -374 156q-154 157 -154 381t154 381q156 156 374 156q272 0 414 -226zM621 106
q169 0 286 117q117 120 117 289q0 170 -117 287q-116 119 -286 119q-171 0 -287 -119q-117 -117 -117 -287q0 -169 117 -289q117 -117 287 -117z" />
    <glyph glyph-name="Aogonek" unicode="&#x104;" horiz-adv-x="1290" 
d="M1184 -317q42 0 86 18v-113q-61 -22 -121 -22q-77 0 -123 43q-45 42 -45 112q0 135 147 279h-10l-133 352h-680l-133 -352h-152l551 1434h148l551 -1434q-156 -141 -156 -254q0 -63 70 -63zM645 1255l-289 -768h578z" />
    <glyph glyph-name="Aogonek059" unicode="&#x105;" 
d="M1159 1024v-1024q-155 -140 -155 -254q0 -63 69 -63q43 0 86 18v-113q-61 -22 -121 -22q-77 0 -123 43q-45 42 -45 112q0 130 154 304v176q-142 -226 -414 -226q-218 0 -374 156q-154 157 -154 381t154 381q156 156 374 156q272 0 414 -226v201h135zM621 106
q169 0 286 117q117 120 117 289q0 170 -117 287q-116 119 -286 119q-171 0 -287 -119q-117 -117 -117 -287q0 -169 117 -289q117 -117 287 -117z" />
    <glyph glyph-name="Cacute" unicode="&#x106;" horiz-adv-x="1525" 
d="M895 1843l-164 -266h131l197 266h-164zM1200 72q-174 -97 -366 -97q-327 0 -539 215q-213 219 -213 527q0 307 213 526q212 215 539 215q192 0 364 -96q167 -96 256 -256l-127 -74q-67 131 -201 209q-135 78 -292 78q-271 0 -439 -174q-170 -176 -170 -428t170 -428
q168 -174 439 -174q157 0 292 78q134 78 201 208l127 -71q-89 -164 -254 -258z" />
    <glyph glyph-name="Cacute060" unicode="&#x107;" horiz-adv-x="1130" 
d="M659 1434l-163 -267h131l196 267h-164zM893 47q-126 -72 -272 -72q-231 0 -385 154q-154 157 -154 383q0 227 154 381q153 156 385 156q149 0 272 -72q120 -74 176 -197l-111 -63q-40 90 -131 147q-94 54 -206 54q-171 0 -287 -119q-117 -117 -117 -287q0 -169 117 -289
q117 -117 287 -117q234 0 346 201l112 -65q-66 -126 -186 -195z" />
    <glyph glyph-name="Cdotaccent" unicode="&#x10a;" horiz-adv-x="1525" 
d="M834 1577q-47 0 -80 33t-33 80q0 46 33 79t80 33q46 0 79 -33t33 -79q0 -47 -33 -80t-79 -33zM295 190q-213 219 -213 527q0 307 213 526q212 215 539 215q192 0 364 -96q167 -96 256 -256l-127 -74q-67 131 -201 209q-135 78 -292 78q-271 0 -439 -174
q-170 -176 -170 -428t170 -428q168 -174 439 -174q157 0 292 78q134 78 201 208l127 -71q-89 -164 -254 -258q-174 -97 -366 -97q-327 0 -539 215z" />
    <glyph glyph-name="Cdotaccent061" unicode="&#x10b;" horiz-adv-x="1130" 
d="M598 1167q-47 0 -80 33t-33 80t33 80t80 33t80 -33t33 -80t-33 -80t-80 -33zM236 129q-154 157 -154 383q0 227 154 381q153 156 385 156q149 0 272 -72q120 -74 176 -197l-111 -63q-40 90 -131 147q-94 54 -206 54q-171 0 -287 -119q-117 -117 -117 -287
q0 -169 117 -289q117 -117 287 -117q234 0 346 201l112 -65q-66 -126 -186 -195q-126 -72 -272 -72q-231 0 -385 154z" />
    <glyph glyph-name="Ccaron" unicode="&#x10c;" horiz-adv-x="1525" 
d="M913 1577h-159l-217 266h153l144 -178l143 178h153zM1126 193q134 78 201 208l127 -71q-89 -164 -254 -258q-174 -97 -366 -97q-327 0 -539 215q-213 219 -213 527q0 307 213 526q212 215 539 215q192 0 364 -96q167 -96 256 -256l-127 -74q-67 131 -201 209
q-135 78 -292 78q-271 0 -439 -174q-170 -176 -170 -428t170 -428q168 -174 439 -174q157 0 292 78z" />
    <glyph glyph-name="Ccaron062" unicode="&#x10d;" horiz-adv-x="1130" 
d="M678 1167h-160l-217 267h154l143 -179l143 179h154zM967 307l112 -65q-66 -126 -186 -195q-126 -72 -272 -72q-231 0 -385 154q-154 157 -154 383q0 227 154 381q153 156 385 156q149 0 272 -72q120 -74 176 -197l-111 -63q-40 90 -131 147q-94 54 -206 54
q-171 0 -287 -119q-117 -117 -117 -287q0 -169 117 -289q117 -117 287 -117q234 0 346 201z" />
    <glyph glyph-name="Dcaron" unicode="&#x10e;" horiz-adv-x="1474" 
d="M797 1577h-160l-217 266h153l144 -178l143 178h154zM164 1434h553q292 0 483 -209q193 -205 193 -508q0 -305 -193 -510q-192 -207 -483 -207h-553v1434zM307 135h410q236 0 385 168q151 171 151 414q0 242 -151 413q-149 168 -385 168h-410v-1163z" />
    <glyph glyph-name="Dcaron063" unicode="&#x10f;" horiz-adv-x="1437" 
d="M1024 823v611h135v-1434h-135v201q-142 -226 -414 -226q-218 0 -374 156q-154 157 -154 381t154 381q156 156 374 156q272 0 414 -226zM1303 1085l20 349h135l-61 -349h-94zM621 106q169 0 286 117q117 120 117 289q0 170 -117 287q-116 119 -286 119q-171 0 -287 -119
q-117 -117 -117 -287q0 -169 117 -289q117 -117 287 -117z" />
    <glyph glyph-name="Dcroat" unicode="&#x110;" horiz-adv-x="1515" 
d="M205 1434h553q292 0 483 -209q193 -205 193 -508q0 -305 -193 -510q-192 -207 -483 -207h-553v651h-144v131h144v652zM348 135h410q236 0 385 168q151 171 151 414q0 242 -151 413q-149 168 -385 168h-410v-516h451v-131h-451v-516z" />
    <glyph glyph-name="Dcroat064" unicode="&#x111;" horiz-adv-x="1323" 
d="M1159 1290h144v-110h-144v-1180h-135v201q-142 -226 -414 -226q-218 0 -374 156q-154 157 -154 381t154 381q156 156 374 156q272 0 414 -226v357h-377v110h377v144h135v-144zM621 106q169 0 286 117q117 120 117 289q0 170 -117 287q-116 119 -286 119q-171 0 -287 -119
q-117 -117 -117 -287q0 -169 117 -289q117 -117 287 -117z" />
    <glyph glyph-name="Emacron" unicode="&#x112;" horiz-adv-x="1085" 
d="M313 1716h533v-119h-533v119zM307 655v-520h697v-135h-840v1434h829v-136h-686v-507h635v-136h-635z" />
    <glyph glyph-name="Emacron065" unicode="&#x113;" horiz-adv-x="1196" 
d="M338 1307h532v-119h-532v119zM983 887q141 -159 141 -379q0 -3 -0.5 -11t-1.5 -23.5t-2 -29.5h-899q21 -154 131 -245q113 -93 277 -93q235 0 329 175l119 -70q-143 -236 -450 -236q-242 0 -394 152q-151 151 -151 385t149 383q151 154 385 154q230 0 367 -162zM348 823
q-106 -92 -127 -248h764q-21 162 -125 252q-111 91 -244 91q-159 0 -268 -95z" />
    <glyph glyph-name="Edotaccent" unicode="&#x116;" horiz-adv-x="1085" 
d="M580 1577q-47 0 -80 33t-33 80q0 46 33 79t80 33q46 0 79 -33t33 -79q0 -47 -33 -80t-79 -33zM307 655v-520h697v-135h-840v1434h829v-136h-686v-507h635v-136h-635z" />
    <glyph glyph-name="Edotaccent066" unicode="&#x117;" horiz-adv-x="1196" 
d="M604 1167q-47 0 -80 33q-32 32 -32 80t32 80q33 33 80 33t80 -33t33 -80t-33 -80t-80 -33zM983 887q141 -159 141 -379q0 -3 -0.5 -11t-1.5 -23.5t-2 -29.5h-899q21 -154 131 -245q113 -93 277 -93q235 0 329 175l119 -70q-143 -236 -450 -236q-242 0 -394 152
q-151 151 -151 385t149 383q151 154 385 154q230 0 367 -162zM348 823q-106 -92 -127 -248h764q-21 162 -125 252q-111 91 -244 91q-159 0 -268 -95z" />
    <glyph glyph-name="Eogonek" unicode="&#x118;" horiz-adv-x="1085" 
d="M1004 135v-135q-156 -141 -156 -254q0 -63 70 -63q42 0 86 18v-113q-61 -22 -121 -22q-77 0 -123 43q-45 42 -45 112q0 135 147 279h-698v1434h829v-136h-686v-507h635v-136h-635v-520h697z" />
    <glyph glyph-name="Eogonek067" unicode="&#x119;" horiz-adv-x="1196" 
d="M983 887q141 -159 141 -379q0 -3 -0.5 -11t-1.5 -23.5t-2 -29.5h-899q21 -154 131 -245q113 -93 277 -93q235 0 329 175l119 -70q-25 -43 -82 -100q-235 -253 -235 -365q0 -63 69 -63q42 0 86 18v-113q-61 -22 -120 -22q-77 0 -123 43q-45 42 -45 112q0 130 133 269
q-56 -15 -133 -15q-242 0 -394 152q-151 151 -151 385t149 383q151 154 385 154q230 0 367 -162zM348 823q-106 -92 -127 -248h764q-21 162 -125 252q-111 91 -244 91q-159 0 -268 -95z" />
    <glyph glyph-name="Ecaron" unicode="&#x11a;" horiz-adv-x="1085" 
d="M659 1577h-159l-217 266h153l144 -178l143 178h154zM307 655v-520h697v-135h-840v1434h829v-136h-686v-507h635v-136h-635z" />
    <glyph glyph-name="Ecaron068" unicode="&#x11b;" horiz-adv-x="1196" 
d="M684 1167h-160l-217 267h154l143 -179l144 179h153zM983 887q141 -159 141 -379q0 -3 -0.5 -11t-1.5 -23.5t-2 -29.5h-899q21 -154 131 -245q113 -93 277 -93q235 0 329 175l119 -70q-143 -236 -450 -236q-242 0 -394 152q-151 151 -151 385t149 383q151 154 385 154
q230 0 367 -162zM348 823q-106 -92 -127 -248h764q-21 162 -125 252q-111 91 -244 91q-159 0 -268 -95z" />
    <glyph glyph-name="Gbreve" unicode="&#x11e;" horiz-adv-x="1615" 
d="M594 1632q-78 72 -78 195h131q0 -148 156 -148q155 0 155 148h132q0 -127 -76 -197q-75 -69 -211 -69q-132 0 -209 71zM817 682h717v-74q0 -265 -191 -450q-195 -183 -509 -183q-327 0 -539 215q-213 219 -213 527q0 307 213 526q212 215 539 215q192 0 364 -96
q166 -94 256 -256l-127 -74q-67 131 -201 209q-135 78 -292 78q-271 0 -439 -174q-170 -176 -170 -428t170 -428q168 -174 439 -174q242 0 387 121q144 123 165 311h-569v135z" />
    <glyph glyph-name="Gbreve069" unicode="&#x11f;" 
d="M422 1223q-78 72 -78 194h131q0 -147 156 -147q155 0 155 147h132q0 -126 -76 -196t-211 -70q-131 0 -209 72zM1024 823v201h135v-983q0 -221 -151 -348t-363 -127q-358 0 -485 250l119 67q91 -186 366 -186q176 0 279 92q100 90 100 252v160q-142 -226 -414 -226
q-218 0 -374 156q-154 157 -154 381t154 381q156 156 374 156q272 0 414 -226zM621 106q169 0 286 117q117 120 117 289q0 170 -117 287q-116 119 -286 119q-171 0 -287 -119q-117 -117 -117 -287q0 -169 117 -289q117 -117 287 -117z" />
    <glyph glyph-name="Gdotaccent" unicode="&#x120;" horiz-adv-x="1615" 
d="M803 1577q-47 0 -80 33t-33 80q0 46 33 79t80 33t80 -33q32 -32 32 -79q0 -48 -32 -80q-33 -33 -80 -33zM817 682h717v-74q0 -265 -191 -450q-195 -183 -509 -183q-327 0 -539 215q-213 219 -213 527q0 307 213 526q212 215 539 215q192 0 364 -96q166 -94 256 -256
l-127 -74q-67 131 -201 209q-135 78 -292 78q-271 0 -439 -174q-170 -176 -170 -428t170 -428q168 -174 439 -174q242 0 387 121q144 123 165 311h-569v135z" />
    <glyph glyph-name="Gdotaccent070" unicode="&#x121;" 
d="M631 1167q-47 0 -80 33t-33 80t33 80t80 33t80 -33q32 -32 32 -80t-32 -80q-33 -33 -80 -33zM1024 823v201h135v-983q0 -221 -151 -348t-363 -127q-358 0 -485 250l119 67q91 -186 366 -186q176 0 279 92q100 90 100 252v160q-142 -226 -414 -226q-218 0 -374 156
q-154 157 -154 381t154 381q156 156 374 156q272 0 414 -226zM621 106q169 0 286 117q117 120 117 289q0 170 -117 287q-116 119 -286 119q-171 0 -287 -119q-117 -117 -117 -287q0 -169 117 -289q117 -117 287 -117z" />
    <glyph glyph-name="Gcommaaccent" unicode="&#x122;" horiz-adv-x="1615" 
d="M817 682h717v-74q0 -265 -191 -450q-195 -183 -509 -183q-327 0 -539 215q-213 219 -213 527q0 307 213 526q212 215 539 215q192 0 364 -96q166 -94 256 -256l-127 -74q-67 131 -201 209q-135 78 -292 78q-271 0 -439 -174q-170 -176 -170 -428t170 -428
q168 -174 439 -174q242 0 387 121q144 123 165 311h-569v135zM883 -492h-95l21 349h135z" />
    <glyph glyph-name="Gcommaaccent071" unicode="&#x123;" 
d="M612 1556h95l-21 -348h-135zM1024 823v201h135v-983q0 -221 -151 -348t-363 -127q-358 0 -485 250l119 67q91 -186 366 -186q176 0 279 92q100 90 100 252v160q-142 -226 -414 -226q-218 0 -374 156q-154 157 -154 381t154 381q156 156 374 156q272 0 414 -226zM621 106
q169 0 286 117q117 120 117 289q0 170 -117 287q-116 119 -286 119q-171 0 -287 -119q-117 -117 -117 -287q0 -169 117 -289q117 -117 287 -117z" />
    <glyph glyph-name="Hbar" unicode="&#x126;" horiz-adv-x="1495" 
d="M1280 1163h133v-114h-133v-1049h-143v670h-779v-670h-143v1049h-133v114h133v271h143v-271h779v271h143v-271zM358 805h779v244h-779v-244z" />
    <glyph glyph-name="Hbar072" unicode="&#x127;" horiz-adv-x="1163" 
d="M936 934q108 -114 108 -305v-629h-135v629q0 136 -71 213q-73 76 -207 76q-153 0 -240 -93q-92 -103 -92 -288v-537h-135v1180h-144v110h144v144h135v-144h295v-110h-295v-316q114 185 344 185q184 0 293 -115z" />
    <glyph glyph-name="Itilde" unicode="&#x128;" horiz-adv-x="471" 
d="M164 0v1434h143v-1434h-143zM68 1597h-119q0 177 92 224q83 41 197 -45q92 -71 122 -68q43 3 43 115h119q0 -177 -90 -224q-81 -40 -196 46q-88 64 -123 67q-45 3 -45 -115z" />
    <glyph glyph-name="Itilde159" unicode="&#x129;" horiz-adv-x="421" 
d="M279 0h-136v1024h136v-1024zM43 1188h-119q0 176 92 223q83 41 197 -45q92 -71 123 -68q43 3 43 115h119q0 -176 -90 -223q-83 -41 -197 45q-89 65 -123 68q-45 3 -45 -115z" />
    <glyph glyph-name="Imacron" unicode="&#x12a;" horiz-adv-x="471" 
d="M502 1597h-533v119h533v-119zM164 0v1434h143v-1434h-143z" />
    <glyph glyph-name="Imacron073" unicode="&#x12b;" horiz-adv-x="421" 
d="M416 1188h-410v119h410v-119zM279 0h-136v1024h136v-1024z" />
    <glyph glyph-name="Iogonek" unicode="&#x12e;" horiz-adv-x="471" 
d="M371 -299v-113q-61 -22 -121 -22q-77 0 -123 43q-45 42 -45 112q0 126 82 281v1432h143v-1434l-49 -90q-20 -47 -29 -76q-14 -49 -14 -88q0 -63 70 -63q43 0 86 18z" />
    <glyph glyph-name="Iogonek074" unicode="&#x12f;" horiz-adv-x="421" 
d="M211 1241q-41 0 -70 29q-28 28 -28 69q0 42 28 70q29 29 70 29t70 -29q28 -28 28 -70q0 -41 -28 -69q-29 -29 -70 -29zM350 -299v-113q-61 -22 -121 -22q-78 0 -123 51t-45 125q0 119 82 268v1014h136v-1024q-84 -141 -84 -233q0 -84 69 -84q42 0 86 18z" />
    <glyph glyph-name="Idotaccent" unicode="&#x130;" horiz-adv-x="471" 
d="M236 1577q-47 0 -80 33t-33 80q0 46 33 79t80 33q46 0 79 -33t33 -79q0 -47 -33 -80t-79 -33zM164 0v1434h143v-1434h-143z" />
    <glyph glyph-name="dotlessi" unicode="&#x131;" horiz-adv-x="421" 
d="M279 0h-136v1024h136v-1024z" />
    <glyph glyph-name="Kcommaaccent" unicode="&#x136;" horiz-adv-x="1187" 
d="M1147 1434l-688 -697l708 -737h-188l-672 694v-694h-143v1434h143v-656l651 656h189zM637 -492h-94l20 349h135z" />
    <glyph glyph-name="Kcommaaccent075" unicode="&#x137;" horiz-adv-x="1011" 
d="M950 1024l-528 -492l549 -532h-180l-512 494v-494h-136v1434h136v-863l487 453h184zM551 -492h-94l20 349h135z" />
    <glyph glyph-name="Lacute" unicode="&#x139;" horiz-adv-x="1003" 
d="M332 1843h164l-197 -266h-131zM307 1434v-1299h656v-135h-799v1434h143z" />
    <glyph glyph-name="Lacute076" unicode="&#x13a;" horiz-adv-x="421" 
d="M307 1843l-164 -266h131l197 266h-164zM279 0h-136v1495h136v-1495z" />
    <glyph glyph-name="Lcommaaccent" unicode="&#x13b;" horiz-adv-x="1003" 
d="M307 1434v-1299h656v-135h-799v1434h143zM592 -492h-94l20 349h135z" />
    <glyph glyph-name="Lcommaaccent077" unicode="&#x13c;" horiz-adv-x="421" 
d="M279 0h-136v1495h136v-1495zM219 -492h-94l20 349h136z" />
    <glyph glyph-name="Lcaron" unicode="&#x13d;" horiz-adv-x="1003" 
d="M307 1434v-1299h656v-135h-799v1434h143zM545 1434h135l-62 -349h-94z" />
    <glyph glyph-name="Lcaron078" unicode="&#x13e;" horiz-adv-x="557" 
d="M279 0h-136v1495h136v-1495zM516 1147h-94l20 348h136z" />
    <glyph glyph-name="Lslash" unicode="&#x141;" horiz-adv-x="1044" 
d="M348 586v-451h656v-135h-799v500l-123 -72v129l123 72v805h143v-719l348 205v-129z" />
    <glyph glyph-name="Lslash079" unicode="&#x142;" horiz-adv-x="491" 
d="M313 848l138 94v-129l-138 -94v-719h-135v627l-137 -95v130l137 94v739h135v-647z" />
    <glyph glyph-name="Nacute" unicode="&#x143;" horiz-adv-x="1392" 
d="M758 1843l-164 -266h131l197 266h-164zM1085 266v1168h144v-1434h-123l-799 1167v-1167h-143v1434h123z" />
    <glyph glyph-name="Nacute080" unicode="&#x144;" horiz-adv-x="1142" 
d="M655 1434h164l-196 -267h-131zM915 934q109 -115 109 -305v-629h-135v629q0 135 -72 213q-73 76 -207 76q-152 0 -239 -93q-92 -103 -92 -288v-537h-136v1024h136v-160q114 185 344 185q183 0 292 -115z" />
    <glyph glyph-name="Ncommaaccent" unicode="&#x145;" horiz-adv-x="1392" 
d="M1085 266v1168h144v-1434h-123l-799 1167v-1167h-143v1434h123zM705 -492h-95l21 349h135z" />
    <glyph glyph-name="Ncommaaccent081" unicode="&#x146;" horiz-adv-x="1142" 
d="M915 934q109 -115 109 -305v-629h-135v629q0 135 -72 213q-73 76 -207 76q-152 0 -239 -93q-92 -103 -92 -288v-537h-136v1024h136v-160q114 185 344 185q183 0 292 -115zM608 -492h-94l21 349h135z" />
    <glyph glyph-name="Ncaron" unicode="&#x147;" horiz-adv-x="1392" 
d="M776 1577h-160l-217 266h154l143 -178l144 178h153zM1085 266v1168h144v-1434h-123l-799 1167v-1167h-143v1434h123z" />
    <glyph glyph-name="Ncaron082" unicode="&#x148;" horiz-adv-x="1142" 
d="M674 1167h-160l-217 267h154l143 -179l143 179h154zM915 934q109 -115 109 -305v-629h-135v629q0 135 -72 213q-73 76 -207 76q-152 0 -239 -93q-92 -103 -92 -288v-537h-136v1024h136v-160q114 185 344 185q183 0 292 -115z" />
    <glyph glyph-name="Eng" unicode="&#x14a;" horiz-adv-x="1392" 
d="M1085 266v1168h144v-1434q0 -410 -430 -410v140q151 0 215 55q71 62 71 215v31l-778 1136v-1167h-143v1434h123z" />
    <glyph glyph-name="Eng083" unicode="&#x14b;" horiz-adv-x="1142" 
d="M915 934q109 -115 109 -305v-711q0 -183 -96 -276q-94 -91 -273 -76v131q125 -12 179 39q55 52 55 182v711q0 135 -72 213q-73 76 -207 76q-152 0 -239 -93q-92 -103 -92 -288v-537h-136v1024h136v-160q114 185 344 185q183 0 292 -115z" />
    <glyph glyph-name="Omacron" unicode="&#x14c;" horiz-adv-x="1646" 
d="M1090 1597h-533v119h533v-119zM823 -25q-311 0 -526 215q-215 218 -215 527t215 524q214 217 526 217q313 0 527 -217q215 -215 215 -524t-215 -527q-215 -215 -527 -215zM823 115q255 0 426 174q172 175 172 428q0 251 -172 426q-173 176 -426 176t-426 -176
q-172 -175 -172 -426q0 -253 172 -428q171 -174 426 -174z" />
    <glyph glyph-name="Omacron084" unicode="&#x14d;" horiz-adv-x="1241" 
d="M887 1188h-533v119h533v-119zM621 -25q-226 0 -383 154q-156 156 -156 383q0 228 156 381q156 156 383 156q224 0 380 -156q158 -155 158 -381q0 -225 -158 -383q-157 -154 -380 -154zM621 106q169 0 286 117q117 120 117 289q0 170 -117 287q-116 119 -286 119
q-171 0 -287 -119q-117 -117 -117 -287q0 -169 117 -289q117 -117 287 -117z" />
    <glyph glyph-name="Ohungarumlaut" unicode="&#x150;" horiz-adv-x="1646" 
d="M700 1843l-143 -266h139l156 266h-152zM1014 1843l-164 -266h139l176 266h-151zM1565 717q0 -309 -215 -527q-215 -215 -527 -215q-311 0 -526 215q-215 218 -215 527t215 524q214 217 526 217q313 0 527 -217q215 -215 215 -524zM225 717q0 -253 172 -428
q171 -174 426 -174t426 174q172 175 172 428q0 251 -172 426q-173 176 -426 176t-426 -176q-172 -175 -172 -426z" />
    <glyph glyph-name="Ohungarumlaut085" unicode="&#x151;" horiz-adv-x="1241" 
d="M498 1434l-144 -267h140l155 267h-151zM811 1434l-164 -267h139l177 267h-152zM1159 512q0 -225 -158 -383q-157 -154 -380 -154q-226 0 -383 154q-156 156 -156 383q0 228 156 381q156 156 383 156q224 0 380 -156q158 -155 158 -381zM217 512q0 -169 117 -289
q117 -117 287 -117q169 0 286 117q117 120 117 289q0 170 -117 287q-116 119 -286 119q-171 0 -287 -119q-117 -117 -117 -287z" />
    <glyph glyph-name="OE" unicode="&#x152;" horiz-adv-x="1873" 
d="M1137 655v-520h655v-135h-799q-92 -25 -190 -25q-310 0 -516 215q-205 211 -205 527q0 315 205 526q206 215 516 215q101 0 190 -24h789v-136h-645v-507h614v-136h-614zM993 145v1143q-91 31 -190 31q-254 0 -416 -174t-162 -428t162 -428t416 -174q101 0 190 30z" />
    <glyph glyph-name="OE086" unicode="&#x153;" horiz-adv-x="2138" 
d="M1925 887q141 -159 141 -379q0 -3 -0.5 -11t-1.5 -23.5t-2 -29.5h-899q21 -154 131 -245q113 -93 277 -93q236 0 330 175l118 -70q-143 -236 -446 -236q-170 0 -297 80q-124 78 -186 221q-62 -140 -185 -219q-125 -82 -284 -82q-231 0 -385 154t-154 383t154 383t385 154
q159 0 284 -82q121 -78 187 -222q60 144 180 222q125 82 291 82q225 0 362 -162zM907 223q117 120 117 289q0 170 -117 287q-116 119 -286 119q-177 0 -291 -117q-113 -113 -113 -289t113 -289q114 -117 291 -117q169 0 286 117zM1290 823q-106 -92 -127 -248h764
q-21 162 -125 252q-111 91 -243 91q-160 0 -269 -95z" />
    <glyph glyph-name="Racute" unicode="&#x154;" horiz-adv-x="1249" 
d="M696 1843h164l-196 -266h-132zM1208 0h-164l-335 573h-402v-573h-143v1434h573q176 0 303 -127t127 -303q0 -148 -88 -261q-82 -110 -221 -151zM737 1298h-430v-589h430q120 0 203 86q84 90 84 209q0 118 -84 208q-83 86 -203 86z" />
    <glyph glyph-name="Racute087" unicode="&#x155;" horiz-adv-x="643" 
d="M434 1434h164l-197 -267h-131zM279 1024v-170q94 186 323 186v-131q-149 0 -231 -82q-92 -89 -92 -258v-569h-136v1024h136z" />
    <glyph glyph-name="Rcommaaccent" unicode="&#x156;" horiz-adv-x="1249" 
d="M858 592l350 -592h-164l-335 573h-402v-573h-143v1434h573q176 0 303 -127t127 -303q0 -148 -88 -261q-82 -110 -221 -151zM737 1298h-430v-589h430q120 0 203 86q84 90 84 209q0 118 -84 208q-83 86 -203 86zM684 -492h-94l20 349h135z" />
    <glyph glyph-name="Rcommaaccent088" unicode="&#x157;" horiz-adv-x="643" 
d="M279 1024v-170q94 186 323 186v-131q-149 0 -231 -82q-92 -89 -92 -258v-569h-136v1024h136zM219 -492h-94l20 349h136z" />
    <glyph glyph-name="Rcaron" unicode="&#x158;" horiz-adv-x="1249" 
d="M715 1577h-160l-217 266h154l143 -178l143 178h154zM1208 0h-164l-335 573h-402v-573h-143v1434h573q176 0 303 -127t127 -303q0 -148 -88 -261q-82 -110 -221 -151zM737 1298h-430v-589h430q120 0 203 86q84 90 84 209q0 118 -84 208q-83 86 -203 86z" />
    <glyph glyph-name="Rcaron089" unicode="&#x159;" horiz-adv-x="643" 
d="M453 1167h-160l-217 267h153l144 -179l143 179h154zM279 1024v-170q94 186 323 186v-131q-149 0 -231 -82q-92 -89 -92 -258v-569h-136v1024h136z" />
    <glyph glyph-name="Sacute" unicode="&#x15a;" horiz-adv-x="1179" 
d="M639 1843l-164 -266h131l197 266h-164zM965 84q-133 -109 -351 -109q-195 0 -335 93q-142 95 -197 258l123 71q83 -282 411 -282q158 0 250 71q88 67 88 187q0 112 -82 170q-77 57 -270 119q-233 78 -295 118q-164 99 -164 285q0 181 127 287q124 106 314 106
q160 0 290 -86q121 -83 183 -223l-121 -68q-99 238 -352 238q-134 0 -215 -66q-82 -67 -82 -182q0 -108 73 -160q78 -54 244 -108l111 -39q26 -7 98 -37q67 -26 96 -45q17 -8 35 -23q5 -3 19.5 -12.5t21.5 -15.5q48 -42 62 -70q51 -80 51 -184q0 -181 -133 -293z" />
    <glyph glyph-name="Sacute090" unicode="&#x15b;" horiz-adv-x="929" 
d="M530 1434h164l-196 -267h-131zM461 582l65 -17l68 -18q66 -21 125 -53q129 -76 129 -224q0 -130 -105 -213q-101 -82 -266 -82q-139 0 -250 66q-103 65 -145 170l115 68q65 -173 280 -173q236 0 236 164q0 119 -211 174l-66 17l-67 18q-66 21 -125 53q-129 76 -129 224
q0 127 98 209q104 84 252 84q124 0 219 -56q93 -54 139 -153l-112 -66q-59 144 -246 144q-93 0 -152 -41q-63 -45 -63 -121q0 -119 211 -174z" />
    <glyph glyph-name="Scedilla" unicode="&#x15e;" horiz-adv-x="1179" 
d="M975 94q-122 -110 -326 -119v-67q191 -38 191 -166q0 -208 -420 -184v110q301 -24 301 74q0 78 -191 84v154q-346 40 -448 346l123 71q83 -282 411 -282q158 0 250 71q88 67 88 187q0 112 -82 170q-77 57 -270 119q-233 78 -295 118q-164 99 -164 285q0 181 127 287
q124 106 314 106q160 0 290 -86q121 -83 183 -223l-121 -68q-99 238 -352 238q-134 0 -215 -66q-82 -67 -82 -182q0 -108 73 -160q78 -54 244 -108l111 -39q26 -7 98 -37q67 -26 96 -45q17 -8 35 -23q5 -3 19.5 -12.5t21.5 -15.5q48 -42 62 -70q51 -80 51 -184
q0 -175 -123 -283z" />
    <glyph glyph-name="Scedilla091" unicode="&#x15f;" horiz-adv-x="929" 
d="M760 72q-89 -80 -232 -95v-69q191 -38 191 -166q0 -208 -420 -184v110q301 -24 301 74q0 78 -190 84v154q-248 27 -328 231l115 68q65 -173 280 -173q236 0 236 164q0 119 -211 174l-66 17l-67 18q-66 21 -125 53q-129 76 -129 224q0 127 98 209q104 84 252 84
q124 0 219 -56q93 -54 139 -153l-112 -66q-59 144 -246 144q-93 0 -152 -41q-63 -45 -63 -121q0 -119 211 -174l65 -17l68 -18q66 -21 125 -53q129 -76 129 -224q0 -119 -88 -198z" />
    <glyph glyph-name="Scaron" unicode="&#x160;" horiz-adv-x="1179" 
d="M657 1577h-159l-217 266h153l144 -178l143 178h153zM604 803l111 -39q26 -7 98 -37q67 -26 96 -45q17 -8 35 -23q5 -3 19.5 -12.5t21.5 -15.5q48 -42 62 -70q51 -80 51 -184q0 -181 -133 -293q-133 -109 -351 -109q-195 0 -335 93q-142 95 -197 258l123 71
q83 -282 411 -282q158 0 250 71q88 67 88 187q0 112 -82 170q-77 57 -270 119q-233 78 -295 118q-164 99 -164 285q0 181 127 287q124 106 314 106q160 0 290 -86q121 -83 183 -223l-121 -68q-99 238 -352 238q-134 0 -215 -66q-82 -67 -82 -182q0 -108 73 -160
q78 -54 244 -108z" />
    <glyph glyph-name="Scaron092" unicode="&#x161;" horiz-adv-x="929" 
d="M549 1167h-160l-217 267h154l143 -179l143 179h154zM461 582l65 -17l68 -18q66 -21 125 -53q129 -76 129 -224q0 -130 -105 -213q-101 -82 -266 -82q-139 0 -250 66q-103 65 -145 170l115 68q65 -173 280 -173q236 0 236 164q0 119 -211 174l-66 17l-67 18
q-66 21 -125 53q-129 76 -129 224q0 127 98 209q104 84 252 84q124 0 219 -56q93 -54 139 -153l-112 -66q-59 144 -246 144q-93 0 -152 -41q-63 -45 -63 -121q0 -119 211 -174z" />
    <glyph glyph-name="Tcedilla" unicode="&#x162;" horiz-adv-x="1105" 
d="M41 1434h1024v-136h-440v-1298h-144v1298h-440v136zM561 -492h-94l20 349h136z" />
    <glyph glyph-name="Tcedilla093" unicode="&#x163;" horiz-adv-x="768" 
d="M686 1024v-131h-295v-621q0 -118 74 -145q48 -17 221 -8v-119q-217 -34 -321 31q-109 65 -109 241v621h-215v131h215v246l135 41v-287h295zM492 -492h-95l21 349h135z" />
    <glyph glyph-name="Tcaron" unicode="&#x164;" horiz-adv-x="1105" 
d="M633 1577h-160l-217 266h154l143 -178l143 178h154zM41 1434h1024v-136h-440v-1298h-144v1298h-440v136z" />
    <glyph glyph-name="Tcaron094" unicode="&#x165;" horiz-adv-x="768" 
d="M524 1464h135l-61 -327h-94zM686 1024v-131h-295v-621q0 -118 74 -145q48 -17 221 -8v-119q-217 -34 -321 31q-109 65 -109 241v621h-215v131h215v246l135 41v-287h295z" />
    <glyph glyph-name="Tbar" unicode="&#x166;" horiz-adv-x="1105" 
d="M1065 1434v-136h-440v-516h297v-131h-297v-651h-144v651h-297v131h297v516h-440v136h1024z" />
    <glyph glyph-name="Tbar095" unicode="&#x167;" horiz-adv-x="768" 
d="M686 1024v-131h-295v-305h199v-111h-199v-205q0 -118 74 -145q48 -17 221 -8v-119q-217 -34 -321 31q-109 65 -109 241v205h-137v111h137v305h-215v131h215v246l135 41v-287h295z" />
    <glyph glyph-name="Utilde" unicode="&#x168;" horiz-adv-x="1351" 
d="M143 487v947h144v-947q0 -173 102 -272q103 -100 287 -100t287 100q102 99 102 272v947h143v-947q0 -234 -147 -372q-152 -140 -385 -140t-385 140q-148 139 -148 372zM508 1597h-119q0 177 92 224q83 41 197 -45q92 -71 123 -68q43 3 43 115h119q0 -176 -91 -224
q-81 -40 -196 46q-88 64 -123 67q-45 3 -45 -115z" />
    <glyph glyph-name="Utilde149" unicode="&#x169;" horiz-adv-x="1142" 
d="M864 487v537h135v-1024h-135v160q-114 -185 -344 -185q-184 0 -293 115q-108 114 -108 305v629h135v-629q0 -135 72 -213q73 -76 206 -76q153 0 240 93q92 103 92 288zM391 1188h-119q0 176 93 223q82 40 196 -45q92 -71 123 -68q43 3 43 115h119q0 -176 -90 -223
q-83 -41 -197 45q-89 65 -123 68q-45 3 -45 -115z" />
    <glyph glyph-name="Umacron" unicode="&#x16a;" horiz-adv-x="1351" 
d="M942 1597h-532v119h532v-119zM143 487v947h144v-947q0 -173 102 -272q103 -100 287 -100t287 100q102 99 102 272v947h143v-947q0 -234 -147 -372q-152 -140 -385 -140t-385 140q-148 139 -148 372z" />
    <glyph glyph-name="Umacron096" unicode="&#x16b;" horiz-adv-x="1142" 
d="M289 1307h532v-119h-532v119zM864 487v537h135v-1024h-135v160q-114 -185 -344 -185q-184 0 -293 115q-108 114 -108 305v629h135v-629q0 -135 72 -213q73 -76 206 -76q153 0 240 93q92 103 92 288z" />
    <glyph glyph-name="Uring" unicode="&#x16e;" horiz-adv-x="1351" 
d="M676 1475q-101 0 -158 57q-59 59 -59 147q0 87 59 146q65 59 158 59q96 0 155 -59q62 -59 62 -146q0 -88 -62 -147q-57 -57 -155 -57zM756 1608q26 26 26 71q0 46 -26 72q-28 32 -80 29q-53 3 -78 -29q-25 -28 -25 -72q0 -43 25 -71q25 -32 78 -29q52 -3 80 29zM143 487
v947h144v-947q0 -173 102 -272q103 -100 287 -100t287 100q102 99 102 272v947h143v-947q0 -234 -147 -372q-152 -140 -385 -140t-385 140q-148 139 -148 372z" />
    <glyph glyph-name="Uring097" unicode="&#x16f;" horiz-adv-x="1142" 
d="M555 1126q-100 0 -158 58q-59 59 -59 147q0 87 59 146q65 59 158 59q97 0 156 -59q61 -58 61 -146q0 -89 -61 -147q-58 -58 -156 -58zM477 1403q-24 -27 -24 -72q0 -44 24 -71q25 -32 78 -29q52 -3 80 29q27 27 27 71q0 45 -27 72q-28 32 -80 29q-53 3 -78 -29zM864 487
v537h135v-1024h-135v160q-114 -185 -344 -185q-184 0 -293 115q-108 114 -108 305v629h135v-629q0 -135 72 -213q73 -76 206 -76q153 0 240 93q92 103 92 288z" />
    <glyph glyph-name="Uhungarumlaut" unicode="&#x170;" horiz-adv-x="1351" 
d="M553 1843l-143 -266h139l156 266h-152zM866 1843l-164 -266h140l176 266h-152zM143 487v947h144v-947q0 -173 102 -272q103 -100 287 -100t287 100q102 99 102 272v947h143v-947q0 -234 -147 -372q-152 -140 -385 -140t-385 140q-148 139 -148 372z" />
    <glyph glyph-name="Uhungarumlaut098" unicode="&#x171;" horiz-adv-x="1142" 
d="M432 1434h152l-156 -267h-139zM897 1434l-176 -267h-139l163 267h152zM864 487v537h135v-1024h-135v160q-114 -185 -344 -185q-184 0 -293 115q-108 114 -108 305v629h135v-629q0 -135 72 -213q73 -76 206 -76q153 0 240 93q92 103 92 288z" />
    <glyph glyph-name="Uogonek" unicode="&#x172;" horiz-adv-x="1351" 
d="M1065 487v947h143v-947q0 -267 -188 -405q-132 -121 -189 -197q-53 -74 -53 -139q0 -63 70 -63q42 0 86 18v-113q-61 -22 -121 -22q-77 0 -123 43q-45 42 -45 112q0 130 131 261q-58 -7 -100 -7q-233 0 -385 140q-148 139 -148 372v947h144v-947q0 -173 102 -272
q103 -100 287 -100t287 100q102 99 102 272z" />
    <glyph glyph-name="Uogonek099" unicode="&#x173;" horiz-adv-x="1142" 
d="M999 1024v-1024q-155 -140 -155 -254q0 -63 69 -63q43 0 86 18v-113q-61 -22 -120 -22q-77 0 -123 43q-45 42 -45 112q0 123 153 302v137q-114 -185 -344 -185q-184 0 -293 115q-108 114 -108 305v629h135v-629q0 -135 72 -213q73 -76 206 -76q153 0 240 93
q92 103 92 288v537h135z" />
    <glyph glyph-name="Wcircumflex" unicode="&#x174;" horiz-adv-x="2048" 
d="M1167 1577l-143 178l-143 -178h-154l217 266h160l217 -266h-154zM1481 195l354 1239h152l-416 -1434h-172l-375 1245l-375 -1245h-172l-416 1434h152l354 -1239l373 1239h168z" />
    <glyph glyph-name="Wcircumflex100" unicode="&#x175;" horiz-adv-x="1576" 
d="M932 1167l-144 179l-143 -179h-153l217 267h159l217 -267h-153zM1124 174l252 850h140l-316 -1024h-147l-265 825l-264 -825h-147l-316 1024h140l252 -850l268 850h135z" />
    <glyph glyph-name="Ycircumflex" unicode="&#x176;" horiz-adv-x="1218" 
d="M745 1577l-143 178l-143 -178h-154l217 266h160l217 -266h-154zM1036 1434h162l-518 -846v-588h-143v592l-517 842h162l428 -703z" />
    <glyph glyph-name="Ycircumflex101" unicode="&#x177;" horiz-adv-x="1044" 
d="M662 1167l-144 179l-143 -179h-154l217 267h160l217 -267h-153zM549 166l332 858h143l-438 -1118q-62 -158 -170 -240q-110 -85 -244 -76v127q188 -21 281 213l26 64l-459 1030h144z" />
    <glyph glyph-name="Ydieresis102" unicode="&#x178;" horiz-adv-x="1218" 
d="M408 1587q-39 0 -66 27t-27 65q0 39 27 66t66 27q38 0 65 -27t27 -66q0 -38 -27 -65t-65 -27zM797 1587q-39 0 -66 27q-26 26 -26 65q0 40 26 66q27 27 66 27q38 0 65 -27t27 -66q0 -38 -27 -65t-65 -27zM1036 1434h162l-518 -846v-588h-143v592l-517 842h162l428 -703z
" />
    <glyph glyph-name="Zacute" unicode="&#x179;" horiz-adv-x="1064" 
d="M604 1843h164l-197 -266h-131zM983 1298l-741 -1163h762v-135h-922v135l741 1163h-721v136h881v-136z" />
    <glyph glyph-name="Zacute103" unicode="&#x17a;" horiz-adv-x="962" 
d="M557 1434h164l-197 -267h-131zM860 934l-569 -803h590v-131h-779v90l570 803h-549v131h737v-90z" />
    <glyph glyph-name="Zdotaccent" unicode="&#x17b;" horiz-adv-x="1064" 
d="M543 1577q-47 0 -80 33t-33 80q0 46 33 79t80 33t80 -33q32 -32 32 -79q0 -48 -32 -80q-33 -33 -80 -33zM983 1298l-741 -1163h762v-135h-922v135l741 1163h-721v136h881v-136z" />
    <glyph glyph-name="Zdotaccent104" unicode="&#x17c;" horiz-adv-x="962" 
d="M496 1167q-47 0 -80 33t-33 80t33 80t80 33q46 0 79 -33t33 -80t-33 -80t-79 -33zM860 934l-569 -803h590v-131h-779v90l570 803h-549v131h737v-90z" />
    <glyph glyph-name="Zcaron" unicode="&#x17d;" horiz-adv-x="1064" 
d="M623 1577h-160l-217 266h153l144 -178l143 178h154zM983 1298l-741 -1163h762v-135h-922v135l741 1163h-721v136h881v-136z" />
    <glyph glyph-name="Zcaron105" unicode="&#x17e;" horiz-adv-x="962" 
d="M575 1167h-159l-217 267h153l144 -179l143 179h154zM860 934l-569 -803h590v-131h-779v90l570 803h-549v131h737v-90z" />
    <glyph glyph-name="florin" unicode="&#x192;" horiz-adv-x="899" 
d="M899 1440v-131q-110 41 -182 2q-73 -39 -88 -142l-66 -385h236v-131h-258l-135 -794q-30 -177 -142 -248q-110 -72 -264 -23v131q110 -41 182 -2q73 39 88 142l136 794h-224v131h246l66 385q30 180 141 250q108 71 264 21z" />
    <glyph glyph-name="Ohorn" unicode="&#x1a0;" horiz-adv-x="1646" 
d="M823 115q255 0 426 174q172 175 172 428q0 251 -172 426q-173 176 -426 176t-426 -176q-172 -175 -172 -426q0 -253 172 -428q171 -174 426 -174zM1202 1358q79 -48 148 -117q215 -215 215 -524t-215 -527q-215 -215 -527 -215q-311 0 -526 215q-215 218 -215 527
t215 524q214 217 526 217q107 0 213 -28q69 3 117 45q47 47 47 118h127q0 -122 -88 -204q-6 -5 -18.5 -15.5t-18.5 -15.5z" />
    <glyph glyph-name="Ohorn135" unicode="&#x1a1;" horiz-adv-x="1241" 
d="M621 106q169 0 286 117q117 120 117 289q0 170 -117 287q-116 119 -286 119q-171 0 -287 -119q-117 -117 -117 -287q0 -169 117 -289q117 -117 287 -117zM944 944q27 -21 57 -51q158 -155 158 -381q0 -225 -158 -383q-157 -154 -380 -154q-226 0 -383 154
q-156 156 -156 383q0 228 156 381q156 156 383 156q87 0 167 -25q74 3 119 45q47 47 47 119h127q0 -123 -88 -205q-27 -27 -49 -39z" />
    <glyph glyph-name="Uhorn" unicode="&#x1af;" horiz-adv-x="1351" 
d="M1208 1321v-834q0 -234 -147 -372q-152 -140 -385 -140t-385 140q-148 139 -148 372v947h144v-947q0 -173 102 -272q103 -100 287 -100t287 100q102 99 102 272v947h86q47 8 84 41q47 47 47 118h127q0 -122 -88 -204q-51 -48 -113 -68z" />
    <glyph glyph-name="Uhorn148" unicode="&#x1b0;" horiz-adv-x="1142" 
d="M999 911v-911h-135v160q-114 -185 -344 -185q-184 0 -293 115q-108 114 -108 305v629h135v-629q0 -135 72 -213q73 -76 206 -76q153 0 240 93q92 103 92 288v537h47q81 0 129 45q47 47 47 119h127q0 -123 -88 -205q-54 -54 -127 -72z" />
    <glyph glyph-name="Scommaaccent" unicode="&#x218;" horiz-adv-x="1179" 
d="M279 68q-142 95 -197 258l123 71q83 -282 411 -282q158 0 250 71q88 67 88 187q0 112 -82 170q-77 57 -270 119q-233 78 -295 118q-164 99 -164 285q0 181 127 287q124 106 314 106q160 0 290 -86q121 -83 183 -223l-121 -68q-99 238 -352 238q-134 0 -215 -66
q-82 -67 -82 -182q0 -108 73 -160q78 -54 244 -108l111 -39q26 -7 98 -37q67 -26 96 -45q17 -8 35 -23q5 -3 19.5 -12.5t21.5 -15.5q48 -42 62 -70q51 -80 51 -184q0 -181 -133 -293q-133 -109 -351 -109q-195 0 -335 93zM633 -492h-94l20 349h135z" />
    <glyph glyph-name="Scommaaccent106" unicode="&#x219;" horiz-adv-x="929" 
d="M461 582l65 -17l68 -18q66 -21 125 -53q129 -76 129 -224q0 -130 -105 -213q-101 -82 -266 -82q-139 0 -250 66q-103 65 -145 170l115 68q65 -173 280 -173q236 0 236 164q0 119 -211 174l-66 17l-67 18q-66 21 -125 53q-129 76 -129 224q0 127 98 209q104 84 252 84
q124 0 219 -56q93 -54 139 -153l-112 -66q-59 144 -246 144q-93 0 -152 -41q-63 -45 -63 -121q0 -119 211 -174zM512 -492h-94l20 349h135z" />
    <glyph glyph-name="Tcommaaccent" unicode="&#x21a;" horiz-adv-x="1105" 
d="M41 1434h1024v-136h-440v-1298h-144v1298h-440v136zM561 -492h-94l20 349h136z" />
    <glyph glyph-name="Tcommaaccent107" unicode="&#x21b;" horiz-adv-x="768" 
d="M686 1024v-131h-295v-621q0 -118 74 -145q48 -17 221 -8v-119q-217 -34 -321 31q-109 65 -109 241v621h-215v131h215v246l135 41v-287h295zM492 -492h-95l21 349h135z" />
    <glyph glyph-name="circumflex" unicode="&#x2c6;" horiz-adv-x="675" 
d="M418 1434l217 -267h-154l-143 179l-143 -179h-154l217 267h160z" />
    <glyph glyph-name="caron" unicode="&#x2c7;" horiz-adv-x="675" 
d="M338 1255l143 179h154l-217 -267h-160l-217 267h154z" />
    <glyph glyph-name="breve" unicode="&#x2d8;" horiz-adv-x="655" 
d="M119 1223q-78 72 -78 194h131q0 -147 156 -147q155 0 155 147h131q0 -127 -75 -196q-76 -70 -211 -70q-131 0 -209 72z" />
    <glyph glyph-name="dotaccent" unicode="&#x2d9;" horiz-adv-x="307" 
d="M154 1167q-47 0 -80 33t-33 80t33 80t80 33q46 0 79 -33t33 -80t-33 -80t-79 -33z" />
    <glyph glyph-name="ring" unicode="&#x2da;" horiz-adv-x="516" 
d="M258 1126q-100 0 -158 58q-59 59 -59 147q0 87 59 146q65 59 158 59q97 0 156 -59q61 -58 61 -146q0 -89 -61 -147q-58 -58 -156 -58zM338 1260q27 27 27 71q0 45 -27 72q-28 32 -80 29q-53 3 -78 -29q-24 -27 -24 -72q0 -44 24 -71q25 -32 78 -29q52 -3 80 29z" />
    <glyph glyph-name="ogonek" unicode="&#x2db;" horiz-adv-x="370" 
d="M86 -391q-45 42 -45 112q0 135 147 279h142q-156 -141 -156 -254q0 -63 70 -63q43 0 86 18v-113q-61 -22 -121 -22q-77 0 -123 43z" />
    <glyph glyph-name="tilde" unicode="&#x2dc;" horiz-adv-x="655" 
d="M160 1188h-119q0 176 92 223q83 41 197 -45q92 -71 123 -68q43 3 43 115h118q0 -176 -90 -223q-82 -40 -196 45q-89 65 -123 68q-45 3 -45 -115z" />
    <glyph glyph-name="hungarumlaut" unicode="&#x2dd;" horiz-adv-x="690" 
d="M41 1167l143 267h152l-156 -267h-139zM334 1167l164 267h151l-176 -267h-139z" />
    <glyph glyph-name="gravecomb" unicode="&#x300;" horiz-adv-x="0" 
d="M-41 1167h-131l-197 267h164z" />
    <glyph glyph-name="acutecomb" unicode="&#x301;" horiz-adv-x="0" 
d="M-369 1167l164 267h164l-197 -267h-131z" />
    <glyph glyph-name="uni0302" unicode="&#x302;" horiz-adv-x="0" 
d="M-258 1434l217 -267h-154l-143 179l-143 -179h-154l217 267h160z" />
    <glyph glyph-name="tildecomb" unicode="&#x303;" horiz-adv-x="0" 
d="M-496 1188h-118q0 176 92 223q82 40 196 -45q92 -71 123 -68q43 3 43 115h119q0 -176 -90 -223q-83 -41 -197 45q-89 65 -123 68q-45 3 -45 -115z" />
    <glyph glyph-name="uni0304" unicode="&#x304;" horiz-adv-x="0" 
d="M-41 1188h-532v119h532v-119z" />
    <glyph glyph-name="uni0306" unicode="&#x306;" horiz-adv-x="0" 
d="M-537 1223q-77 71 -77 194h131q0 -147 155 -147q156 0 156 147h131q0 -126 -76 -196t-211 -70q-131 0 -209 72z" />
    <glyph glyph-name="uni0307" unicode="&#x307;" horiz-adv-x="0" 
d="M-154 1167q-46 0 -79 33t-33 80t33 80t79 33q47 0 80 -33t33 -80t-33 -80t-80 -33z" />
    <glyph glyph-name="uni0308" unicode="&#x308;" horiz-adv-x="0" 
d="M-522 1178q-40 0 -66 26t-26 66q0 39 26 65q27 27 66 27q38 0 65 -27t27 -65q0 -39 -27 -66q-26 -26 -65 -26zM-133 1178q-40 0 -66 26t-26 66q0 39 26 65q27 27 66 27q38 0 65 -27t27 -65q0 -39 -27 -66q-26 -26 -65 -26z" />
    <glyph glyph-name="hookabovecomb" unicode="&#x309;" horiz-adv-x="1118" 
d="M547 1139h-107q0 71 37 108q35 35 43 47q17 24 17 41q0 23 -17 37q-15 12 -47 12q-63 0 -84 -69l-92 51q23 63 72 94q50 29 106 29q69 0 117 -39q51 -39 51 -109q0 -62 -65 -127q-10 -15 -15 -20q-16 -22 -16 -55z" />
    <glyph glyph-name="uni030A" unicode="&#x30a;" horiz-adv-x="0" 
d="M-258 1126q-98 0 -156 58q-61 58 -61 147q0 88 61 146q59 59 156 59q93 0 158 -59q59 -59 59 -146q0 -88 -59 -147q-58 -58 -158 -58zM-178 1260q26 26 26 71q0 46 -26 72q-28 32 -80 29q-53 3 -78 -29q-24 -27 -24 -72q0 -44 24 -71q25 -32 78 -29q52 -3 80 29z" />
    <glyph glyph-name="uni030B" unicode="&#x30b;" horiz-adv-x="0" 
d="M-649 1167l143 267h152l-156 -267h-139zM-356 1167l163 267h152l-176 -267h-139z" />
    <glyph glyph-name="uni030C" unicode="&#x30c;" horiz-adv-x="0" 
d="M-338 1255l143 179h154l-217 -267h-160l-217 267h154z" />
    <glyph glyph-name="uni0312" unicode="&#x312;" horiz-adv-x="0" 
d="M-135 1966h94l-20 -348h-136z" />
    <glyph glyph-name="uni031B" unicode="&#x31b;" horiz-adv-x="686" 
d="M522 1171h127q0 -122 -88 -204q-82 -82 -215 -82v123q81 0 129 45q47 47 47 118z" />
    <glyph glyph-name="dotbelowcomb" unicode="&#x323;" horiz-adv-x="0" 
d="M-446 -420q-43 0 -72 29q-31 28 -31 72q0 43 31 71q29 29 72 29q42 0 71 -29t29 -71q0 -43 -29 -72t-71 -29z" />
    <glyph glyph-name="uni0326" unicode="&#x326;" horiz-adv-x="0" 
d="M-102 -492h-95l21 349h135z" />
    <glyph glyph-name="uni0327" unicode="&#x327;" horiz-adv-x="0" 
d="M-231 0v-92q190 -37 190 -166q0 -208 -420 -184v110q301 -24 301 74q0 78 -190 84v174h119z" />
    <glyph glyph-name="uni0328" unicode="&#x328;" horiz-adv-x="0" 
d="M-285 -391q-45 42 -45 112q0 134 148 279h141q-156 -141 -156 -254q0 -63 70 -63q43 0 86 18v-113q-61 -22 -121 -22q-77 0 -123 43z" />
    <glyph glyph-name="Delta" unicode="&#x394;" horiz-adv-x="1290" 
d="M571 1434h148l551 -1434h-1250zM645 1255l-422 -1120h844z" />
    <glyph glyph-name="Omega" unicode="&#x3a9;" horiz-adv-x="1646" 
d="M1481 381q-79 -153 -226 -246h285v-135h-559v135q195 52 317 211q123 164 123 371q0 251 -172 426q-173 176 -426 176t-426 -176q-172 -175 -172 -426q0 -206 121 -371q125 -159 320 -211v-135h-560v135h285q-144 91 -227 246q-82 149 -82 336q0 309 215 524
q214 217 526 217q313 0 527 -217q215 -215 215 -524q0 -180 -84 -336z" />
    <glyph glyph-name="pi" unicode="&#x3c0;" horiz-adv-x="1331" 
d="M61 1024h1209v-131h-170v-893h-135v893h-590v-893h-135v893h-179v131z" />
    <glyph glyph-name="uni0401" unicode="&#x401;" horiz-adv-x="1085" 
d="M385 1587q-39 0 -66 27q-26 26 -26 65q0 40 26 66q27 27 66 27t66 -27q26 -26 26 -66q0 -39 -26 -65q-27 -27 -66 -27zM774 1587q-38 0 -65 27t-27 65q0 39 27 66t65 27q39 0 66 -27q26 -26 26 -66q0 -39 -26 -65q-27 -27 -66 -27zM307 655v-520h697v-135h-840v1434h829
v-136h-686v-507h635v-136h-635z" />
    <glyph glyph-name="uni0402" unicode="&#x402;" horiz-adv-x="1429" 
d="M1190 866q106 -103 106 -288v-242q0 -184 -96 -277q-93 -90 -272 -75v131q121 -12 172 39q53 53 53 182v242q0 258 -242 258q-170 0 -327 -68v-768h-144v1298h-399v136h1003v-136h-460v-401q140 70 325 70q177 0 281 -101z" />
    <glyph glyph-name="uni0403" unicode="&#x403;" horiz-adv-x="1003" 
d="M627 1841h164l-197 -266h-131zM164 1434h799v-136h-656v-1298h-143v1434z" />
    <glyph glyph-name="uni0404" unicode="&#x404;" horiz-adv-x="1515" 
d="M1116 193q134 78 201 208l127 -71q-89 -164 -254 -258q-174 -97 -367 -97q-324 0 -534 213q-207 219 -207 529q0 313 207 526q209 215 534 215q193 0 365 -96q167 -96 256 -256l-127 -74q-67 131 -201 209q-135 78 -293 78q-243 0 -409 -152q-164 -151 -185 -383h785
v-135h-785q21 -232 185 -383q165 -151 409 -151q158 0 293 78z" />
    <glyph glyph-name="uni0405" unicode="&#x405;" horiz-adv-x="1179" 
d="M279 68q-142 95 -197 258l123 71q83 -282 411 -282q158 0 250 71q88 67 88 187q0 112 -82 170q-77 57 -270 119q-233 78 -295 118q-164 99 -164 285q0 181 127 287q124 106 314 106q160 0 290 -86q121 -83 183 -223l-121 -68q-99 238 -352 238q-134 0 -215 -66
q-82 -67 -82 -182q0 -108 73 -160q78 -54 244 -108l111 -39q26 -7 98 -37q67 -26 96 -45q17 -8 35 -23q5 -3 19.5 -12.5t21.5 -15.5q48 -42 62 -70q51 -80 51 -184q0 -181 -133 -293q-133 -109 -351 -109q-195 0 -335 93z" />
    <glyph glyph-name="uni0406" unicode="&#x406;" horiz-adv-x="471" 
d="M164 0v1434h143v-1434h-143z" />
    <glyph glyph-name="uni0407" unicode="&#x407;" horiz-adv-x="471" 
d="M41 1587q-39 0 -66 27q-26 26 -26 65q0 40 26 66q27 27 66 27q38 0 65 -27t27 -66q0 -38 -27 -65t-65 -27zM430 1587q-38 0 -65 27t-27 65q0 39 27 66t65 27q39 0 66 -27q26 -26 26 -66q0 -39 -26 -65q-27 -27 -66 -27zM164 0v1434h143v-1434h-143z" />
    <glyph glyph-name="uni0408" unicode="&#x408;" horiz-adv-x="1132" 
d="M252 37q-121 65 -170 184l121 72q67 -178 315 -178q328 0 328 291v1028h143v-1028q0 -209 -135 -320q-132 -111 -336 -111q-151 0 -266 62z" />
    <glyph glyph-name="uni0409" unicode="&#x409;" horiz-adv-x="2037" 
d="M1198 819h328q180 0 305 -119q125 -116 125 -290q0 -177 -125 -293q-126 -117 -305 -117h-471v1298h-582v-665q0 -379 -113 -516q-110 -137 -329 -119v127q146 -21 223 94q76 113 76 418v797h868v-615zM1198 135h328q121 0 203 76q83 77 83 199q0 119 -83 196
q-84 78 -203 78h-328v-549z" />
    <glyph glyph-name="uni040A" unicode="&#x40a;" horiz-adv-x="2007" 
d="M1167 819h328q180 0 305 -119q125 -116 125 -290q0 -177 -125 -293q-126 -117 -305 -117h-471v684h-717v-684h-143v1434h143v-615h717v615h143v-615zM1167 135h328q121 0 203 76q84 78 84 199q0 118 -84 196t-203 78h-328v-549z" />
    <glyph glyph-name="uni040B" unicode="&#x40b;" horiz-adv-x="1439" 
d="M1190 866q106 -103 106 -288v-578h-143v578q0 258 -242 258q-170 0 -327 -68v-768h-144v1298h-399v136h1003v-136h-460v-401q140 70 325 70q177 0 281 -101z" />
    <glyph glyph-name="uni040C" unicode="&#x40c;" horiz-adv-x="1187" 
d="M647 1841h164l-197 -266h-131zM459 737l708 -737h-188l-672 694v-694h-143v1434h143v-656l651 656h189z" />
    <glyph glyph-name="uni040E" unicode="&#x40e;" horiz-adv-x="1167" 
d="M330 1714h532v-119h-532v119zM623 553l376 881h148l-477 -1121q-138 -334 -457 -313v131q222 -21 313 195l29 67l-494 1041h148z" />
    <glyph glyph-name="uni040F" unicode="&#x40f;" horiz-adv-x="1351" 
d="M1044 135v1299h144v-1434h-440v-274h-144v274h-440v1434h143v-1299h737z" />
    <glyph glyph-name="uni0410" unicode="&#x410;" horiz-adv-x="1290" 
d="M1270 0h-152l-133 352h-680l-133 -352h-152l551 1434h148zM645 1255l-289 -768h578z" />
    <glyph glyph-name="uni0411" unicode="&#x411;" horiz-adv-x="1198" 
d="M307 860h389q176 0 303 -127t127 -303q0 -178 -127 -305q-125 -125 -303 -125h-532v1434h840v-136h-697v-438zM307 135h389q120 0 203 86q84 90 84 209q0 117 -84 207q-82 88 -203 88h-389v-590z" />
    <glyph glyph-name="uni0412" unicode="&#x412;" horiz-adv-x="1269" 
d="M1126 608q62 -95 62 -209q0 -165 -117 -282t-283 -117h-624v1434h577q158 0 273 -115q112 -112 112 -270q0 -202 -168 -306q106 -46 168 -135zM741 1298h-434v-499h434q99 0 170 71q72 78 72 179q0 98 -72 176q-70 73 -170 73zM307 135h481q108 0 181 76q75 75 75 188
q0 112 -75 187q-75 78 -181 78h-481v-529z" />
    <glyph glyph-name="uni0413" unicode="&#x413;" horiz-adv-x="1003" 
d="M164 1434h799v-136h-656v-1298h-143v1434z" />
    <glyph glyph-name="uni0414" unicode="&#x414;" horiz-adv-x="1413" 
d="M1188 1434v-1299h153v-409h-143v274h-1024v-274h-143v409h116q142 168 142 512v787h899zM317 135h727v1163h-612v-655q0 -337 -115 -508z" />
    <glyph glyph-name="uni0415" unicode="&#x415;" horiz-adv-x="1085" 
d="M307 655v-520h697v-135h-840v1434h829v-136h-686v-507h635v-136h-635z" />
    <glyph glyph-name="uni0416" unicode="&#x416;" horiz-adv-x="1740" 
d="M1083 737l617 -737h-168l-590 700v-700h-143v700l-590 -700h-168l616 737l-596 697h168l570 -662v662h143v-662l569 662h168z" />
    <glyph glyph-name="uni0417" unicode="&#x417;" horiz-adv-x="1157" 
d="M1075 387q0 -180 -135 -297q-133 -115 -360 -115q-386 0 -498 324l123 70q61 -258 375 -258q165 0 260 77q92 74 92 199q0 124 -86 201q-85 76 -234 76h-163v135h112q147 0 232 73q86 71 86 191q0 116 -84 188t-226 72q-265 0 -348 -225l-119 69q119 291 467 291
q201 0 328 -115q125 -113 125 -282q0 -215 -197 -320q250 -95 250 -354z" />
    <glyph glyph-name="uni0418" unicode="&#x418;" horiz-adv-x="1392" 
d="M1229 0h-144v1167l-798 -1167h-123v1434h143v-1168l799 1168h123v-1434z" />
    <glyph glyph-name="uni0419" unicode="&#x419;" horiz-adv-x="1392" 
d="M963 1597h-533v119h533v-119zM1229 0h-144v1167l-798 -1167h-123v1434h143v-1168l799 1168h123v-1434z" />
    <glyph glyph-name="uni041A" unicode="&#x41a;" horiz-adv-x="1187" 
d="M459 737l708 -737h-188l-672 694v-694h-143v1434h143v-656l651 656h189z" />
    <glyph glyph-name="uni041B" unicode="&#x41b;" horiz-adv-x="1423" 
d="M31 0v127q150 -21 223 92q76 113 76 418v797h930v-1434h-144v1298h-643v-665q0 -376 -121 -524q-101 -124 -321 -109z" />
    <glyph glyph-name="uni041C" unicode="&#x41c;" horiz-adv-x="1638" 
d="M1296 1434h179v-1434h-144v1217l-502 -840h-20l-502 840v-1217h-143v1434h178l477 -799z" />
    <glyph glyph-name="uni041D" unicode="&#x41d;" horiz-adv-x="1392" 
d="M1085 805v629h144v-1434h-144v670h-778v-670h-143v1434h143v-629h778z" />
    <glyph glyph-name="uni041E" unicode="&#x41e;" horiz-adv-x="1646" 
d="M823 -25q-311 0 -526 215q-215 218 -215 527t215 524q214 217 526 217q313 0 527 -217q215 -215 215 -524t-215 -527q-215 -215 -527 -215zM823 115q255 0 426 174q172 175 172 428q0 251 -172 426q-173 176 -426 176t-426 -176q-172 -175 -172 -426q0 -253 172 -428
q171 -174 426 -174z" />
    <glyph glyph-name="uni041F" unicode="&#x41f;" horiz-adv-x="1351" 
d="M164 1434h1024v-1434h-144v1298h-737v-1298h-143v1434z" />
    <glyph glyph-name="uni0420" unicode="&#x420;" horiz-adv-x="1208" 
d="M164 1434h512q192 0 321 -129t129 -322q0 -192 -129 -321q-130 -130 -321 -130h-369v-532h-143v1434zM307 668h369q134 0 219 88q88 88 88 227q0 137 -88 225q-87 90 -219 90h-369v-630z" />
    <glyph glyph-name="uni0421" unicode="&#x421;" horiz-adv-x="1525" 
d="M295 190q-213 219 -213 527q0 307 213 526q212 215 539 215q192 0 364 -96q167 -96 256 -256l-127 -74q-67 131 -201 209q-135 78 -292 78q-271 0 -439 -174q-170 -176 -170 -428t170 -428q168 -174 439 -174q157 0 292 78q134 78 201 208l127 -71q-89 -164 -254 -258
q-174 -97 -366 -97q-327 0 -539 215z" />
    <glyph glyph-name="uni0422" unicode="&#x422;" horiz-adv-x="1105" 
d="M41 1434h1024v-136h-440v-1298h-144v1298h-440v136z" />
    <glyph glyph-name="uni0423" unicode="&#x423;" horiz-adv-x="1167" 
d="M623 553l376 881h148l-477 -1121q-138 -334 -457 -313v131q222 -21 313 195l29 67l-494 1041h148z" />
    <glyph glyph-name="uni0424" unicode="&#x424;" horiz-adv-x="1646" 
d="M895 162v-162h-143v162q-313 15 -502 157q-189 145 -189 398q0 252 189 397q190 143 502 158v162h143v-162q313 -15 500 -158q190 -144 190 -397q0 -254 -190 -398q-186 -142 -500 -157zM752 293v848q-257 -12 -400 -119q-147 -114 -147 -305q0 -192 147 -303
q145 -109 400 -121zM895 1141v-848q254 12 399 121q148 112 148 303q0 190 -148 305q-143 107 -399 119z" />
    <glyph glyph-name="uni0425" unicode="&#x425;" horiz-adv-x="1187" 
d="M676 739l471 -739h-164l-389 612l-389 -612h-164l471 739l-440 695h161l361 -566l360 566h162z" />
    <glyph glyph-name="uni0426" unicode="&#x426;" horiz-adv-x="1413" 
d="M1188 1434v-1299h153v-409h-143v274h-1034v1434h143v-1299h737v1299h144z" />
    <glyph glyph-name="uni0427" unicode="&#x427;" horiz-adv-x="1280" 
d="M973 739v695h143v-1434h-143v604q-189 -92 -389 -92q-201 0 -328 115q-123 114 -123 295v512h143v-512q0 -125 80 -199q82 -76 228 -76q200 0 389 92z" />
    <glyph glyph-name="uni0428" unicode="&#x428;" horiz-adv-x="1945" 
d="M1638 135v1299h144v-1434h-1618v1434h143v-1299h594v1299h143v-1299h594z" />
    <glyph glyph-name="uni0429" unicode="&#x429;" horiz-adv-x="2007" 
d="M1782 1434v-1299h153v-409h-143v274h-1628v1434h143v-1299h594v1299h143v-1299h594v1299h144z" />
    <glyph glyph-name="uni042A" unicode="&#x42a;" horiz-adv-x="1433" 
d="M901 0h-512v1298h-389v136h532v-533h369q193 0 322 -129t129 -321q0 -193 -129 -322t-322 -129zM532 766v-631h369q134 0 219 88q88 88 88 228q0 137 -88 225q-87 90 -219 90h-369z" />
    <glyph glyph-name="uni042B" unicode="&#x42b;" horiz-adv-x="1587" 
d="M676 0h-512v1434h143v-533h369q192 0 321 -129t129 -321q0 -193 -129 -322t-321 -129zM1423 0h-143v1434h143v-1434zM307 766v-631h369q134 0 219 88q88 88 88 228q0 137 -88 225q-87 90 -219 90h-369z" />
    <glyph glyph-name="uni042C" unicode="&#x42c;" horiz-adv-x="1208" 
d="M307 901h369q192 0 321 -129t129 -321q0 -193 -129 -322t-321 -129h-512v1434h143v-533zM307 135h369q134 0 219 88q88 88 88 228q0 137 -88 225q-87 90 -219 90h-369v-631z" />
    <glyph glyph-name="uni042D" unicode="&#x42d;" horiz-adv-x="1515" 
d="M1225 1243q209 -212 209 -526t-209 -529q-207 -213 -533 -213q-190 0 -364 97q-167 93 -256 258l127 71q67 -131 200 -208q135 -78 293 -78q245 0 410 151q163 150 184 383h-784v135h784q-21 233 -184 383q-166 152 -410 152q-158 0 -293 -78q-132 -77 -200 -209l-127 74
q89 160 256 256q172 96 364 96q327 0 533 -215z" />
    <glyph glyph-name="uni042E" unicode="&#x42e;" horiz-adv-x="2129" 
d="M1833 1241q215 -215 215 -524t-215 -527q-215 -215 -526 -215q-295 0 -508 201q-209 203 -224 494h-268v-670h-143v1434h143v-629h271q35 283 237 467q204 186 492 186q312 0 526 -217zM1307 115q255 0 426 174q172 175 172 428q0 251 -172 426q-173 176 -426 176
t-426 -176q-172 -175 -172 -426q0 -253 172 -428q171 -174 426 -174z" />
    <glyph glyph-name="uni042F" unicode="&#x42f;" horiz-adv-x="1269" 
d="M532 1434h574v-1434h-143v573h-345l-393 -573h-164l400 580q-156 27 -256 145q-103 121 -103 279q0 178 125 303q127 127 305 127zM532 709h431v589h-431q-119 0 -202 -86q-84 -90 -84 -208q0 -119 84 -209q83 -86 202 -86z" />
    <glyph glyph-name="uni0430" unicode="&#x430;" 
d="M1024 823v201h135v-1024h-135v201q-142 -226 -414 -226q-218 0 -374 156q-154 157 -154 381t154 381q156 156 374 156q272 0 414 -226zM621 106q169 0 286 117q117 120 117 289q0 170 -117 287q-116 119 -286 119q-171 0 -287 -119q-117 -117 -117 -287q0 -169 117 -289
q117 -117 287 -117z" />
    <glyph glyph-name="uni0431" unicode="&#x431;" horiz-adv-x="1161" 
d="M229 121q-147 147 -147 381q0 260 78 401q77 141 315 256l25 12l28 13q58 25 66 28q63 24 113 50q73 33 120 77q57 57 60 125l106 -61q-8 -45 -32 -92q-47 -77 -132 -129q-16 -12 -47 -27l-20 -10l-17 -8l-102 -43l-96 -41q-140 -61 -211 -129q-70 -67 -96 -172
q134 180 387 180q206 0 338 -135q135 -132 135 -342q0 -206 -144 -344q-142 -136 -358 -136q-217 0 -369 146zM860 207q105 99 105 248q0 153 -99 247q-94 99 -258 99q-143 0 -264 -92q-119 -88 -119 -242q0 -155 107 -256q106 -100 266 -100q158 0 262 96z" />
    <glyph glyph-name="uni0432" unicode="&#x432;" horiz-adv-x="1024" 
d="M963 287q0 -127 -84 -205q-85 -82 -238 -82h-498v1024h457q149 0 231 -76t82 -198q0 -155 -118 -224q168 -61 168 -239zM600 893h-321v-311h321q178 0 178 159q0 152 -178 152zM279 131h362q186 0 186 164q0 156 -186 156h-362v-320z" />
    <glyph glyph-name="uni0433" unicode="&#x433;" horiz-adv-x="819" 
d="M143 1024h656v-131h-520v-893h-136v1024z" />
    <glyph glyph-name="uni0434" unicode="&#x434;" horiz-adv-x="1208" 
d="M1004 1024v-893h143v-405h-135v274h-836v-274h-135v405h125q104 137 104 387v506h734zM330 131h538v762h-462v-375q0 -238 -76 -387z" />
    <glyph glyph-name="uni0435" unicode="&#x435;" horiz-adv-x="1196" 
d="M983 887q141 -159 141 -379q0 -3 -0.5 -11t-1.5 -23.5t-2 -29.5h-899q21 -154 131 -245q113 -93 277 -93q235 0 329 175l119 -70q-143 -236 -450 -236q-242 0 -394 152q-151 151 -151 385t149 383q151 154 385 154q230 0 367 -162zM348 823q-106 -92 -127 -248h764
q-21 162 -125 252q-111 91 -244 91q-159 0 -268 -95z" />
    <glyph glyph-name="uni0436" unicode="&#x436;" horiz-adv-x="1380" 
d="M881 532l458 -532h-163l-418 494v-494h-135v494l-418 -494h-164l459 532l-439 492h164l398 -455v455h135v-455l397 455h164z" />
    <glyph glyph-name="uni0437" unicode="&#x437;" horiz-adv-x="911" 
d="M850 281q0 -131 -100 -218q-94 -88 -283 -88q-311 0 -406 246l115 68q65 -183 291 -183q118 0 182 52q66 51 66 131q0 73 -53 117q-51 45 -144 45h-149v131h108q189 0 189 166q0 71 -60 122q-63 48 -160 48q-191 0 -256 -154l-112 65q103 220 368 220q164 0 259 -86
q96 -84 96 -207q0 -159 -129 -230q178 -67 178 -245z" />
    <glyph glyph-name="uni0438" unicode="&#x438;" horiz-adv-x="1146" 
d="M279 236l610 788h115v-1024h-136v788l-610 -788h-115v1024h136v-788z" />
    <glyph glyph-name="uni0439" unicode="&#x439;" horiz-adv-x="1146" 
d="M840 1188h-533v119h533v-119zM279 236l610 788h115v-1024h-136v788l-610 -788h-115v1024h136v-788z" />
    <glyph glyph-name="uni043A" unicode="&#x43a;" horiz-adv-x="1011" 
d="M422 532l549 -532h-180l-512 494v-494h-136v1024h136v-453l487 453h184z" />
    <glyph glyph-name="uni043B" unicode="&#x43b;" horiz-adv-x="1126" 
d="M250 1024h733v-1024h-135v893h-463v-457q0 -258 -98 -352q-96 -96 -267 -84v127q120 -12 175 55q55 70 55 254v588z" />
    <glyph glyph-name="uni043C" unicode="&#x43c;" horiz-adv-x="1290" 
d="M991 1024h156v-1024h-135v817l-359 -581h-16l-358 581v-817h-136v1024h156l346 -561z" />
    <glyph glyph-name="uni043D" unicode="&#x43d;" horiz-adv-x="1146" 
d="M868 578v446h136v-1024h-136v446h-589v-446h-136v1024h136v-446h589z" />
    <glyph glyph-name="uni043E" unicode="&#x43e;" horiz-adv-x="1241" 
d="M621 -25q-226 0 -383 154q-156 156 -156 383q0 228 156 381q156 156 383 156q224 0 380 -156q158 -155 158 -381q0 -225 -158 -383q-157 -154 -380 -154zM621 106q169 0 286 117q117 120 117 289q0 170 -117 287q-116 119 -286 119q-171 0 -287 -119q-117 -117 -117 -287
q0 -169 117 -289q117 -117 287 -117z" />
    <glyph glyph-name="uni043F" unicode="&#x43f;" horiz-adv-x="1146" 
d="M143 1024h861v-1024h-136v893h-589v-893h-136v1024z" />
    <glyph glyph-name="uni0440" unicode="&#x440;" 
d="M1065 893q156 -156 156 -381t-156 -381q-153 -156 -373 -156q-271 0 -413 226v-611h-136v1434h136v-201q142 226 413 226q220 0 373 -156zM682 106q170 0 287 117q116 119 116 289q0 171 -116 287q-116 119 -287 119t-287 -119q-116 -116 -116 -287q0 -170 116 -289
q117 -117 287 -117z" />
    <glyph glyph-name="uni0441" unicode="&#x441;" horiz-adv-x="1130" 
d="M236 129q-154 157 -154 383q0 227 154 381q153 156 385 156q149 0 272 -72q120 -74 176 -197l-111 -63q-40 90 -131 147q-94 54 -206 54q-171 0 -287 -119q-117 -117 -117 -287q0 -169 117 -289q117 -117 287 -117q234 0 346 201l112 -65q-66 -126 -186 -195
q-126 -72 -272 -72q-231 0 -385 154z" />
    <glyph glyph-name="uni0442" unicode="&#x442;" horiz-adv-x="901" 
d="M20 1024h861v-131h-363v-893h-135v893h-363v131z" />
    <glyph glyph-name="uni0443" unicode="&#x443;" horiz-adv-x="1044" 
d="M549 166l332 858h143l-438 -1118q-62 -158 -170 -240q-110 -85 -244 -76v127q188 -21 281 213l26 64l-459 1030h144z" />
    <glyph glyph-name="uni0444" unicode="&#x444;" horiz-adv-x="1372" 
d="M754 -23v-387h-136v387q-243 21 -389 170q-147 150 -147 365t147 365q146 149 389 170v387h136v-387q243 -21 389 -170q147 -150 147 -365t-147 -365q-146 -149 -389 -170zM618 111v802q-181 -18 -292 -129q-109 -112 -109 -272q0 -161 109 -270q110 -113 292 -131z
M754 913v-802q183 18 293 131q108 108 108 270q0 161 -108 272q-111 111 -293 129z" />
    <glyph glyph-name="uni0445" unicode="&#x445;" horiz-adv-x="1044" 
d="M604 530l400 -530h-162l-320 422l-319 -422h-162l401 530l-374 494h161l293 -387l293 387h162z" />
    <glyph glyph-name="uni0446" unicode="&#x446;" horiz-adv-x="1208" 
d="M983 1024v-893h164v-405h-135v274h-869v1024h136v-893h569v893h135z" />
    <glyph glyph-name="uni0447" unicode="&#x447;" horiz-adv-x="1085" 
d="M807 514v510h135v-1024h-135v389q-119 -61 -293 -61q-412 0 -412 368v328h136v-328q0 -241 272 -241q155 0 297 59z" />
    <glyph glyph-name="uni0448" unicode="&#x448;" horiz-adv-x="1658" 
d="M1380 131v893h136v-1024h-1373v1024h136v-893h483v893h135v-893h483z" />
    <glyph glyph-name="uni0449" unicode="&#x449;" horiz-adv-x="1720" 
d="M1516 1024v-893h143v-405h-135v274h-1381v1024h136v-893h483v893h135v-893h483v893h136z" />
    <glyph glyph-name="uni044A" unicode="&#x44a;" horiz-adv-x="1105" 
d="M422 635h280q138 0 242 -90q100 -87 100 -228q0 -142 -100 -229q-94 -88 -242 -88h-415v893h-287v131h422v-389zM422 131h280q91 0 148 51q59 53 59 135q0 83 -59 136q-57 51 -148 51h-280v-373z" />
    <glyph glyph-name="uni044B" unicode="&#x44b;" horiz-adv-x="1323" 
d="M279 635h280q138 0 242 -90q100 -87 100 -228q0 -142 -100 -229q-94 -88 -242 -88h-416v1024h136v-389zM1044 0v1024h136v-1024h-136zM279 131h280q91 0 148 51q59 53 59 135q0 83 -59 136q-57 51 -148 51h-280v-373z" />
    <glyph glyph-name="uni044C" unicode="&#x44c;" horiz-adv-x="962" 
d="M279 635h280q138 0 242 -90q100 -87 100 -228q0 -142 -100 -229q-94 -88 -242 -88h-416v1024h136v-389zM279 131h280q91 0 148 51q59 53 59 135q0 83 -59 136q-57 51 -148 51h-280v-373z" />
    <glyph glyph-name="uni044D" unicode="&#x44d;" horiz-adv-x="1103" 
d="M881 895q141 -150 141 -383q0 -236 -143 -385q-143 -152 -375 -152q-163 0 -287 74q-120 71 -176 197l117 67q39 -98 125 -149q91 -58 221 -58q148 0 256 97q102 91 123 243h-510v132h510q-18 153 -119 243q-108 97 -256 97q-118 0 -207 -56q-91 -57 -133 -149l-119 67
q62 127 184 197q123 72 275 72q231 0 373 -154z" />
    <glyph glyph-name="uni044E" unicode="&#x44e;" horiz-adv-x="1638" 
d="M1399 893q157 -154 157 -381q0 -226 -157 -383q-157 -154 -381 -154q-204 0 -356 134q-149 137 -170 337h-213v-446h-136v1024h136v-446h213q21 201 170 335q151 136 356 136q225 0 381 -156zM1018 106q170 0 287 117q116 119 116 289q0 171 -116 287q-116 119 -287 119
t-287 -119q-117 -117 -117 -287q0 -169 117 -289q117 -117 287 -117z" />
    <glyph glyph-name="uni044F" unicode="&#x44f;" horiz-adv-x="1024" 
d="M465 1024h416v-1024h-136v393h-176l-315 -393h-172l324 397q-124 18 -203 103q-80 86 -80 207q0 139 98 227q104 90 244 90zM465 520h280v373h-280q-89 0 -146 -51q-61 -52 -61 -135q0 -84 61 -136q57 -51 146 -51z" />
    <glyph glyph-name="uni0451" unicode="&#x451;" horiz-adv-x="1196" 
d="M410 1178q-40 0 -66 26q-27 27 -27 66q0 38 27 65t66 27q38 0 65 -27t27 -65q0 -39 -27 -66q-26 -26 -65 -26zM799 1178q-40 0 -66 26t-26 66q0 39 26 65q27 27 66 27q38 0 65 -27t27 -65q0 -39 -27 -66q-26 -26 -65 -26zM983 887q141 -159 141 -379q0 -3 -0.5 -11
t-1.5 -23.5t-2 -29.5h-899q21 -154 131 -245q113 -93 277 -93q235 0 329 175l119 -70q-143 -236 -450 -236q-242 0 -394 152q-151 151 -151 385t149 383q151 154 385 154q230 0 367 -162zM348 823q-106 -92 -127 -248h764q-21 162 -125 252q-111 91 -244 91q-159 0 -268 -95
z" />
    <glyph glyph-name="uni0452" unicode="&#x452;" horiz-adv-x="1163" 
d="M936 934q108 -114 108 -305v-711q0 -183 -96 -276q-94 -91 -272 -76v131q124 -12 178 39q55 52 55 182v711q0 136 -71 213q-73 76 -207 76q-153 0 -240 -93q-92 -103 -92 -288v-537h-135v1180h-144v110h144v144h135v-144h295v-110h-295v-316q114 185 344 185
q184 0 293 -115z" />
    <glyph glyph-name="uni0453" unicode="&#x453;" horiz-adv-x="819" 
d="M483 1434h164l-196 -267h-132zM143 1024h656v-131h-520v-893h-136v1024z" />
    <glyph glyph-name="uni0454" unicode="&#x454;" horiz-adv-x="1103" 
d="M946 313l117 -67q-56 -126 -176 -197q-124 -74 -287 -74q-231 0 -377 152q-141 153 -141 385q0 233 141 383q142 154 373 154q150 0 276 -72q122 -72 183 -197l-119 -67q-42 92 -133 149q-89 56 -207 56q-149 0 -254 -97q-103 -92 -121 -243h510v-132h-510
q21 -152 123 -243q108 -97 256 -97q130 0 221 58q86 51 125 149z" />
    <glyph glyph-name="uni0455" unicode="&#x455;" horiz-adv-x="929" 
d="M461 582l65 -17l68 -18q66 -21 125 -53q129 -76 129 -224q0 -130 -105 -213q-101 -82 -266 -82q-139 0 -250 66q-103 65 -145 170l115 68q65 -173 280 -173q236 0 236 164q0 119 -211 174l-66 17l-67 18q-66 21 -125 53q-129 76 -129 224q0 127 98 209q104 84 252 84
q124 0 219 -56q93 -54 139 -153l-112 -66q-59 144 -246 144q-93 0 -152 -41q-63 -45 -63 -121q0 -119 211 -174z" />
    <glyph glyph-name="uni0456" unicode="&#x456;" horiz-adv-x="421" 
d="M211 1241q-41 0 -70 29q-28 28 -28 69q0 42 28 70q29 29 70 29t70 -29q28 -28 28 -70q0 -41 -28 -69q-29 -29 -70 -29zM279 0h-136v1024h136v-1024z" />
    <glyph glyph-name="uni0457" unicode="&#x457;" horiz-adv-x="421" 
d="M16 1178q-39 0 -65 26q-27 27 -27 66q0 38 27 65t65 27q39 0 66 -27t27 -65q0 -39 -27 -66q-26 -26 -66 -26zM406 1178q-40 0 -66 26q-27 27 -27 66q0 38 27 65t66 27q38 0 65 -27t27 -65q0 -39 -27 -66q-26 -26 -65 -26zM279 0h-136v1024h136v-1024z" />
    <glyph glyph-name="uni0458" unicode="&#x458;" horiz-adv-x="471" 
d="M260 1438q41 0 70 -29q28 -28 28 -70q0 -41 -28 -69q-29 -29 -70 -29t-70 29q-28 28 -28 69q0 42 28 70q29 29 70 29zM193 -82v1106h135v-1106q0 -182 -97 -276q-94 -91 -272 -76v131q124 -12 178 39q56 53 56 182z" />
    <glyph glyph-name="uni0459" unicode="&#x459;" horiz-adv-x="1615" 
d="M963 594h270q140 0 229 -80q92 -83 92 -217t-92 -217q-89 -80 -229 -80h-406v893h-442v-457q0 -258 -98 -352q-96 -96 -267 -84v127q120 -12 175 55q55 70 55 254v588h713v-430zM963 131h270q84 0 133 43q53 44 53 123t-53 123q-49 43 -133 43h-270v-332z" />
    <glyph glyph-name="uni045A" unicode="&#x45a;" horiz-adv-x="1615" 
d="M963 594h270q140 0 229 -80q92 -83 92 -217t-92 -217q-89 -80 -229 -80h-406v463h-548v-463h-136v1024h136v-430h548v430h136v-430zM963 131h270q84 0 133 43q53 44 53 123t-53 123q-49 43 -133 43h-270v-332z" />
    <glyph glyph-name="uni045B" unicode="&#x45b;" horiz-adv-x="1163" 
d="M936 934q108 -114 108 -305v-629h-135v629q0 136 -71 213q-73 76 -207 76q-153 0 -240 -93q-92 -103 -92 -288v-537h-135v1180h-144v110h144v144h135v-144h295v-110h-295v-316q114 185 344 185q184 0 293 -115z" />
    <glyph glyph-name="uni045C" unicode="&#x45c;" horiz-adv-x="1011" 
d="M565 1434h164l-197 -267h-131zM422 532l549 -532h-180l-512 494v-494h-136v1024h136v-453l487 453h184z" />
    <glyph glyph-name="uni045E" unicode="&#x45e;" horiz-adv-x="1044" 
d="M252 1307h532v-119h-532v119zM549 166l332 858h143l-438 -1118q-62 -158 -170 -240q-110 -85 -244 -76v127q188 -21 281 213l26 64l-459 1030h144z" />
    <glyph glyph-name="uni045F" unicode="&#x45f;" horiz-adv-x="1146" 
d="M868 131v893h136v-1024h-363v-274h-135v274h-363v1024h136v-893h589z" />
    <glyph glyph-name="uni0490" unicode="&#x490;" horiz-adv-x="1003" 
d="M819 1434v245h144v-381h-656v-1298h-143v1434h655z" />
    <glyph glyph-name="uni0491" unicode="&#x491;" horiz-adv-x="819" 
d="M664 1024v213h135v-344h-520v-893h-136v1024h521z" />
    <glyph glyph-name="Wgrave" unicode="&#x1e80;" horiz-adv-x="2048" 
d="M1016 1577h131l-164 266h-164zM649 0h-172l-416 1434h152l354 -1239l373 1239h168l373 -1239l354 1239h152l-416 -1434h-172l-375 1245z" />
    <glyph glyph-name="Wgrave108" unicode="&#x1e81;" horiz-adv-x="1576" 
d="M748 1434l163 -267h-131l-196 267h164zM1124 174l252 850h140l-316 -1024h-147l-265 825l-264 -825h-147l-316 1024h140l252 -850l268 850h135z" />
    <glyph glyph-name="Wacute" unicode="&#x1e82;" horiz-adv-x="2048" 
d="M1085 1843l-163 -266h131l196 266h-164zM649 0h-172l-416 1434h152l354 -1239l373 1239h168l373 -1239l354 1239h152l-416 -1434h-172l-375 1245z" />
    <glyph glyph-name="Wacute109" unicode="&#x1e83;" horiz-adv-x="1576" 
d="M850 1434h164l-197 -267h-131zM1124 174l252 850h140l-316 -1024h-147l-265 825l-264 -825h-147l-316 1024h140l252 -850l268 850h135z" />
    <glyph glyph-name="Wdieresis" unicode="&#x1e84;" horiz-adv-x="2048" 
d="M829 1587q-38 0 -65 27t-27 65q0 39 27 66t65 27q39 0 66 -27t27 -66q0 -38 -27 -65t-66 -27zM1219 1587q-39 0 -66 27t-27 65q0 39 27 66t66 27q38 0 65 -27t27 -66q0 -38 -27 -65t-65 -27zM649 0h-172l-416 1434h152l354 -1239l373 1239h168l373 -1239l354 1239h152
l-416 -1434h-172l-375 1245z" />
    <glyph glyph-name="Wdieresis110" unicode="&#x1e85;" horiz-adv-x="1576" 
d="M594 1178q-40 0 -66 26t-26 66q0 39 26 65q27 27 66 27q38 0 65 -27t27 -65q0 -39 -27 -66q-26 -26 -65 -26zM983 1178q-39 0 -65 26q-27 27 -27 66q0 38 27 65t65 27q39 0 66 -27q26 -26 26 -65q0 -40 -26 -66t-66 -26zM1124 174l252 850h140l-316 -1024h-147l-265 825
l-264 -825h-147l-316 1024h140l252 -850l268 850h135z" />
    <glyph glyph-name="A.dotbl" unicode="&#x1ea0;" horiz-adv-x="1290" 
d="M1270 0h-152l-133 352h-680l-133 -352h-152l551 1434h148zM645 1255l-289 -768h578zM645 -420q-43 0 -72 29q-30 27 -30 72q0 44 30 71q29 29 72 29t72 -29q28 -28 28 -71q0 -44 -28 -72q-29 -29 -72 -29z" />
    <glyph glyph-name="A.dotbl112" unicode="&#x1ea1;" 
d="M1024 823v201h135v-1024h-135v201q-142 -226 -414 -226q-218 0 -374 156q-154 157 -154 381t154 381q156 156 374 156q272 0 414 -226zM621 106q169 0 286 117q117 120 117 289q0 170 -117 287q-116 119 -286 119q-171 0 -287 -119q-117 -117 -117 -287q0 -169 117 -289
q117 -117 287 -117zM621 -420q-43 0 -72 29q-31 28 -31 72q0 43 31 71q29 29 72 29q42 0 71 -29t29 -71q0 -43 -29 -72t-71 -29z" />
    <glyph glyph-name="A.hook" unicode="&#x1ea2;" horiz-adv-x="1290" 
d="M1270 0h-152l-133 352h-680l-133 -352h-152l551 1434h148zM645 1255l-289 -768h578zM723 1548h-107q0 72 37 109q35 35 43 47q17 24 17 41q0 23 -17 37q-15 12 -47 12q-63 0 -84 -70l-92 52q23 63 72 94q48 28 106 28q71 0 117 -38q51 -39 51 -109q0 -62 -65 -127
q-10 -15 -15 -20q-16 -22 -16 -56z" />
    <glyph glyph-name="A.hook113" unicode="&#x1ea3;" 
d="M1024 823v201h135v-1024h-135v201q-142 -226 -414 -226q-218 0 -374 156q-154 157 -154 381t154 381q156 156 374 156q272 0 414 -226zM621 106q169 0 286 117q117 120 117 289q0 170 -117 287q-116 119 -286 119q-171 0 -287 -119q-117 -117 -117 -287q0 -169 117 -289
q117 -117 287 -117zM698 1139h-106q0 71 37 108q35 35 43 47q16 22 16 41q0 24 -16 37q-15 12 -47 12q-63 0 -84 -69l-92 51q24 63 71 94q50 29 107 29q68 0 116 -39q52 -40 52 -109q0 -61 -66 -127q-12 -18 -14 -20q-17 -24 -17 -55z" />
    <glyph glyph-name="Acir.acute" unicode="&#x1ea4;" horiz-adv-x="1290" 
d="M1270 0h-152l-133 352h-680l-133 -352h-152l551 1434h148zM645 1255l-289 -768h578zM725 1784l217 -266h-154l-143 178l-143 -178h-154l217 266h160zM872 1661l164 266h164l-196 -266h-132z" />
    <glyph glyph-name="Acir.acute114" unicode="&#x1ea5;" 
d="M1024 823v201h135v-1024h-135v201q-142 -226 -414 -226q-218 0 -374 156q-154 157 -154 381t154 381q156 156 374 156q272 0 414 -226zM621 106q169 0 286 117q117 120 117 289q0 170 -117 287q-116 119 -286 119q-171 0 -287 -119q-117 -117 -117 -287q0 -169 117 -289
q117 -117 287 -117zM700 1434l218 -267h-154l-143 179l-144 -179h-153l217 267h159zM891 1300l164 267h164l-197 -267h-131z" />
    <glyph glyph-name="Acir.grave" unicode="&#x1ea6;" horiz-adv-x="1290" 
d="M1270 0h-152l-133 352h-680l-133 -352h-152l551 1434h148zM645 1255l-289 -768h578zM725 1784l217 -266h-154l-143 178l-143 -178h-154l217 266h160zM1047 1722h-132l-196 267h164z" />
    <glyph glyph-name="Acir.grave115" unicode="&#x1ea7;" 
d="M1024 823v201h135v-1024h-135v201q-142 -226 -414 -226q-218 0 -374 156q-154 157 -154 381t154 381q156 156 374 156q272 0 414 -226zM621 106q169 0 286 117q117 120 117 289q0 170 -117 287q-116 119 -286 119q-171 0 -287 -119q-117 -117 -117 -287q0 -169 117 -289
q117 -117 287 -117zM700 1434l218 -267h-154l-143 179l-144 -179h-153l217 267h159zM1006 1407h-132l-196 266h164z" />
    <glyph glyph-name="Acir.hook" unicode="&#x1ea8;" horiz-adv-x="1290" 
d="M1270 0h-152l-133 352h-680l-133 -352h-152l551 1434h148zM645 1255l-289 -768h578zM721 1784l217 -266h-154l-143 178l-143 -178h-154l217 266h160zM999 1696h-106q0 71 37 108q35 35 43 47q16 22 16 41q0 24 -16 37t-47 13q-63 0 -84 -70l-92 51q24 63 71 94
q50 29 107 29q68 0 116 -39q52 -40 52 -109q0 -60 -66 -126q-1 -2 -3.5 -6.5t-5 -8t-5.5 -6.5q-17 -24 -17 -55z" />
    <glyph glyph-name="Acir.hook116" unicode="&#x1ea9;" 
d="M1024 823v201h135v-1024h-135v201q-142 -226 -414 -226q-218 0 -374 156q-154 157 -154 381t154 381q156 156 374 156q272 0 414 -226zM621 106q169 0 286 117q117 120 117 289q0 170 -117 287q-116 119 -286 119q-171 0 -287 -119q-117 -117 -117 -287q0 -169 117 -289
q117 -117 287 -117zM700 1434l218 -267h-154l-143 179l-144 -179h-153l217 267h159zM979 1300h-107q0 72 37 109q35 35 43 47q17 24 17 41q0 23 -17 37q-15 12 -47 12q-63 0 -84 -69l-92 51q23 63 72 94q50 29 106 29q69 0 117 -39q51 -39 51 -109q0 -62 -65 -127
q-10 -15 -15 -20q-16 -22 -16 -56z" />
    <glyph glyph-name="Acir.tilde" unicode="&#x1eaa;" horiz-adv-x="1290" 
d="M1270 0h-152l-133 352h-680l-133 -352h-152l551 1434h148zM645 1255l-289 -768h578zM725 1784l217 -266h-154l-143 178l-143 -178h-154l217 266h160zM514 1853h-119q0 177 92 224q83 41 197 -45q92 -71 123 -68q43 3 43 115h119q0 -177 -90 -224q-82 -40 -197 46
q-88 64 -123 67q-45 3 -45 -115z" />
    <glyph glyph-name="Acir.tilde117" unicode="&#x1eab;" 
d="M1024 823v201h135v-1024h-135v201q-142 -226 -414 -226q-218 0 -374 156q-154 157 -154 381t154 381q156 156 374 156q272 0 414 -226zM621 106q169 0 286 117q117 120 117 289q0 170 -117 287q-116 119 -286 119q-171 0 -287 -119q-117 -117 -117 -287q0 -169 117 -289
q117 -117 287 -117zM700 1434l218 -267h-154l-143 179l-144 -179h-153l217 267h159zM453 1507h-119q0 177 92 224q83 41 197 -45q92 -71 122 -68q43 3 43 115h119q0 -177 -90 -224q-82 -40 -196 45q-89 65 -123 68q-45 3 -45 -115z" />
    <glyph glyph-name="Acir.dotbl" unicode="&#x1eac;" horiz-adv-x="1290" 
d="M1270 0h-152l-133 352h-680l-133 -352h-152l551 1434h148zM645 1255l-289 -768h578zM725 1843l217 -266h-154l-143 178l-143 -178h-154l217 266h160zM645 -420q-43 0 -72 29q-30 27 -30 72q0 44 30 71q29 29 72 29t72 -29q28 -28 28 -71q0 -44 -28 -72q-29 -29 -72 -29z
" />
    <glyph glyph-name="Acir.dotbl118" unicode="&#x1ead;" 
d="M1024 823v201h135v-1024h-135v201q-142 -226 -414 -226q-218 0 -374 156q-154 157 -154 381t154 381q156 156 374 156q272 0 414 -226zM621 106q169 0 286 117q117 120 117 289q0 170 -117 287q-116 119 -286 119q-171 0 -287 -119q-117 -117 -117 -287q0 -169 117 -289
q117 -117 287 -117zM700 1434l218 -267h-154l-143 179l-144 -179h-153l217 267h159zM621 -420q-43 0 -72 29q-31 28 -31 72q0 43 31 71q29 29 72 29q42 0 71 -29t29 -71q0 -43 -29 -72t-71 -29z" />
    <glyph glyph-name="Abrv.acute" unicode="&#x1eae;" horiz-adv-x="1290" 
d="M1270 0h-152l-133 352h-680l-133 -352h-152l551 1434h148zM645 1255l-289 -768h578zM436 1587q-78 72 -78 195h131q0 -148 156 -148t156 148h131q0 -127 -76 -197q-75 -69 -211 -69q-132 0 -209 71zM569 1835l164 266h164l-197 -266h-131z" />
    <glyph glyph-name="Abrv.acute119" unicode="&#x1eaf;" 
d="M1024 823v201h135v-1024h-135v201q-142 -226 -414 -226q-218 0 -374 156q-154 157 -154 381t154 381q156 156 374 156q272 0 414 -226zM621 106q169 0 286 117q117 120 117 289q0 170 -117 287q-116 119 -286 119q-171 0 -287 -119q-117 -117 -117 -287q0 -169 117 -289
q117 -117 287 -117zM412 1223q-78 72 -78 194h131q0 -147 156 -147q155 0 155 147h131q0 -126 -76 -196t-210 -70q-131 0 -209 72zM512 1485l164 266h164l-197 -266h-131z" />
    <glyph glyph-name="Abrv.grave" unicode="&#x1eb0;" horiz-adv-x="1290" 
d="M1270 0h-152l-133 352h-680l-133 -352h-152l551 1434h148zM645 1255l-289 -768h578zM436 1589q-78 72 -78 195h131q0 -148 156 -148t156 148h131q0 -127 -76 -197q-75 -69 -211 -69q-132 0 -209 71zM723 1855h-131l-197 267h164z" />
    <glyph glyph-name="Abrv.grave120" unicode="&#x1eb1;" 
d="M1024 823v201h135v-1024h-135v201q-142 -226 -414 -226q-218 0 -374 156q-154 157 -154 381t154 381q156 156 374 156q272 0 414 -226zM621 106q169 0 286 117q117 120 117 289q0 170 -117 287q-116 119 -286 119q-171 0 -287 -119q-117 -117 -117 -287q0 -169 117 -289
q117 -117 287 -117zM412 1223q-78 72 -78 194h131q0 -147 156 -147q155 0 155 147h131q0 -126 -76 -196t-210 -70q-131 0 -209 72zM729 1485h-131l-197 266h164z" />
    <glyph glyph-name="Abrv.hook" unicode="&#x1eb2;" horiz-adv-x="1290" 
d="M1270 0h-152l-133 352h-680l-133 -352h-152l551 1434h148zM645 1255l-289 -768h578zM420 1587q-78 72 -78 195h131q0 -148 156 -148q155 0 155 148h131q0 -128 -75 -197t-211 -69q-132 0 -209 71zM690 1790h-106q0 55 37 82q38 27 43 35q16 16 16 30q0 19 -16 29
q-13 8 -48 8q-64 0 -84 -51l-92 37q25 51 72 72q44 20 106 20q64 0 117 -29q51 -26 51 -81q0 -48 -65 -95q-4 -6 -14 -16q-17 -17 -17 -41z" />
    <glyph glyph-name="Abrv.hook121" unicode="&#x1eb3;" 
d="M1024 823v201h135v-1024h-135v201q-142 -226 -414 -226q-218 0 -374 156q-154 157 -154 381t154 381q156 156 374 156q272 0 414 -226zM621 106q169 0 286 117q117 120 117 289q0 170 -117 287q-116 119 -286 119q-171 0 -287 -119q-117 -117 -117 -287q0 -169 117 -289
q117 -117 287 -117zM412 1223q-78 72 -78 194h131q0 -147 156 -147q155 0 155 147h131q0 -126 -76 -196t-210 -70q-131 0 -209 72zM698 1417h-106q0 72 37 109q35 35 43 47q16 22 16 41q0 24 -16 37q-15 12 -47 12q-63 0 -84 -70l-92 52q24 63 71 94q48 28 107 28
q70 0 116 -38q52 -40 52 -109q0 -61 -66 -127q-12 -18 -14 -20q-17 -24 -17 -56z" />
    <glyph glyph-name="Abrv.tilde" unicode="&#x1eb4;" horiz-adv-x="1290" 
d="M1270 0h-152l-133 352h-680l-133 -352h-152l551 1434h148zM645 1255l-289 -768h578zM436 1589q-78 72 -78 195h131q0 -148 156 -148t156 148h131q0 -127 -76 -197q-75 -69 -211 -69q-132 0 -209 71zM477 1860h-119q0 176 93 223q82 40 196 -45q92 -71 123 -68
q43 3 43 115h119q0 -176 -90 -223q-83 -41 -197 45q-88 64 -123 67q-45 3 -45 -114z" />
    <glyph glyph-name="Abrv.tilde122" unicode="&#x1eb5;" 
d="M1024 823v201h135v-1024h-135v201q-142 -226 -414 -226q-218 0 -374 156q-154 157 -154 381t154 381q156 156 374 156q272 0 414 -226zM621 106q169 0 286 117q117 120 117 289q0 170 -117 287q-116 119 -286 119q-171 0 -287 -119q-117 -117 -117 -287q0 -169 117 -289
q117 -117 287 -117zM412 1223q-78 72 -78 194h131q0 -147 156 -147q155 0 155 147h131q0 -126 -76 -196t-210 -70q-131 0 -209 72zM453 1491h-119q0 176 92 223q83 41 197 -45q91 -70 122 -67q43 3 43 114h119q0 -176 -90 -223q-82 -40 -196 45q-89 65 -123 68
q-45 3 -45 -115z" />
    <glyph glyph-name="Abrv.dotbl" unicode="&#x1eb6;" horiz-adv-x="1290" 
d="M1270 0h-152l-133 352h-680l-133 -352h-152l551 1434h148zM645 1255l-289 -768h578zM436 1632q-78 72 -78 195h131q0 -148 156 -148t156 148h131q0 -127 -76 -197q-75 -69 -211 -69q-132 0 -209 71zM645 -420q-43 0 -72 29q-30 27 -30 72q0 44 30 71q29 29 72 29t72 -29
q28 -28 28 -71q0 -44 -28 -72q-29 -29 -72 -29z" />
    <glyph glyph-name="Abrv.dotbl123" unicode="&#x1eb7;" 
d="M1024 823v201h135v-1024h-135v201q-142 -226 -414 -226q-218 0 -374 156q-154 157 -154 381t154 381q156 156 374 156q272 0 414 -226zM621 106q169 0 286 117q117 120 117 289q0 170 -117 287q-116 119 -286 119q-171 0 -287 -119q-117 -117 -117 -287q0 -169 117 -289
q117 -117 287 -117zM412 1223q-78 72 -78 194h131q0 -147 156 -147q155 0 155 147h131q0 -126 -76 -196t-210 -70q-131 0 -209 72zM621 -420q-43 0 -72 29q-31 28 -31 72q0 43 31 71q29 29 72 29q42 0 71 -29t29 -71q0 -43 -29 -72t-71 -29z" />
    <glyph glyph-name="E.dotbl" unicode="&#x1eb8;" horiz-adv-x="1085" 
d="M307 655v-520h697v-135h-840v1434h829v-136h-686v-507h635v-136h-635zM584 -420q-43 0 -72 29q-31 28 -31 72q0 43 31 71q29 29 72 29q42 0 71 -29t29 -71q0 -43 -29 -72t-71 -29z" />
    <glyph glyph-name="E.dotbl124" unicode="&#x1eb9;" horiz-adv-x="1196" 
d="M983 887q141 -159 141 -379q0 -3 -0.5 -11t-1.5 -23.5t-2 -29.5h-899q21 -154 131 -245q113 -93 277 -93q235 0 329 175l119 -70q-143 -236 -450 -236q-242 0 -394 152q-151 151 -151 385t149 383q151 154 385 154q230 0 367 -162zM348 823q-106 -92 -127 -248h764
q-21 162 -125 252q-111 91 -244 91q-159 0 -268 -95zM604 -420q-43 0 -72 29q-30 27 -30 72q0 44 30 71q29 29 72 29t72 -29t29 -71q0 -43 -29 -72t-72 -29z" />
    <glyph glyph-name="E.hook" unicode="&#x1eba;" horiz-adv-x="1085" 
d="M307 655v-520h697v-135h-840v1434h829v-136h-686v-507h635v-136h-635zM662 1548h-107q0 72 37 109q35 35 43 47q16 22 16 41q0 24 -16 37q-15 12 -47 12q-63 0 -84 -70l-92 52q24 63 71 94q48 28 107 28q71 0 117 -38q51 -39 51 -109q0 -61 -66 -127q-12 -18 -14 -20
q-16 -22 -16 -56z" />
    <glyph glyph-name="E.hook125" unicode="&#x1ebb;" horiz-adv-x="1196" 
d="M983 887q141 -159 141 -379q0 -3 -0.5 -11t-1.5 -23.5t-2 -29.5h-899q21 -154 131 -245q113 -93 277 -93q235 0 329 175l119 -70q-143 -236 -450 -236q-242 0 -394 152q-151 151 -151 385t149 383q151 154 385 154q230 0 367 -162zM348 823q-106 -92 -127 -248h764
q-21 162 -125 252q-111 91 -244 91q-159 0 -268 -95zM680 1139h-107q0 71 37 108q35 35 43 47q17 24 17 41q0 23 -17 37q-15 12 -47 12q-63 0 -84 -69l-92 51q23 63 72 94q50 29 106 29q69 0 117 -39q51 -39 51 -109q0 -62 -65 -127q-10 -15 -15 -20q-16 -22 -16 -55z" />
    <glyph glyph-name="E.tilde" unicode="&#x1ebc;" horiz-adv-x="1085" 
d="M307 655v-520h697v-135h-840v1434h829v-136h-686v-507h635v-136h-635zM416 1597h-119q0 177 92 224q83 41 197 -45q92 -71 123 -68q43 3 43 115h118q0 -177 -90 -224q-81 -40 -196 46q-88 64 -123 67q-45 3 -45 -115z" />
    <glyph glyph-name="E.tilde126" unicode="&#x1ebd;" horiz-adv-x="1196" 
d="M983 887q141 -159 141 -379q0 -3 -0.5 -11t-1.5 -23.5t-2 -29.5h-899q21 -154 131 -245q113 -93 277 -93q235 0 329 175l119 -70q-143 -236 -450 -236q-242 0 -394 152q-151 151 -151 385t149 383q151 154 385 154q230 0 367 -162zM348 823q-106 -92 -127 -248h764
q-21 162 -125 252q-111 91 -244 91q-159 0 -268 -95zM436 1188h-119q0 176 93 223q82 40 196 -45q92 -71 123 -68q43 3 43 115h119q0 -176 -90 -223q-83 -41 -197 45q-89 65 -123 68q-45 3 -45 -115z" />
    <glyph glyph-name="Ecir.acute" unicode="&#x1ebe;" horiz-adv-x="1085" 
d="M307 655v-520h697v-135h-840v1434h829v-136h-686v-507h635v-136h-635zM664 1784l217 -266h-154l-143 178l-144 -178h-153l217 266h160zM811 1661l164 266h164l-197 -266h-131z" />
    <glyph glyph-name="Ecir.acute127" unicode="&#x1ebf;" horiz-adv-x="1196" 
d="M983 887q141 -159 141 -379q0 -3 -0.5 -11t-1.5 -23.5t-2 -29.5h-899q21 -154 131 -245q113 -93 277 -93q235 0 329 175l119 -70q-143 -236 -450 -236q-242 0 -394 152q-151 151 -151 385t149 383q151 154 385 154q230 0 367 -162zM348 823q-106 -92 -127 -248h764
q-21 162 -125 252q-111 91 -244 91q-159 0 -268 -95zM684 1434l217 -267h-153l-144 179l-143 -179h-154l217 267h160zM864 1300l164 267h164l-197 -267h-131z" />
    <glyph glyph-name="Ecir.grave" unicode="&#x1ec0;" horiz-adv-x="1085" 
d="M307 655v-520h697v-135h-840v1434h829v-136h-686v-507h635v-136h-635zM664 1784l217 -266h-154l-143 178l-144 -178h-153l217 266h160zM985 1722h-131l-197 267h164z" />
    <glyph glyph-name="Ecir.grave128" unicode="&#x1ec1;" horiz-adv-x="1196" 
d="M983 887q141 -159 141 -379q0 -3 -0.5 -11t-1.5 -23.5t-2 -29.5h-899q21 -154 131 -245q113 -93 277 -93q235 0 329 175l119 -70q-143 -236 -450 -236q-242 0 -394 152q-151 151 -151 385t149 383q151 154 385 154q230 0 367 -162zM348 823q-106 -92 -127 -248h764
q-21 162 -125 252q-111 91 -244 91q-159 0 -268 -95zM684 1434l217 -267h-153l-144 179l-143 -179h-154l217 267h160zM1012 1364h-131l-197 266h164z" />
    <glyph glyph-name="Ecir.hook" unicode="&#x1ec2;" horiz-adv-x="1085" 
d="M307 655v-520h697v-135h-840v1434h829v-136h-686v-507h635v-136h-635zM659 1784l218 -266h-154l-143 178l-144 -178h-153l217 266h159zM938 1696h-107q0 71 37 108q35 35 43 47q17 24 17 41q0 23 -17 37q-16 13 -47 13q-63 0 -84 -70l-92 51q23 63 72 94q50 29 106 29
q69 0 117 -39q51 -39 51 -109q0 -61 -65 -126q-12 -18 -15 -21q-16 -22 -16 -55z" />
    <glyph glyph-name="Ecir.hook129" unicode="&#x1ec3;" horiz-adv-x="1196" 
d="M983 887q141 -159 141 -379q0 -3 -0.5 -11t-1.5 -23.5t-2 -29.5h-899q21 -154 131 -245q113 -93 277 -93q235 0 329 175l119 -70q-143 -236 -450 -236q-242 0 -394 152q-151 151 -151 385t149 383q151 154 385 154q230 0 367 -162zM348 823q-106 -92 -127 -248h764
q-21 162 -125 252q-111 91 -244 91q-159 0 -268 -95zM684 1434l217 -267h-153l-144 179l-143 -179h-154l217 267h160zM958 1300h-106q0 72 37 109q35 35 43 47q16 22 16 41q0 24 -16 37q-15 12 -47 12q-63 0 -84 -69l-92 51q24 63 71 94q50 29 107 29q69 0 117 -39
q51 -39 51 -109q0 -61 -66 -127q-12 -18 -14 -20q-17 -24 -17 -56z" />
    <glyph glyph-name="Ecir.tilde" unicode="&#x1ec4;" horiz-adv-x="1085" 
d="M307 655v-520h697v-135h-840v1434h829v-136h-686v-507h635v-136h-635zM664 1784l217 -266h-154l-143 178l-144 -178h-153l217 266h160zM453 1853h-119q0 177 92 224q83 41 197 -45q92 -71 122 -68q43 3 43 115h119q0 -177 -90 -224q-81 -40 -196 46q-88 64 -123 67
q-45 3 -45 -115z" />
    <glyph glyph-name="Ecir.tilde130" unicode="&#x1ec5;" horiz-adv-x="1196" 
d="M983 887q141 -159 141 -379q0 -3 -0.5 -11t-1.5 -23.5t-2 -29.5h-899q21 -154 131 -245q113 -93 277 -93q235 0 329 175l119 -70q-143 -236 -450 -236q-242 0 -394 152q-151 151 -151 385t149 383q151 154 385 154q230 0 367 -162zM348 823q-106 -92 -127 -248h764
q-21 162 -125 252q-111 91 -244 91q-159 0 -268 -95zM684 1434l217 -267h-153l-144 179l-143 -179h-154l217 267h160zM436 1507h-119q0 177 93 224q82 40 196 -45q92 -71 123 -68q43 3 43 115h119q0 -177 -90 -224q-83 -41 -197 45q-89 65 -123 68q-45 3 -45 -115z" />
    <glyph glyph-name="Ecir.dotbl" unicode="&#x1ec6;" horiz-adv-x="1085" 
d="M307 655v-520h697v-135h-840v1434h829v-136h-686v-507h635v-136h-635zM664 1843l217 -266h-154l-143 178l-144 -178h-153l217 266h160zM584 -420q-43 0 -72 29q-31 28 -31 72q0 43 31 71q29 29 72 29q42 0 71 -29t29 -71q0 -43 -29 -72t-71 -29z" />
    <glyph glyph-name="Ecir.dotbl131" unicode="&#x1ec7;" horiz-adv-x="1196" 
d="M983 887q141 -159 141 -379q0 -3 -0.5 -11t-1.5 -23.5t-2 -29.5h-899q21 -154 131 -245q113 -93 277 -93q235 0 329 175l119 -70q-143 -236 -450 -236q-242 0 -394 152q-151 151 -151 385t149 383q151 154 385 154q230 0 367 -162zM348 823q-106 -92 -127 -248h764
q-21 162 -125 252q-111 91 -244 91q-159 0 -268 -95zM684 1434l217 -267h-153l-144 179l-143 -179h-154l217 267h160zM604 -420q-43 0 -72 29q-30 27 -30 72q0 44 30 71q29 29 72 29t72 -29t29 -71q0 -43 -29 -72t-72 -29z" />
    <glyph glyph-name="I.hook" unicode="&#x1ec8;" horiz-adv-x="471" 
d="M164 0v1434h143v-1434h-143zM313 1548h-106q0 72 37 109q35 35 43 47q16 22 16 41q0 24 -16 37q-15 12 -47 12q-63 0 -84 -70l-93 52q23 63 72 94q48 28 107 28q70 0 116 -38q52 -40 52 -109q0 -61 -66 -127q-12 -18 -14 -20q-17 -24 -17 -56z" />
    <glyph glyph-name="I.hook132" unicode="&#x1ec9;" horiz-adv-x="421" 
d="M279 0h-136v1024h136v-1024zM289 1139h-107q0 71 37 108q35 35 43 47q17 24 17 41q0 23 -17 37q-15 12 -47 12q-63 0 -84 -69l-92 51q23 63 72 94q50 29 106 29q69 0 117 -39q51 -39 51 -109q0 -61 -66 -127q-12 -18 -14 -20q-16 -22 -16 -55z" />
    <glyph glyph-name="I.dotbl" unicode="&#x1eca;" horiz-adv-x="471" 
d="M164 0v1434h143v-1434h-143zM236 -420q-43 0 -72 29q-31 28 -31 72q0 43 31 71q29 29 72 29q42 0 71 -29t29 -71q0 -43 -29 -72t-71 -29z" />
    <glyph glyph-name="I.dotbl133" unicode="&#x1ecb;" horiz-adv-x="421" 
d="M211 1241q-41 0 -70 29q-28 28 -28 69q0 42 28 70q29 29 70 29t70 -29q28 -28 28 -70q0 -41 -28 -69q-29 -29 -70 -29zM279 0h-136v1024h136v-1024zM211 -420q-43 0 -72 29q-30 27 -30 72q0 44 30 71q29 29 72 29t72 -29q28 -28 28 -71q0 -44 -28 -72q-29 -29 -72 -29z
" />
    <glyph glyph-name="O.dotbl" unicode="&#x1ecc;" horiz-adv-x="1646" 
d="M823 -25q-311 0 -526 215q-215 218 -215 527t215 524q214 217 526 217q313 0 527 -217q215 -215 215 -524t-215 -527q-215 -215 -527 -215zM823 115q255 0 426 174q172 175 172 428q0 251 -172 426q-173 176 -426 176t-426 -176q-172 -175 -172 -426q0 -253 172 -428
q171 -174 426 -174zM823 -420q-42 0 -71 29q-31 28 -31 72q0 43 31 71q29 29 71 29q43 0 72 -29t29 -71q0 -43 -29 -72t-72 -29z" />
    <glyph glyph-name="O.dotbl134" unicode="&#x1ecd;" horiz-adv-x="1241" 
d="M621 -25q-226 0 -383 154q-156 156 -156 383q0 228 156 381q156 156 383 156q224 0 380 -156q158 -155 158 -381q0 -225 -158 -383q-157 -154 -380 -154zM621 106q169 0 286 117q117 120 117 289q0 170 -117 287q-116 119 -286 119q-171 0 -287 -119q-117 -117 -117 -287
q0 -169 117 -289q117 -117 287 -117zM621 -420q-43 0 -72 29q-31 28 -31 72q0 43 31 71q29 29 72 29q42 0 71 -29t29 -71q0 -43 -29 -72t-71 -29z" />
    <glyph glyph-name="O.hook" unicode="&#x1ece;" horiz-adv-x="1646" 
d="M823 -25q-311 0 -526 215q-215 218 -215 527t215 524q214 217 526 217q313 0 527 -217q215 -215 215 -524t-215 -527q-215 -215 -527 -215zM823 115q255 0 426 174q172 175 172 428q0 251 -172 426q-173 176 -426 176t-426 -176q-172 -175 -172 -426q0 -253 172 -428
q171 -174 426 -174zM901 1548h-106q0 73 36 109q35 35 43 47q17 24 17 41q0 23 -17 37q-15 12 -47 12q-63 0 -84 -70l-92 52q23 63 72 94q48 28 106 28q71 0 117 -38q51 -39 51 -109q0 -62 -65 -127q-12 -18 -14 -20q-17 -24 -17 -56z" />
    <glyph glyph-name="O.hook136" unicode="&#x1ecf;" horiz-adv-x="1241" 
d="M621 -25q-226 0 -383 154q-156 156 -156 383q0 228 156 381q156 156 383 156q224 0 380 -156q158 -155 158 -381q0 -225 -158 -383q-157 -154 -380 -154zM621 106q169 0 286 117q117 120 117 289q0 170 -117 287q-116 119 -286 119q-171 0 -287 -119q-117 -117 -117 -287
q0 -169 117 -289q117 -117 287 -117zM696 1139h-106q0 71 37 108q35 35 43 47q16 22 16 41q0 24 -16 37q-15 12 -47 12q-63 0 -84 -69l-93 51q23 63 72 94q50 29 107 29q68 0 116 -39q52 -40 52 -109q0 -61 -66 -127q-12 -18 -14 -20q-17 -24 -17 -55z" />
    <glyph glyph-name="Ocir.acute" unicode="&#x1ed0;" horiz-adv-x="1646" 
d="M823 -25q-311 0 -526 215q-215 218 -215 527t215 524q214 217 526 217q313 0 527 -217q215 -215 215 -524t-215 -527q-215 -215 -527 -215zM823 115q255 0 426 174q172 175 172 428q0 251 -172 426q-173 176 -426 176t-426 -176q-172 -175 -172 -426q0 -253 172 -428
q171 -174 426 -174zM903 1784l217 -266h-153l-144 178l-143 -178h-154l217 266h160zM1051 1661l163 266h164l-196 -266h-131z" />
    <glyph glyph-name="Ocir.acute137" unicode="&#x1ed1;" horiz-adv-x="1241" 
d="M621 -25q-226 0 -383 154q-156 156 -156 383q0 228 156 381q156 156 383 156q224 0 380 -156q158 -155 158 -381q0 -225 -158 -383q-157 -154 -380 -154zM621 106q169 0 286 117q117 120 117 289q0 170 -117 287q-116 119 -286 119q-171 0 -287 -119q-117 -117 -117 -287
q0 -169 117 -289q117 -117 287 -117zM700 1434l218 -267h-154l-143 179l-144 -179h-153l217 267h159zM891 1300l164 267h164l-197 -267h-131z" />
    <glyph glyph-name="Ocir.grave" unicode="&#x1ed2;" horiz-adv-x="1646" 
d="M823 -25q-311 0 -526 215q-215 218 -215 527t215 524q214 217 526 217q313 0 527 -217q215 -215 215 -524t-215 -527q-215 -215 -527 -215zM823 115q255 0 426 174q172 175 172 428q0 251 -172 426q-173 176 -426 176t-426 -176q-172 -175 -172 -426q0 -253 172 -428
q171 -174 426 -174zM903 1784l217 -266h-153l-144 178l-143 -178h-154l217 266h160zM1225 1722h-131l-197 267h164z" />
    <glyph glyph-name="Ocir.grave138" unicode="&#x1ed3;" horiz-adv-x="1241" 
d="M621 -25q-226 0 -383 154q-156 156 -156 383q0 228 156 381q156 156 383 156q224 0 380 -156q158 -155 158 -381q0 -225 -158 -383q-157 -154 -380 -154zM621 106q169 0 286 117q117 120 117 289q0 170 -117 287q-116 119 -286 119q-171 0 -287 -119q-117 -117 -117 -287
q0 -169 117 -289q117 -117 287 -117zM700 1434l218 -267h-154l-143 179l-144 -179h-153l217 267h159zM1001 1405h-131l-196 266h164z" />
    <glyph glyph-name="Ocir.hook" unicode="&#x1ed4;" horiz-adv-x="1646" 
d="M823 -25q-311 0 -526 215q-215 218 -215 527t215 524q214 217 526 217q313 0 527 -217q215 -215 215 -524t-215 -527q-215 -215 -527 -215zM823 115q255 0 426 174q172 175 172 428q0 251 -172 426q-173 176 -426 176t-426 -176q-172 -175 -172 -426q0 -253 172 -428
q171 -174 426 -174zM899 1784l217 -266h-153l-144 178l-143 -178h-154l217 266h160zM1178 1696h-107q0 71 37 108q35 35 43 47q16 22 16 41q0 24 -16 37t-47 13q-63 0 -84 -70l-92 51q24 63 71 94q50 29 107 29q69 0 117 -39q51 -39 51 -109q0 -60 -66 -126q-1 -2 -3.5 -6.5
t-5 -8t-5.5 -6.5q-16 -22 -16 -55z" />
    <glyph glyph-name="Ocir.hook139" unicode="&#x1ed5;" horiz-adv-x="1241" 
d="M621 -25q-226 0 -383 154q-156 156 -156 383q0 228 156 381q156 156 383 156q224 0 380 -156q158 -155 158 -381q0 -225 -158 -383q-157 -154 -380 -154zM621 106q169 0 286 117q117 120 117 289q0 170 -117 287q-116 119 -286 119q-171 0 -287 -119q-117 -117 -117 -287
q0 -169 117 -289q117 -117 287 -117zM700 1434l218 -267h-154l-143 179l-144 -179h-153l217 267h159zM979 1300h-107q0 72 37 109q35 35 43 47q17 24 17 41q0 23 -17 37q-15 12 -47 12q-63 0 -84 -69l-92 51q23 63 72 94q50 29 106 29q69 0 117 -39q51 -39 51 -109
q0 -62 -65 -127q-10 -15 -15 -20q-16 -22 -16 -56z" />
    <glyph glyph-name="Ocir.tilde" unicode="&#x1ed6;" horiz-adv-x="1646" 
d="M823 -25q-311 0 -526 215q-215 218 -215 527t215 524q214 217 526 217q313 0 527 -217q215 -215 215 -524t-215 -527q-215 -215 -527 -215zM823 115q255 0 426 174q172 175 172 428q0 251 -172 426q-173 176 -426 176t-426 -176q-172 -175 -172 -426q0 -253 172 -428
q171 -174 426 -174zM903 1784l217 -266h-153l-144 178l-143 -178h-154l217 266h160zM692 1853h-119q0 177 93 224q82 40 196 -45q92 -71 123 -68q43 3 43 115h119q0 -177 -90 -224q-82 -40 -197 46q-88 64 -123 67q-45 3 -45 -115z" />
    <glyph glyph-name="Ocir.tilde140" unicode="&#x1ed7;" horiz-adv-x="1241" 
d="M621 -25q-226 0 -383 154q-156 156 -156 383q0 228 156 381q156 156 383 156q224 0 380 -156q158 -155 158 -381q0 -225 -158 -383q-157 -154 -380 -154zM621 106q169 0 286 117q117 120 117 289q0 170 -117 287q-116 119 -286 119q-171 0 -287 -119q-117 -117 -117 -287
q0 -169 117 -289q117 -117 287 -117zM700 1434l218 -267h-154l-143 179l-144 -179h-153l217 267h159zM453 1507h-119q0 177 92 224q83 41 197 -45q92 -71 122 -68q43 3 43 115h119q0 -177 -90 -224q-82 -40 -196 45q-89 65 -123 68q-45 3 -45 -115z" />
    <glyph glyph-name="Ocir.dotbl" unicode="&#x1ed8;" horiz-adv-x="1646" 
d="M823 -25q-311 0 -526 215q-215 218 -215 527t215 524q214 217 526 217q313 0 527 -217q215 -215 215 -524t-215 -527q-215 -215 -527 -215zM823 115q255 0 426 174q172 175 172 428q0 251 -172 426q-173 176 -426 176t-426 -176q-172 -175 -172 -426q0 -253 172 -428
q171 -174 426 -174zM903 1843l217 -266h-153l-144 178l-143 -178h-154l217 266h160zM823 -420q-42 0 -71 29q-31 28 -31 72q0 43 31 71q29 29 71 29q43 0 72 -29t29 -71q0 -43 -29 -72t-72 -29z" />
    <glyph glyph-name="Ocir.dotbl142" unicode="&#x1ed9;" horiz-adv-x="1241" 
d="M621 -25q-226 0 -383 154q-156 156 -156 383q0 228 156 381q156 156 383 156q224 0 380 -156q158 -155 158 -381q0 -225 -158 -383q-157 -154 -380 -154zM621 106q169 0 286 117q117 120 117 289q0 170 -117 287q-116 119 -286 119q-171 0 -287 -119q-117 -117 -117 -287
q0 -169 117 -289q117 -117 287 -117zM700 1434l218 -267h-154l-143 179l-144 -179h-153l217 267h159zM621 -420q-43 0 -72 29q-31 28 -31 72q0 43 31 71q29 29 72 29q42 0 71 -29t29 -71q0 -43 -29 -72t-71 -29z" />
    <glyph glyph-name="Ohorn.acute" unicode="&#x1eda;" horiz-adv-x="1646" 
d="M823 115q255 0 426 174q172 175 172 428q0 251 -172 426q-173 176 -426 176t-426 -176q-172 -175 -172 -426q0 -253 172 -428q171 -174 426 -174zM1202 1358q79 -48 148 -117q215 -215 215 -524t-215 -527q-215 -215 -527 -215q-311 0 -526 215q-215 218 -215 527
t215 524q214 217 526 217q107 0 213 -28q69 3 117 45q47 47 47 118h127q0 -122 -88 -204q-6 -5 -18.5 -15.5t-18.5 -15.5zM715 1577l164 266h163l-196 -266h-131z" />
    <glyph glyph-name="Ohorn.acute143" unicode="&#x1edb;" horiz-adv-x="1241" 
d="M621 106q169 0 286 117q117 120 117 289q0 170 -117 287q-116 119 -286 119q-171 0 -287 -119q-117 -117 -117 -287q0 -169 117 -289q117 -117 287 -117zM944 944q27 -21 57 -51q158 -155 158 -381q0 -225 -158 -383q-157 -154 -380 -154q-226 0 -383 154
q-156 156 -156 383q0 228 156 381q156 156 383 156q87 0 167 -25q74 3 119 45q47 47 47 119h127q0 -123 -88 -205q-27 -27 -49 -39zM459 1167l164 267h163l-196 -267h-131z" />
    <glyph glyph-name="Ohorn.grave" unicode="&#x1edc;" horiz-adv-x="1646" 
d="M823 115q255 0 426 174q172 175 172 428q0 251 -172 426q-173 176 -426 176t-426 -176q-172 -175 -172 -426q0 -253 172 -428q171 -174 426 -174zM1202 1358q79 -48 148 -117q215 -215 215 -524t-215 -527q-215 -215 -527 -215q-311 0 -526 215q-215 218 -215 527
t215 524q214 217 526 217q107 0 213 -28q69 3 117 45q47 47 47 118h127q0 -122 -88 -204q-6 -5 -18.5 -15.5t-18.5 -15.5zM932 1577h-131l-197 266h164z" />
    <glyph glyph-name="Ohorn.grave141" unicode="&#x1edd;" horiz-adv-x="1241" 
d="M621 106q169 0 286 117q117 120 117 289q0 170 -117 287q-116 119 -286 119q-171 0 -287 -119q-117 -117 -117 -287q0 -169 117 -289q117 -117 287 -117zM944 944q27 -21 57 -51q158 -155 158 -381q0 -225 -158 -383q-157 -154 -380 -154q-226 0 -383 154
q-156 156 -156 383q0 228 156 381q156 156 383 156q87 0 167 -25q74 3 119 45q47 47 47 119h127q0 -123 -88 -205q-27 -27 -49 -39zM723 1167h-131l-197 267h164z" />
    <glyph glyph-name="Ohorn.hook" unicode="&#x1ede;" horiz-adv-x="1646" 
d="M823 115q255 0 426 174q172 175 172 428q0 251 -172 426q-173 176 -426 176t-426 -176q-172 -175 -172 -426q0 -253 172 -428q171 -174 426 -174zM1202 1358q79 -48 148 -117q215 -215 215 -524t-215 -527q-215 -215 -527 -215q-311 0 -526 215q-215 218 -215 527
t215 524q214 217 526 217q107 0 213 -28q69 3 117 45q47 47 47 118h127q0 -122 -88 -204q-6 -5 -18.5 -15.5t-18.5 -15.5zM901 1548h-106q0 73 36 109q35 35 43 47q17 24 17 41q0 23 -17 37q-15 12 -47 12q-63 0 -84 -70l-92 52q23 63 72 94q48 28 106 28q71 0 117 -38
q51 -39 51 -109q0 -62 -65 -127q-12 -18 -14 -20q-17 -24 -17 -56z" />
    <glyph glyph-name="Ohorn.hook144" unicode="&#x1edf;" horiz-adv-x="1241" 
d="M621 106q169 0 286 117q117 120 117 289q0 170 -117 287q-116 119 -286 119q-171 0 -287 -119q-117 -117 -117 -287q0 -169 117 -289q117 -117 287 -117zM944 944q27 -21 57 -51q158 -155 158 -381q0 -225 -158 -383q-157 -154 -380 -154q-226 0 -383 154
q-156 156 -156 383q0 228 156 381q156 156 383 156q87 0 167 -25q74 3 119 45q47 47 47 119h127q0 -123 -88 -205q-27 -27 -49 -39zM664 1139h-107q0 71 37 108q35 35 43 47q16 22 16 41q0 24 -16 37q-15 12 -47 12q-63 0 -84 -69l-92 51q24 63 71 94q50 29 107 29
q69 0 117 -39q51 -39 51 -109q0 -61 -66 -127q-12 -18 -14 -20q-16 -22 -16 -55z" />
    <glyph glyph-name="Ohorn.tilde" unicode="&#x1ee0;" horiz-adv-x="1646" 
d="M823 115q255 0 426 174q172 175 172 428q0 251 -172 426q-173 176 -426 176t-426 -176q-172 -175 -172 -426q0 -253 172 -428q171 -174 426 -174zM1202 1358q79 -48 148 -117q215 -215 215 -524t-215 -527q-215 -215 -527 -215q-311 0 -526 215q-215 218 -215 527
t215 524q214 217 526 217q107 0 213 -28q69 3 117 45q47 47 47 118h127q0 -122 -88 -204q-6 -5 -18.5 -15.5t-18.5 -15.5zM655 1597h-118q0 177 92 224q82 40 196 -45q92 -71 123 -68q43 3 43 115h119q0 -177 -90 -224q-82 -40 -197 46q-88 64 -123 67q-45 3 -45 -115z" />
    <glyph glyph-name="Ohorn.tilde145" unicode="&#x1ee1;" horiz-adv-x="1241" 
d="M621 106q169 0 286 117q117 120 117 289q0 170 -117 287q-116 119 -286 119q-171 0 -287 -119q-117 -117 -117 -287q0 -169 117 -289q117 -117 287 -117zM944 944q27 -21 57 -51q158 -155 158 -381q0 -225 -158 -383q-157 -154 -380 -154q-226 0 -383 154
q-156 156 -156 383q0 228 156 381q156 156 383 156q87 0 167 -25q74 3 119 45q47 47 47 119h127q0 -123 -88 -205q-27 -27 -49 -39zM377 1188h-119q0 176 92 223q83 41 197 -45q92 -71 123 -68q43 3 43 115h118q0 -176 -90 -223q-82 -40 -196 45q-89 65 -123 68
q-45 3 -45 -115z" />
    <glyph glyph-name="Ohorn.dotbl" unicode="&#x1ee2;" horiz-adv-x="1646" 
d="M823 115q255 0 426 174q172 175 172 428q0 251 -172 426q-173 176 -426 176t-426 -176q-172 -175 -172 -426q0 -253 172 -428q171 -174 426 -174zM1202 1358q79 -48 148 -117q215 -215 215 -524t-215 -527q-215 -215 -527 -215q-311 0 -526 215q-215 218 -215 527
t215 524q214 217 526 217q107 0 213 -28q69 3 117 45q47 47 47 118h127q0 -122 -88 -204q-6 -5 -18.5 -15.5t-18.5 -15.5zM823 -420q-42 0 -71 29q-31 28 -31 72q0 43 31 71q29 29 71 29q43 0 72 -29t29 -71q0 -43 -29 -72t-72 -29z" />
    <glyph glyph-name="Ohorn.dotbl146" unicode="&#x1ee3;" horiz-adv-x="1241" 
d="M621 106q169 0 286 117q117 120 117 289q0 170 -117 287q-116 119 -286 119q-171 0 -287 -119q-117 -117 -117 -287q0 -169 117 -289q117 -117 287 -117zM944 944q27 -21 57 -51q158 -155 158 -381q0 -225 -158 -383q-157 -154 -380 -154q-226 0 -383 154
q-156 156 -156 383q0 228 156 381q156 156 383 156q87 0 167 -25q74 3 119 45q47 47 47 119h127q0 -123 -88 -205q-27 -27 -49 -39zM545 -420q-43 0 -72 29q-31 28 -31 72q0 43 31 71q29 29 72 29q42 0 71 -29t29 -71q0 -43 -29 -72t-71 -29z" />
    <glyph glyph-name="U.dotbl" unicode="&#x1ee4;" horiz-adv-x="1351" 
d="M143 487v947h144v-947q0 -173 102 -272q103 -100 287 -100t287 100q102 99 102 272v947h143v-947q0 -234 -147 -372q-152 -140 -385 -140t-385 140q-148 139 -148 372zM676 -420q-43 0 -72 29q-31 28 -31 72q0 43 31 71q29 29 72 29t72 -29q28 -28 28 -71q0 -44 -28 -72
q-29 -29 -72 -29z" />
    <glyph glyph-name="U.dotbl147" unicode="&#x1ee5;" horiz-adv-x="1142" 
d="M864 487v537h135v-1024h-135v160q-114 -185 -344 -185q-184 0 -293 115q-108 114 -108 305v629h135v-629q0 -135 72 -213q73 -76 206 -76q153 0 240 93q92 103 92 288zM559 -420q-43 0 -72 29q-30 27 -30 72q0 44 30 71q29 29 72 29t72 -29q28 -28 28 -71q0 -44 -28 -72
q-29 -29 -72 -29z" />
    <glyph glyph-name="U.hook" unicode="&#x1ee6;" horiz-adv-x="1351" 
d="M143 487v947h144v-947q0 -173 102 -272q103 -100 287 -100t287 100q102 99 102 272v947h143v-947q0 -234 -147 -372q-152 -140 -385 -140t-385 140q-148 139 -148 372zM754 1548h-107q0 72 37 109q35 35 43 47q16 22 16 41q0 24 -16 37q-15 12 -47 12q-63 0 -84 -70
l-92 52q24 63 71 94q48 28 107 28q71 0 117 -38q51 -39 51 -109q0 -61 -66 -127q-12 -18 -14 -20q-16 -22 -16 -56z" />
    <glyph glyph-name="U.hook150" unicode="&#x1ee7;" horiz-adv-x="1142" 
d="M864 487v537h135v-1024h-135v160q-114 -185 -344 -185q-184 0 -293 115q-108 114 -108 305v629h135v-629q0 -135 72 -213q73 -76 206 -76q153 0 240 93q92 103 92 288zM637 1139h-107q0 71 37 108q35 35 43 47q17 24 17 41q0 23 -17 37q-15 12 -47 12q-63 0 -84 -69
l-92 51q23 63 72 94q50 29 106 29q69 0 117 -39q51 -39 51 -109q0 -62 -65 -127q-10 -15 -15 -20q-16 -22 -16 -55z" />
    <glyph glyph-name="Uhorn.acute" unicode="&#x1ee8;" horiz-adv-x="1351" 
d="M1208 1321v-834q0 -234 -147 -372q-152 -140 -385 -140t-385 140q-148 139 -148 372v947h144v-947q0 -173 102 -272q103 -100 287 -100t287 100q102 99 102 272v947h86q47 8 84 41q47 47 47 118h127q0 -122 -88 -204q-51 -48 -113 -68zM668 1577l163 266h164l-196 -266
h-131z" />
    <glyph glyph-name="Uhorn.acute151" unicode="&#x1ee9;" horiz-adv-x="1142" 
d="M999 911v-911h-135v160q-114 -185 -344 -185q-184 0 -293 115q-108 114 -108 305v629h135v-629q0 -135 72 -213q73 -76 206 -76q153 0 240 93q92 103 92 288v537h47q81 0 129 45q47 47 47 119h127q0 -123 -88 -205q-54 -54 -127 -72zM545 1167l164 267h163l-196 -267
h-131z" />
    <glyph glyph-name="Uhorn.grave" unicode="&#x1eea;" horiz-adv-x="1351" 
d="M1208 1321v-834q0 -234 -147 -372q-152 -140 -385 -140t-385 140q-148 139 -148 372v947h144v-947q0 -173 102 -272q103 -100 287 -100t287 100q102 99 102 272v947h86q47 8 84 41q47 47 47 118h127q0 -122 -88 -204q-51 -48 -113 -68zM885 1577h-131l-197 266h164z" />
    <glyph glyph-name="Uhorn.grave152" unicode="&#x1eeb;" horiz-adv-x="1142" 
d="M999 911v-911h-135v160q-114 -185 -344 -185q-184 0 -293 115q-108 114 -108 305v629h135v-629q0 -135 72 -213q73 -76 206 -76q153 0 240 93q92 103 92 288v537h47q81 0 129 45q47 47 47 119h127q0 -123 -88 -205q-54 -54 -127 -72zM717 1167h-131l-197 267h164z" />
    <glyph glyph-name="Uhorn.hook" unicode="&#x1eec;" horiz-adv-x="1351" 
d="M1208 1321v-834q0 -234 -147 -372q-152 -140 -385 -140t-385 140q-148 139 -148 372v947h144v-947q0 -173 102 -272q103 -100 287 -100t287 100q102 99 102 272v947h86q47 8 84 41q47 47 47 118h127q0 -122 -88 -204q-51 -48 -113 -68zM854 1548h-106q0 73 36 109
q35 35 43 47q17 24 17 41q0 23 -17 37q-15 12 -47 12q-63 0 -84 -70l-92 52q23 63 72 94q48 28 106 28q71 0 117 -38q51 -39 51 -109q0 -62 -65 -127q-10 -15 -15 -20q-16 -22 -16 -56z" />
    <glyph glyph-name="Uhorn.hook153" unicode="&#x1eed;" horiz-adv-x="1142" 
d="M999 911v-911h-135v160q-114 -185 -344 -185q-184 0 -293 115q-108 114 -108 305v629h135v-629q0 -135 72 -213q73 -76 206 -76q153 0 240 93q92 103 92 288v537h47q81 0 129 45q47 47 47 119h127q0 -123 -88 -205q-54 -54 -127 -72zM643 1139h-106q0 72 36 108
q35 35 43 47q17 24 17 41q0 23 -17 37q-15 12 -47 12q-63 0 -84 -69l-92 51q23 63 72 94q50 29 106 29q69 0 117 -39q51 -39 51 -109q0 -62 -65 -127q-10 -15 -15 -20q-16 -22 -16 -55z" />
    <glyph glyph-name="Uhorn.tilde" unicode="&#x1eee;" horiz-adv-x="1351" 
d="M1208 1321v-834q0 -234 -147 -372q-152 -140 -385 -140t-385 140q-148 139 -148 372v947h144v-947q0 -173 102 -272q103 -100 287 -100t287 100q102 99 102 272v947h86q47 8 84 41q47 47 47 118h127q0 -122 -88 -204q-51 -48 -113 -68zM608 1597h-119q0 177 93 224
q82 40 196 -45q92 -71 123 -68q43 3 43 115h119q0 -177 -90 -224q-82 -40 -197 46q-88 64 -123 67q-45 3 -45 -115z" />
    <glyph glyph-name="Uhorn.tilde154" unicode="&#x1eef;" horiz-adv-x="1142" 
d="M999 911v-911h-135v160q-114 -185 -344 -185q-184 0 -293 115q-108 114 -108 305v629h135v-629q0 -135 72 -213q73 -76 206 -76q153 0 240 93q92 103 92 288v537h47q81 0 129 45q47 47 47 119h127q0 -123 -88 -205q-54 -54 -127 -72zM377 1188h-119q0 176 92 223
q83 41 197 -45q92 -71 123 -68q43 3 43 115h118q0 -176 -90 -223q-82 -40 -196 45q-89 65 -123 68q-45 3 -45 -115z" />
    <glyph glyph-name="Uhorn.dotbl" unicode="&#x1ef0;" horiz-adv-x="1351" 
d="M1208 1321v-834q0 -234 -147 -372q-152 -140 -385 -140t-385 140q-148 139 -148 372v947h144v-947q0 -173 102 -272q103 -100 287 -100t287 100q102 99 102 272v947h86q47 8 84 41q47 47 47 118h127q0 -122 -88 -204q-51 -48 -113 -68zM776 -420q-42 0 -71 29
q-31 28 -31 72q0 43 31 71q29 29 71 29q43 0 72 -29t29 -71q0 -43 -29 -72t-72 -29z" />
    <glyph glyph-name="Uhorn.dotbl155" unicode="&#x1ef1;" horiz-adv-x="1142" 
d="M999 911v-911h-135v160q-114 -185 -344 -185q-184 0 -293 115q-108 114 -108 305v629h135v-629q0 -135 72 -213q73 -76 206 -76q153 0 240 93q92 103 92 288v537h47q81 0 129 45q47 47 47 119h127q0 -123 -88 -205q-54 -54 -127 -72zM633 -420q-43 0 -72 29
q-31 28 -31 72q0 43 31 71q29 29 72 29t72 -29q28 -28 28 -71q0 -44 -28 -72q-29 -29 -72 -29z" />
    <glyph glyph-name="Ygrave" unicode="&#x1ef2;" horiz-adv-x="1218" 
d="M561 1843l164 -266h-131l-197 266h164zM1036 1434h162l-518 -846v-588h-143v592l-517 842h162l428 -703z" />
    <glyph glyph-name="Ygrave111" unicode="&#x1ef3;" horiz-adv-x="1044" 
d="M477 1434l164 -267h-131l-197 267h164zM549 166l332 858h143l-438 -1118q-62 -158 -170 -240q-110 -85 -244 -76v127q188 -21 281 213l26 64l-459 1030h144z" />
    <glyph glyph-name="Y.dotbl" unicode="&#x1ef4;" horiz-adv-x="1218" 
d="M1036 1434h162l-518 -846v-588h-143v592l-517 842h162l428 -703zM610 -420q-42 0 -71 29q-31 28 -31 72q0 43 31 71q29 29 71 29q43 0 72 -29t29 -71q0 -43 -29 -72t-72 -29z" />
    <glyph glyph-name="Y.dotbl156" unicode="&#x1ef5;" horiz-adv-x="1044" 
d="M549 166l332 858h143l-438 -1118q-62 -158 -170 -240q-110 -85 -244 -76v127q188 -21 281 213l26 64l-459 1030h144zM723 -420q-43 0 -72 29q-30 27 -30 72q0 44 30 71q29 29 72 29t72 -29q28 -28 28 -71q0 -44 -28 -72q-29 -29 -72 -29z" />
    <glyph glyph-name="Y.hook" unicode="&#x1ef6;" horiz-adv-x="1218" 
d="M1036 1434h162l-518 -846v-588h-143v592l-517 842h162l428 -703zM686 1548h-106q0 73 36 109q35 35 43 47q17 24 17 41q0 23 -17 37q-15 12 -47 12q-63 0 -84 -70l-92 52q23 63 72 94q48 28 106 28q71 0 117 -38q51 -39 51 -109q0 -62 -65 -127q-10 -15 -15 -20
q-16 -22 -16 -56z" />
    <glyph glyph-name="Y.hook157" unicode="&#x1ef7;" horiz-adv-x="1044" 
d="M549 166l332 858h143l-438 -1118q-62 -158 -170 -240q-110 -85 -244 -76v127q188 -21 281 213l26 64l-459 1030h144zM600 1139h-106q0 72 36 108q35 35 43 47q17 24 17 41q0 23 -17 37q-15 12 -47 12q-63 0 -84 -69l-92 51q23 63 72 94q50 29 106 29q69 0 117 -39
q51 -39 51 -109q0 -62 -65 -127q-10 -15 -15 -20q-16 -22 -16 -55z" />
    <glyph glyph-name="Ytilde" unicode="&#x1ef8;" horiz-adv-x="1218" 
d="M1036 1434h162l-518 -846v-588h-143v592l-517 842h162l428 -703zM442 1597h-118q0 177 92 224q82 40 196 -45q92 -71 123 -68q43 3 43 115h119q0 -177 -90 -224q-82 -40 -197 46q-88 64 -123 67q-45 3 -45 -115z" />
    <glyph glyph-name="Ytilde158" unicode="&#x1ef9;" horiz-adv-x="1044" 
d="M549 166l332 858h143l-438 -1118q-62 -158 -170 -240q-110 -85 -244 -76v127q188 -21 281 213l26 64l-459 1030h144zM354 1188h-118q0 176 92 223q82 40 196 -45q92 -71 123 -68q43 3 43 115h119q0 -176 -90 -223q-83 -41 -197 45q-89 65 -123 68q-45 3 -45 -115z" />
    <glyph glyph-name="endash" unicode="&#x2013;" horiz-adv-x="1351" 
d="M1188 567h-1024v131h1024v-131z" />
    <glyph glyph-name="emdash" unicode="&#x2014;" horiz-adv-x="1556" 
d="M1393 567h-1229v131h1229v-131z" />
    <glyph glyph-name="quoteleft" unicode="&#x2018;" horiz-adv-x="491" 
d="M287 973h-164l123 461h123z" />
    <glyph glyph-name="quoteright" unicode="&#x2019;" horiz-adv-x="491" 
d="M205 1434h164l-123 -461h-123z" />
    <glyph glyph-name="quotesinglbase" unicode="&#x201a;" horiz-adv-x="491" 
d="M205 174h164l-123 -461h-123z" />
    <glyph glyph-name="quotedblleft" unicode="&#x201c;" horiz-adv-x="778" 
d="M287 973h-164l123 461h123zM573 973h-163l122 461h123z" />
    <glyph glyph-name="quotedblright" unicode="&#x201d;" horiz-adv-x="778" 
d="M205 1434h164l-123 -461h-123zM492 1434h163l-123 -461h-122z" />
    <glyph glyph-name="quotedblbase" unicode="&#x201e;" horiz-adv-x="778" 
d="M205 174h164l-123 -461h-123zM492 174h163l-123 -461h-122z" />
    <glyph glyph-name="dagger" unicode="&#x2020;" horiz-adv-x="983" 
d="M559 1096h301v-131h-301v-965h-135v965h-301v131h301v338h135v-338z" />
    <glyph glyph-name="daggerdbl" unicode="&#x2021;" horiz-adv-x="983" 
d="M860 1096v-131h-301v-496h301v-131h-301v-338h-135v338h-301v131h301v496h-301v131h301v338h135v-338h301z" />
    <glyph glyph-name="bullet" unicode="&#x2022;" horiz-adv-x="614" 
d="M164 573q-62 59 -62 146q0 84 62 143q60 60 145 60q84 0 144 -60q59 -59 59 -143q0 -87 -59 -146q-58 -61 -144 -61q-87 0 -145 61z" />
    <glyph glyph-name="ellipsis" unicode="&#x2026;" horiz-adv-x="1249" 
d="M236 -20q-48 0 -80 32q-33 33 -33 80t33 80t80 33q46 0 79 -33t33 -80t-33 -80q-32 -32 -79 -32zM625 -20q-48 0 -80 32q-33 33 -33 80t33 80t80 33t80 -33q32 -32 32 -80t-32 -80t-80 -32zM1014 -20q-48 0 -80 32q-33 33 -33 80t33 80t80 33t80 -33q32 -32 32 -80
t-32 -80t-80 -32z" />
    <glyph glyph-name="perthousand" unicode="&#x2030;" horiz-adv-x="2179" 
d="M213 932q-90 90 -90 219q0 127 90 217t223 90t223 -90q91 -91 91 -217q0 -131 -88 -219t-226 -88q-135 0 -223 88zM436 967q78 0 131 53q51 51 51 131t-51 131q-53 53 -131 53t-131 -53q-51 -51 -51 -131t51 -131q53 -53 131 -53zM281 145l-86 50l960 1079l88 -49z
M1016 -25q-135 0 -223 88q-91 91 -91 220q0 126 91 217q90 90 223 90t223 -90t90 -217q0 -130 -90 -220q-88 -88 -223 -88zM1743 -25q-135 0 -223 88q-90 90 -90 220q0 127 90 217t223 90t223 -90t90 -217q0 -130 -90 -220q-88 -88 -223 -88zM1016 98q77 0 131 54
q51 51 51 131t-51 131q-53 53 -131 53t-131 -53q-51 -51 -51 -131t51 -131q54 -54 131 -54zM1743 98q77 0 131 54q51 51 51 131t-51 131q-53 53 -131 53t-131 -53q-51 -51 -51 -131t51 -131q54 -54 131 -54z" />
    <glyph glyph-name="guilsinglleft" unicode="&#x2039;" horiz-adv-x="679" 
d="M369 1001h168l-226 -368l226 -369h-168l-226 369z" />
    <glyph glyph-name="guilsinglright" unicode="&#x203a;" horiz-adv-x="679" 
d="M143 1001h168l226 -368l-226 -369h-168l226 369z" />
    <glyph glyph-name="fraction" unicode="&#x2044;" horiz-adv-x="450" 
d="M696 1434l-819 -1434h-123l819 1434h123z" />
    <glyph glyph-name="Euro" unicode="&#x20ac;" horiz-adv-x="1216" 
d="M1047 322l118 -68q-114 -279 -428 -279q-219 0 -364 154q-141 150 -178 416h-154v119h143v53q0 59 2 69h-145v119h158q38 260 178 406q144 147 360 147q314 0 428 -276l-118 -68q-85 205 -310 205q-155 0 -258 -109q-102 -105 -137 -305h518v-119h-530q-2 -10 -2 -69
q0 -47 2 -53h530v-119h-520q30 -206 135 -320q101 -110 262 -110q230 0 310 207z" />
    <glyph glyph-name="uni20BD" unicode="&#x20bd;" horiz-adv-x="1208" 
d="M737 573h-368v-192h532v-119h-532v-262h-144v262h-184v119h184v192h-184v136h184v725h512q176 0 303 -127t127 -303q0 -177 -127 -304t-303 -127zM737 1298h-368v-589h368q120 0 203 86q84 90 84 209q0 118 -84 208q-83 86 -203 86z" />
    <glyph glyph-name="numero" unicode="&#x2116;" horiz-adv-x="2080" 
d="M1462 932q-90 90 -90 219q0 127 90 217t224 90q133 0 223 -90t90 -217q0 -131 -88 -219t-225 -88q-136 0 -224 88zM1085 266v1168h144v-1434h-123l-799 1167v-1167h-143v1434h123zM1686 967q78 0 131 53q51 51 51 131t-51 131q-53 53 -131 53q-79 0 -132 -53
q-51 -51 -51 -131t51 -131q53 -53 132 -53zM1974 569h-577v131h577v-131z" />
    <glyph glyph-name="trademark" unicode="&#x2122;" horiz-adv-x="952" 
d="M82 1434h317v-76h-116v-334h-82v334h-119v76zM659 1229l129 205h82v-410h-82v272l-124 -198h-9l-125 198v-272h-81v410h81z" />
    <glyph glyph-name="estimated" unicode="&#x212e;" horiz-adv-x="1679" 
d="M1567 686h-1147q-31 0 -31 -31v-393q0 -25 14 -39q173 -182 478 -182q298 0 473 199q15 18 37 18h75q21 0 27 -12q6 -13 -8 -27q-224 -239 -604 -239q-364 0 -580 210q-219 213 -219 527q0 313 211 524q213 213 547 213q331 0 544 -213t213 -524q0 -31 -30 -31zM1290 778
v393q0 25 -14 39q-174 183 -436 183q-263 0 -437 -183q-14 -14 -14 -39v-393q0 -30 31 -30h840q30 0 30 30z" />
    <glyph glyph-name="oneeighth" unicode="&#x215b;" horiz-adv-x="1642" 
d="M367 1434v-820h-127v680l-187 -55l-33 109l238 86h109zM260 0l819 1434h123l-819 -1434h-123zM1593 217q0 -112 -82 -176q-81 -66 -211 -66q-129 0 -213 66q-81 63 -81 176q0 145 135 213q-109 65 -109 180q0 108 76 172q77 62 192 62t189 -62q78 -66 78 -172
q0 -113 -109 -178q135 -70 135 -215zM1300 489q140 0 140 121q0 115 -140 115q-141 0 -141 -115q0 -121 141 -121zM1466 233q0 63 -45 99q-47 35 -121 35q-167 0 -167 -134q0 -135 167 -135q166 0 166 135z" />
    <glyph glyph-name="threeeighths" unicode="&#x215c;" horiz-adv-x="1857" 
d="M559 664q-83 -74 -217 -74q-209 0 -291 172l107 61q52 -110 184 -110q172 0 172 141q0 63 -45 102t-127 39h-8l-64 97l185 219h-377v123h528v-123l-182 -217q217 -43 217 -240q0 -120 -82 -190zM475 0l819 1434h123l-819 -1434h-123zM1808 217q0 -112 -82 -176
q-81 -66 -210 -66t-213 66q-82 64 -82 176q0 145 135 213q-109 65 -109 180q0 108 76 172q77 62 193 62q114 0 188 -62q78 -66 78 -172q0 -113 -109 -178q135 -70 135 -215zM1516 489q139 0 139 121q0 115 -139 115q-142 0 -142 -115q0 -121 142 -121zM1681 233q0 63 -45 99
q-47 35 -120 35q-168 0 -168 -134q0 -135 168 -135q165 0 165 135z" />
    <glyph glyph-name="fiveeighths" unicode="&#x215d;" horiz-adv-x="1835" 
d="M543 662q-81 -72 -215 -72q-211 0 -287 174l109 59q52 -110 178 -110q78 0 123 39q43 40 43 102q0 150 -166 150h-250l31 430h479v-119h-371l-12 -189h127q130 0 209 -73q80 -77 80 -199q0 -120 -78 -192zM453 0l819 1434h123l-820 -1434h-122zM1786 217q0 -112 -82 -176
q-81 -66 -211 -66q-129 0 -213 66q-82 64 -82 176q0 145 135 213q-108 64 -108 180q0 109 75 172q77 62 193 62q114 0 188 -62q78 -66 78 -172q0 -114 -108 -178q135 -70 135 -215zM1493 489q139 0 139 121q0 115 -139 115q-141 0 -141 -115q0 -121 141 -121zM1659 233
q0 63 -45 99q-47 35 -121 35q-168 0 -168 -134q0 -135 168 -135q166 0 166 135z" />
    <glyph glyph-name="seveneighths" unicode="&#x215e;" horiz-adv-x="1742" 
d="M20 1434h545v-103l-303 -717h-135l299 697h-406v123zM360 0l820 1434h123l-820 -1434h-123zM1694 217q0 -112 -82 -176q-81 -66 -211 -66q-129 0 -213 66q-82 64 -82 176q0 145 135 213q-108 64 -108 180q0 109 75 172q77 62 193 62q114 0 188 -62q78 -66 78 -172
q0 -114 -108 -178q135 -70 135 -215zM1401 489q139 0 139 121q0 115 -139 115q-141 0 -141 -115q0 -121 141 -121zM1567 233q0 63 -45 99q-47 35 -121 35q-168 0 -168 -134q0 -135 168 -135q166 0 166 135z" />
    <glyph glyph-name="arrowleft" unicode="&#x2190;" horiz-adv-x="1679" 
d="M373 782h1183v-131h-1183l549 -549h-185l-614 615l614 614h185z" />
    <glyph glyph-name="arrowup" unicode="&#x2191;" horiz-adv-x="1474" 
d="M737 1434l615 -615v-184l-547 547v-1182h-135v1182l-547 -547v184z" />
    <glyph glyph-name="arrowright" unicode="&#x2192;" horiz-adv-x="1679" 
d="M758 1331h184l614 -614l-614 -615h-184l549 549h-1184v131h1184z" />
    <glyph glyph-name="arrowdown" unicode="&#x2193;" horiz-adv-x="1474" 
d="M805 1434v-1182l547 547v-185l-615 -614l-614 614v185l547 -547v1182h135z" />
    <glyph glyph-name="arrowboth" unicode="&#x2194;" horiz-adv-x="2129" 
d="M1313 1229h184l510 -512l-510 -512h-184l444 446h-1384l444 -446h-184l-510 512l510 512h184l-444 -447h1384z" />
    <glyph glyph-name="arrowupdn" unicode="&#x2195;" horiz-adv-x="1269" 
d="M1147 1149v-184l-445 442v-1380l445 442v-184l-512 -510l-512 510v184l444 -442v1380l-444 -442v184l512 510z" />
    <glyph glyph-name="uni2196" unicode="&#x2196;" horiz-adv-x="1306" 
d="M348 1073l836 -835l-97 -97l-835 836v-772l-129 129v868h868l129 -129h-772z" />
    <glyph glyph-name="uni2197" unicode="&#x2197;" horiz-adv-x="1306" 
d="M186 1073l129 129h869v-868l-129 -129v772l-836 -836l-96 97l835 835h-772z" />
    <glyph glyph-name="uni2198" unicode="&#x2198;" horiz-adv-x="1306" 
d="M1055 408v772l129 -129v-869h-869l-129 129h772l-835 836l96 96z" />
    <glyph glyph-name="uni2199" unicode="&#x2199;" horiz-adv-x="1306" 
d="M1087 1243l97 -96l-836 -836h772l-129 -129h-868v869l129 129v-772z" />
    <glyph glyph-name="partialdiff" unicode="&#x2202;" horiz-adv-x="1179" 
d="M889 1253q168 -204 168 -536q0 -351 -150 -545q-150 -197 -381 -197q-197 0 -311 123q-113 119 -113 312q0 215 125 340q125 131 344 131q192 0 349 -109q-12 234 -129 393q-118 160 -316 160q-145 0 -268 -72v131q115 74 268 74q248 0 414 -205zM799 248
q106 138 121 387q-151 115 -349 115q-155 0 -243 -88q-90 -90 -90 -252q0 -138 73 -220q78 -84 215 -84q167 0 273 142z" />
    <glyph glyph-name="emptyset" unicode="&#x2205;" horiz-adv-x="1646" 
d="M1524 1475l-187 -224q228 -217 228 -534q0 -307 -217 -524q-218 -218 -525 -218q-237 0 -430 138l-127 -154h-143l186 223q-227 217 -227 535q0 307 217 524t524 217q238 0 430 -137l127 154h144zM385 274l793 955q-158 110 -355 110q-256 0 -438 -182
q-180 -180 -180 -440q0 -263 180 -443zM1262 274q180 180 180 443q0 262 -180 442l-793 -954q159 -111 354 -111q259 0 439 180z" />
    <glyph glyph-name="product" unicode="&#x220f;" horiz-adv-x="1310" 
d="M299 -410h-135v1844h983v-1844h-135v1713h-713v-1713z" />
    <glyph glyph-name="summation" unicode="&#x2211;" horiz-adv-x="1105" 
d="M1044 -410h-942v134l492 808l-461 766v136h881v-131h-727l465 -771l-494 -811h786v-131z" />
    <glyph glyph-name="minus" unicode="&#x2212;" horiz-adv-x="1105" 
d="M983 651h-860v131h860v-131z" />
    <glyph glyph-name="radical" unicode="&#x221a;" horiz-adv-x="1318" 
d="M727 0h-143l-281 483h-180v131h258l260 -450l494 1474h143z" />
    <glyph glyph-name="infinity" unicode="&#x221e;" horiz-adv-x="1638" 
d="M1432 950q94 -94 94 -233q0 -140 -94 -234t-236 -94q-198 0 -377 225q-179 -225 -377 -225q-141 0 -235 94t-94 234q0 139 94 233t235 94q198 0 377 -225q179 225 377 225q142 0 236 -94zM741 717q-147 205 -297 205q-88 0 -143 -58t-55 -147q0 -90 55 -148
q54 -57 143 -57q150 0 297 205zM1339 569q56 59 56 148q0 88 -56 147q-55 58 -143 58q-150 0 -297 -205q147 -205 297 -205q89 0 143 57z" />
    <glyph glyph-name="integral" unicode="&#x222b;" horiz-adv-x="899" 
d="M0 -414v131q221 -83 258 140l223 1310q62 370 418 271v-131q-245 82 -283 -140l-223 -1310q-30 -177 -135 -248q-101 -70 -258 -23z" />
    <glyph glyph-name="approxequal" unicode="&#x2248;" horiz-adv-x="1216" 
d="M348 891q-68 -21 -102 -141l-123 57q114 365 516 131q150 -95 229 -68q68 21 103 142l123 -58q-114 -365 -516 -131q-158 90 -230 68zM246 422l-123 57q114 365 516 131q149 -94 229 -67q69 21 103 141l123 -57q-114 -365 -516 -131q-157 89 -230 67q-68 -21 -102 -141z
" />
    <glyph glyph-name="notequal" unicode="&#x2260;" horiz-adv-x="1105" 
d="M983 987v-131h-317l-123 -278h440v-132h-500l-135 -303h-102l135 303h-258v132h317l123 278h-440v131h500l135 303h102l-135 -303h258z" />
    <glyph glyph-name="lessequal" unicode="&#x2264;" horiz-adv-x="1064" 
d="M123 909l819 320v-152l-649 -235l649 -236v-151l-819 319v135zM942 205h-819v131h819v-131z" />
    <glyph glyph-name="greaterequal" unicode="&#x2265;" horiz-adv-x="1064" 
d="M123 1077v152l819 -320v-135l-819 -319v151l649 236zM942 205h-819v131h819v-131z" />
    <glyph glyph-name="lozenge" unicode="&#x25ca;" horiz-adv-x="1105" 
d="M623 0h-140l-381 717l381 717h140l381 -717zM248 717l305 -572l305 572l-305 571z" />
    <glyph glyph-name="cir.acute" unicode="&#xe00d;" horiz-adv-x="0" 
d="M418 1784l217 -266h-154l-143 178l-143 -178h-154l217 266h160zM565 1661l164 266h164l-197 -266h-131z" />
    <glyph glyph-name="cir.grave" unicode="&#xe00e;" horiz-adv-x="0" 
d="M418 1784l217 -266h-154l-143 178l-143 -178h-154l217 266h160zM739 1722h-131l-196 267h163z" />
    <glyph glyph-name="cir.tilde" unicode="&#xe00f;" horiz-adv-x="0" 
d="M418 1784l217 -266h-154l-143 178l-143 -178h-154l217 266h160zM207 1853h-119q0 177 92 224q83 41 197 -45q92 -71 123 -68q43 3 43 115h119q0 -176 -91 -224q-81 -40 -196 46q-88 64 -123 67q-45 3 -45 -115z" />
    <glyph glyph-name="breve.tilde" unicode="&#xe010;" horiz-adv-x="0" 
d="M119 1589q-78 72 -78 195h131q0 -148 156 -148q155 0 155 148h131q0 -128 -75 -197t-211 -69q-132 0 -209 71zM160 1860h-119q0 176 92 223q83 41 197 -45q92 -71 123 -68q43 3 43 115h118q0 -176 -90 -223q-82 -40 -196 45q-88 64 -123 67q-45 3 -45 -114z" />
    <glyph glyph-name="breve.acute" unicode="&#xe011;" horiz-adv-x="0" 
d="M119 1587q-78 72 -78 195h131q0 -148 156 -148q155 0 155 148h131q0 -128 -75 -197t-211 -69q-132 0 -209 71zM252 1835l164 266h164l-197 -266h-131z" />
    <glyph glyph-name="breve.grave" unicode="&#xe012;" horiz-adv-x="0" 
d="M119 1589q-78 72 -78 195h131q0 -148 156 -148q155 0 155 148h131q0 -128 -75 -197t-211 -69q-132 0 -209 71zM406 1855h-132l-196 267h164z" />
    <glyph glyph-name="breve.hook" unicode="&#xe013;" horiz-adv-x="0" 
d="M117 1587q-78 72 -78 195h131q0 -148 156 -148q155 0 155 148h131q0 -128 -75 -197t-211 -69q-132 0 -209 71zM387 1790h-106q0 56 36 82q38 27 43 35q17 17 17 30q0 19 -17 29q-13 8 -47 8q-64 0 -84 -51l-92 37q25 51 72 72q44 20 106 20q64 0 117 -29q51 -26 51 -81
q0 -48 -65 -95q-2 -3 -15 -16q-16 -16 -16 -41z" />
    <glyph glyph-name="cir.hook" unicode="&#xe014;" horiz-adv-x="0" 
d="M418 1784l217 -266h-154l-143 178l-143 -178h-154l217 266h160zM696 1696h-106q0 71 37 108q35 35 43 47q16 22 16 41q0 24 -16 37t-47 13q-63 0 -84 -70l-93 51q23 63 72 94q50 29 107 29q68 0 116 -39q52 -40 52 -109q0 -60 -66 -126q-1 -2 -3.5 -6.5t-5 -8t-5.5 -6.5
q-17 -24 -17 -55z" />
    <glyph glyph-name="uniE015" unicode="&#xe015;" horiz-adv-x="409" 
d="M369 1167h-131l-197 267h164z" />
    <glyph glyph-name="uniE016" unicode="&#xe016;" horiz-adv-x="409" 
d="M41 1167l164 267h164l-197 -267h-131z" />
    <glyph glyph-name="uniE017" unicode="&#xe017;" horiz-adv-x="675" 
d="M418 1434l217 -267h-154l-143 179l-143 -179h-154l217 267h160z" />
    <glyph glyph-name="uniE018" unicode="&#xe018;" horiz-adv-x="675" 
d="M338 1255l143 179h154l-217 -267h-160l-217 267h154z" />
    <glyph glyph-name="uniE019" unicode="&#xe019;" horiz-adv-x="655" 
d="M160 1188h-119q0 176 92 223q83 41 197 -45q92 -71 123 -68q43 3 43 115h118q0 -176 -90 -223q-82 -40 -196 45q-89 65 -123 68q-45 3 -45 -115z" />
    <glyph glyph-name="uniE01A" unicode="&#xe01a;" horiz-adv-x="655" 
d="M369 1167h-131l-197 267h164z" />
    <glyph glyph-name="uniE01B" unicode="&#xe01b;" horiz-adv-x="690" 
d="M41 1167l143 267h152l-156 -267h-139zM334 1167l164 267h151l-176 -267h-139z" />
    <glyph glyph-name="uniE01C" unicode="&#xe01c;" horiz-adv-x="655" 
d="M119 1223q-78 72 -78 194h131q0 -147 156 -147q155 0 155 147h131q0 -127 -75 -196q-76 -70 -211 -70q-131 0 -209 72z" />
    <glyph glyph-name="uniE01D" unicode="&#xe01d;" horiz-adv-x="655" 
d="M119 1223q-78 72 -78 194h131q0 -147 156 -147q155 0 155 147h131q0 -127 -75 -196q-76 -70 -211 -70q-131 0 -209 72z" />
    <glyph glyph-name="uniE01E" unicode="&#xe01e;" horiz-adv-x="516" 
d="M258 1126q-100 0 -158 58q-59 59 -59 147q0 87 59 146q65 59 158 59q97 0 156 -59q61 -58 61 -146q0 -89 -61 -147q-58 -58 -156 -58zM338 1260q27 27 27 71q0 45 -27 72q-28 32 -80 29q-53 3 -78 -29q-24 -27 -24 -72q0 -44 24 -71q25 -32 78 -29q52 -3 80 29z" />
    <glyph glyph-name="uniE01F" unicode="&#xe01f;" horiz-adv-x="1118" 
d="M547 1139h-107q0 71 37 108q35 35 43 47q17 24 17 41q0 23 -17 37q-15 12 -47 12q-63 0 -84 -69l-92 51q23 63 72 94q50 29 106 29q69 0 117 -39q51 -39 51 -109q0 -62 -65 -127q-10 -15 -15 -20q-16 -22 -16 -55z" />
    <glyph glyph-name="uniE020" unicode="&#xe020;" horiz-adv-x="755" 
d="M154 1167q-47 0 -80 33t-33 80t33 80t80 33q46 0 79 -33t33 -80t-33 -80t-79 -33zM602 1167q-47 0 -80 33t-33 80t33 80t80 33t80 -33t33 -80t-33 -80t-80 -33z" />
    <glyph glyph-name="NULL" horiz-adv-x="0" 
 />
    <glyph glyph-name="CR" horiz-adv-x="681" 
 />
    <glyph glyph-name="Euro.tf" horiz-adv-x="1167" 
d="M993 352l117 -65q-99 -312 -414 -312q-208 0 -344 154q-134 152 -168 416h-133v119h123v53q0 59 2 69h-125v119h135q38 259 170 406q135 147 340 147q304 0 406 -293l-119 -67q-71 221 -287 221q-142 0 -237 -109q-98 -112 -127 -305h497v-119h-510q-2 -10 -2 -69v-53
h512v-119h-501q26 -201 125 -320q94 -110 243 -110q220 0 297 237z" />
    <glyph glyph-name="brevecy" horiz-adv-x="614" 
d="M573 1188h-532v119h532v-119z" />
    <glyph glyph-name="cent.tf" horiz-adv-x="1167" 
d="M983 512l113 -66q-65 -124 -187 -194q-126 -72 -272 -72q-52 0 -139 17l-64 -197h-102l74 229q-142 62 -224 193q-84 134 -84 295q0 227 154 381q152 155 385 155q65 0 96 -8l62 189h102l-70 -215q181 -67 258 -234l-110 -63q-58 118 -187 172l-249 -770q50 -13 98 -13
q234 0 346 201zM291 504q61 -98 155 -148l246 762l-16 2h-17q-10 2 -22 2q-172 0 -287 -118q-117 -117 -117 -287q0 -119 58 -213z" />
    <glyph glyph-name="dollar.tf" horiz-adv-x="1167" 
d="M973 102q-110 -107 -297 -122v-185h-123v182q-352 21 -471 318l123 72q74 -232 348 -250v563q-181 52 -283 129q-116 85 -116 268q0 159 110 260q116 104 289 119v182h123v-184q277 -27 379 -285l-121 -67q-65 189 -258 213v-531q213 -65 303 -149q106 -97 106 -262
t-112 -271zM358 922q58 -58 195 -101v496q-119 -12 -186 -76q-70 -64 -70 -164q0 -97 61 -155zM676 641v-522q126 15 196 82t70 172q0 101 -65 166q-56 53 -201 102z" />
    <glyph glyph-name="eight.dnom" horiz-adv-x="686" 
d="M637 217q0 -112 -82 -176q-81 -66 -211 -66q-129 0 -213 66q-82 64 -82 176q0 145 135 213q-108 64 -108 180q0 108 76 172q77 62 192 62q114 0 188 -62q78 -66 78 -172q0 -114 -108 -178q135 -70 135 -215zM344 489q139 0 139 121q0 115 -139 115q-141 0 -141 -115
q0 -121 141 -121zM510 233q0 63 -45 99q-47 35 -121 35q-168 0 -168 -134q0 -135 168 -135q166 0 166 135z" />
    <glyph glyph-name="eight.numr" horiz-adv-x="686" 
d="M637 831q0 -112 -82 -176q-80 -65 -211 -65q-130 0 -213 65q-82 64 -82 176q0 145 135 213q-108 64 -108 181q0 108 76 172q76 61 192 61q115 0 188 -61q78 -66 78 -172q0 -113 -108 -178q135 -71 135 -216zM344 1104q139 0 139 121q0 114 -139 114q-141 0 -141 -114
q0 -121 141 -121zM510 848q0 62 -45 98q-47 35 -121 35q-168 0 -168 -133q0 -135 168 -135q166 0 166 135z" />
    <glyph glyph-name="eight.sinf" horiz-adv-x="686" 
d="M637 -111q0 -112 -82 -176q-80 -65 -211 -65q-130 0 -213 65q-82 64 -82 176q0 145 135 213q-108 65 -108 181q0 108 76 172q76 61 192 61q115 0 188 -61q78 -66 78 -172q0 -115 -108 -179q135 -70 135 -215zM344 162q139 0 139 121q0 114 -139 114q-141 0 -141 -114
q0 -121 141 -121zM510 -94q0 62 -45 98q-47 35 -121 35q-168 0 -168 -133q0 -135 168 -135q166 0 166 135z" />
    <glyph glyph-name="eight.sups" horiz-adv-x="686" 
d="M637 1159q0 -112 -82 -176q-80 -65 -211 -65q-130 0 -213 65q-82 64 -82 176q0 145 135 213q-108 64 -108 180q0 108 76 172q77 62 192 62q114 0 188 -62q78 -66 78 -172q0 -114 -108 -178q135 -70 135 -215zM344 1432q139 0 139 120q0 115 -139 115q-141 0 -141 -115
q0 -120 141 -120zM510 1176q0 62 -45 98q-47 35 -121 35q-168 0 -168 -133q0 -136 168 -136q166 0 166 136z" />
    <glyph glyph-name="eight.tf" horiz-adv-x="1167" 
d="M1096 389q0 -196 -142 -305q-139 -109 -370 -109q-228 0 -373 109q-139 109 -139 305q0 242 239 350q-190 114 -190 322q0 192 131 293q131 104 332 104q200 0 331 -104q132 -102 132 -293q0 -208 -191 -322q240 -108 240 -350zM350 870q85 -67 234 -67q148 0 233 67
q86 71 86 191q0 258 -319 258q-320 0 -320 -258q0 -120 86 -191zM584 115q177 0 272 71q96 72 96 203t-96 203q-97 72 -272 72q-178 0 -275 -72q-94 -70 -94 -203t94 -203q95 -71 275 -71z" />
    <glyph glyph-name="f_f_j" horiz-adv-x="1609" 
d="M913 1024h553v-1106q0 -183 -96 -276q-94 -91 -272 -76v131q124 -12 178 39q55 52 55 182v975h-418v-893h-135v893h-418v-893h-135v893h-174v131h174v41q0 203 111 305q115 103 319 88v-131q-295 24 -295 -262v-41h418v61q0 394 430 394q81 0 197 -25v-123
q-116 17 -197 17q-154 0 -223 -60q-72 -63 -72 -203v-61z" />
    <glyph glyph-name="f_j" horiz-adv-x="1056" 
d="M360 1024h553v-1106q0 -183 -96 -276q-94 -91 -272 -76v131q124 -12 178 39q55 52 55 182v975h-418v-893h-135v893h-174v131h174v41q0 393 430 393q86 0 197 -24v-123q-109 16 -197 16q-155 0 -223 -59q-72 -63 -72 -203v-41z" />
    <glyph glyph-name="five.dnom" horiz-adv-x="698" 
d="M205 512h127q129 0 209 -74q80 -77 80 -198t-78 -193q-81 -72 -215 -72q-211 0 -287 175l109 59q52 -111 178 -111q78 0 123 39q43 40 43 103q0 149 -166 149h-250l31 430h479v-119h-371z" />
    <glyph glyph-name="five.numr" horiz-adv-x="698" 
d="M205 1126h127q130 0 209 -73q80 -77 80 -199q0 -120 -78 -192q-81 -72 -215 -72q-211 0 -287 174l109 59q52 -110 178 -110q78 0 123 39q43 40 43 102q0 150 -166 150h-250l31 430h479v-119h-371z" />
    <glyph glyph-name="five.sinf" horiz-adv-x="671" 
d="M215 184h127q130 0 209 -73q80 -77 80 -199q0 -121 -78 -193q-80 -71 -215 -71q-211 0 -287 174l109 59q52 -110 178 -110q78 0 123 39q43 40 43 102q0 149 -166 149h-250l31 431h479v-119h-371z" />
    <glyph glyph-name="five.sups" horiz-adv-x="698" 
d="M205 1454h127q129 0 209 -74q80 -77 80 -198t-78 -193q-80 -71 -215 -71q-211 0 -287 174l109 59q52 -111 178 -111q78 0 123 39q43 40 43 103q0 149 -166 149h-250l31 430h479v-119h-371z" />
    <glyph glyph-name="five.tf" horiz-adv-x="1167" 
d="M305 856h279q213 0 356 -119q145 -118 145 -321t-145 -324q-144 -117 -356 -117q-180 0 -322 86q-141 88 -188 238l121 70q30 -118 137 -185q103 -69 252 -69q164 0 260 78q98 79 98 223t-98 223q-96 78 -260 78h-430l51 717h829v-136h-698z" />
    <glyph glyph-name="florin.tf" horiz-adv-x="1167" 
d="M1106 1440v-131q-241 83 -293 -140l-96 -385h307v-131h-340l-197 -794q-89 -363 -426 -271v131q239 -83 291 140l197 794h-305v131h338l96 385q89 366 428 271z" />
    <glyph glyph-name="four.dnom" horiz-adv-x="724" 
d="M580 272h104v-118h-104v-154h-127v154h-422v118l305 547h137l-303 -547h283v197h127v-197z" />
    <glyph glyph-name="four.numr" horiz-adv-x="724" 
d="M580 887h104v-119h-104v-154h-127v154h-422v119l305 547h137l-303 -547h283v196h127v-196z" />
    <glyph glyph-name="four.sinf" horiz-adv-x="724" 
d="M580 -55h104v-119h-104v-154h-127v154h-422v119l305 547h137l-303 -547h283v196h127v-196z" />
    <glyph glyph-name="four.sups" horiz-adv-x="724" 
d="M580 1214h104v-118h-104v-154h-127v154h-422v118l305 547h137l-303 -547h283v197h127v-197z" />
    <glyph glyph-name="four.tf" horiz-adv-x="1167" 
d="M942 422h184v-135h-184v-287h-143v287h-758v135l532 1012h156l-532 -1012h602v397h143v-397z" />
    <glyph glyph-name="i.loclTRK" horiz-adv-x="421" 
d="M211 1167q-47 0 -80 33t-33 80t33 80t80 33t80 -33t33 -80t-33 -80t-80 -33zM279 0h-136v1024h136v-1024z" />
    <glyph glyph-name="nine.dnom" horiz-adv-x="686" 
d="M606 414v-2l-4 -6l-4 -5l-256 -401h-154l189 274q-4 -2 -33 -2q-129 0 -217 82q-86 83 -86 203t86 203q90 84 217 84q125 0 215 -84q86 -83 86 -203q0 -81 -39 -143zM217 676q-49 -46 -49 -119q0 -71 49 -117q45 -45 127 -45t127 45q47 47 47 117q0 72 -47 119
q-48 45 -127 45q-82 0 -127 -45z" />
    <glyph glyph-name="nine.numr" horiz-adv-x="686" 
d="M606 1028v-2l-4 -6l-4 -4l-256 -402h-154l189 275q-4 -2 -33 -2q-129 0 -217 82q-86 83 -86 202q0 120 86 203q90 84 217 84q125 0 215 -84q86 -83 86 -203q0 -81 -39 -143zM217 1290q-49 -46 -49 -119q0 -70 49 -116q45 -45 127 -45t127 45q47 47 47 116q0 72 -47 119
q-48 45 -127 45q-82 0 -127 -45z" />
    <glyph glyph-name="nine.sinf" horiz-adv-x="686" 
d="M606 86v-2l-4 -6l-4 -4l-256 -402h-154l189 275q-4 -2 -33 -2q-129 0 -217 82q-86 83 -86 202q0 120 86 203q90 84 217 84q125 0 215 -84q86 -83 86 -203q0 -81 -39 -143zM217 348q-49 -46 -49 -119q0 -70 49 -116q45 -45 127 -45t127 45q47 47 47 116q0 72 -47 119
q-48 45 -127 45q-82 0 -127 -45z" />
    <glyph glyph-name="nine.sups" horiz-adv-x="686" 
d="M606 1356v-2l-4 -6l-4 -5l-256 -401h-154l189 275q-6 -3 -33 -3q-129 0 -217 82q-86 83 -86 203t86 203q90 84 217 84q125 0 215 -84q86 -83 86 -203q0 -81 -39 -143zM217 1618q-49 -46 -49 -119q0 -71 49 -117q45 -45 127 -45t127 45q47 47 47 117q0 72 -47 119
q-48 45 -127 45q-82 0 -127 -45z" />
    <glyph glyph-name="nine.tf" horiz-adv-x="1167" 
d="M1036 700l-499 -700h-170l372 524q-61 -12 -135 -12q-237 0 -381 129q-141 132 -141 344q0 213 141 342q143 131 381 131q242 0 379 -131q143 -128 143 -342q0 -163 -90 -285zM225 985q0 -155 99 -244q104 -90 280 -90q175 0 279 90q100 87 100 244t-100 244
q-104 90 -279 90q-176 0 -280 -90q-99 -89 -99 -244z" />
    <glyph glyph-name="one.dnom" horiz-adv-x="505" 
d="M20 733l238 86h109v-819h-127v680l-187 -55z" />
    <glyph glyph-name="one.numr" horiz-adv-x="505" 
d="M20 1348l238 86h109v-820h-127v680l-187 -55z" />
    <glyph glyph-name="one.sinf" horiz-adv-x="489" 
d="M20 406l238 86h109v-820h-127v680l-187 -55z" />
    <glyph glyph-name="one.sups" horiz-adv-x="505" 
d="M20 1675l238 86h109v-819h-127v680l-187 -55z" />
    <glyph glyph-name="one.tf" horiz-adv-x="1167" 
d="M686 1434v-1299h420v-135h-1024v135h461v1141l-322 -96l-37 123l379 131h123z" />
    <glyph glyph-name="seven.dnom" horiz-adv-x="606" 
d="M20 696v123h545v-102l-303 -717h-135l299 696h-406z" />
    <glyph glyph-name="seven.numr" horiz-adv-x="606" 
d="M20 1311v123h545v-103l-303 -717h-135l299 697h-406z" />
    <glyph glyph-name="seven.sinf" horiz-adv-x="606" 
d="M20 369v123h545v-103l-303 -717h-135l299 697h-406z" />
    <glyph glyph-name="seven.sups" horiz-adv-x="606" 
d="M20 1638v123h545v-102l-303 -717h-135l299 696h-406z" />
    <glyph glyph-name="seven.tf" horiz-adv-x="1167" 
d="M82 1298v136h1003v-136l-583 -1298h-148l582 1298h-854z" />
    <glyph glyph-name="six.dnom" horiz-adv-x="686" 
d="M557 465q88 -82 88 -203q0 -123 -88 -205q-82 -82 -215 -82t-215 82q-86 83 -86 205q0 82 39 144v2l6 6l2 4l256 401h154l-189 -274q4 2 33 2q133 0 215 -82zM471 143q47 47 47 119q0 70 -47 117q-48 45 -129 45q-82 0 -127 -45q-47 -47 -47 -117q0 -72 47 -119
q48 -45 127 -45q81 0 129 45z" />
    <glyph glyph-name="six.numr" horiz-adv-x="686" 
d="M557 1079q88 -82 88 -202q0 -123 -88 -205q-82 -82 -215 -82t-215 82q-86 83 -86 205q0 81 39 143v2l6 6l2 4l256 402h154l-189 -275q4 2 33 2q133 0 215 -82zM471 758q47 47 47 119q0 69 -47 116q-48 45 -129 45q-82 0 -127 -45q-47 -47 -47 -116q0 -72 47 -119
q48 -45 127 -45q81 0 129 45z" />
    <glyph glyph-name="six.sinf" horiz-adv-x="686" 
d="M557 137q88 -82 88 -203q0 -120 -88 -202q-90 -84 -215 -84t-215 84q-86 83 -86 202q0 82 39 144v2l6 6l2 4l256 402h154l-189 -275q4 2 33 2q133 0 215 -82zM471 -184q47 47 47 118q0 70 -47 117q-48 45 -129 45q-82 0 -127 -45q-47 -47 -47 -117q0 -71 47 -118
q48 -45 127 -45q81 0 129 45z" />
    <glyph glyph-name="six.sups" horiz-adv-x="686" 
d="M557 1407q88 -82 88 -203q0 -123 -88 -205q-81 -81 -215 -81t-215 81q-86 83 -86 205q0 82 39 144v2l6 6l2 4l256 401h154l-189 -274q4 2 33 2q133 0 215 -82zM471 1085q47 47 47 119q0 70 -47 117q-48 45 -129 45q-82 0 -127 -45q-47 -47 -47 -117q0 -72 47 -119
q48 -45 127 -45q81 0 129 45z" />
    <glyph glyph-name="six.tf" horiz-adv-x="1167" 
d="M942 791q143 -128 143 -342t-143 -345q-141 -129 -379 -129q-237 0 -381 129q-141 132 -141 345q0 162 90 284l500 701h170l-373 -525q67 13 135 13q242 0 379 -131zM563 115q175 0 279 90q100 87 100 244q0 156 -100 243q-104 90 -279 90q-176 0 -280 -90
q-99 -88 -99 -243t99 -244q104 -90 280 -90z" />
    <glyph glyph-name="sterling.tf" horiz-adv-x="1167" 
d="M397 592v-453h750v-139h-1086v139h193v453h-152v127h152v309q0 208 125 318q124 112 295 112q280 0 391 -274l-117 -66q-74 201 -274 201q-122 0 -197 -72q-80 -77 -80 -219v-309h473v-127h-473z" />
    <glyph glyph-name="three.dnom" horiz-adv-x="720" 
d="M606 696l-182 -217q217 -43 217 -239q0 -121 -82 -191q-83 -74 -217 -74q-209 0 -291 172l107 62q53 -111 184 -111q172 0 172 142q0 63 -45 102t-127 39h-8l-64 96l185 219h-377v123h528v-123z" />
    <glyph glyph-name="three.numr" horiz-adv-x="720" 
d="M606 1311l-182 -217q217 -43 217 -240q0 -120 -82 -190q-83 -74 -217 -74q-209 0 -291 172l107 61q52 -110 184 -110q172 0 172 141q0 63 -45 102t-127 39h-8l-64 97l185 219h-377v123h528v-123z" />
    <glyph glyph-name="three.sinf" horiz-adv-x="712" 
d="M606 369l-182 -217q217 -43 217 -240q0 -121 -82 -191q-82 -73 -217 -73q-209 0 -291 172l107 61q52 -110 184 -110q172 0 172 141q0 63 -45 102t-127 39h-8l-64 97l185 219h-377v123h528v-123z" />
    <glyph glyph-name="three.sups" horiz-adv-x="720" 
d="M606 1638l-182 -217q217 -43 217 -239q0 -121 -82 -191q-82 -73 -217 -73q-209 0 -291 172l107 61q53 -111 184 -111q172 0 172 142q0 63 -45 102t-127 39h-8l-64 96l185 219h-377v123h528v-123z" />
    <glyph glyph-name="three.tf" horiz-adv-x="1167" 
d="M1024 1298l-367 -460q196 -21 310 -129q118 -112 118 -293q0 -207 -147 -324t-375 -117q-179 0 -321 86q-142 89 -189 238l121 70q30 -118 137 -185q103 -69 252 -69q173 0 277 78q102 79 102 223t-102 223q-104 78 -277 78v2l-2 -2h-37l-63 94l391 487h-750v136h922
v-136z" />
    <glyph glyph-name="two.dnom" horiz-adv-x="696" 
d="M637 0h-574v104l345 316q86 77 86 174q0 59 -39 92q-41 35 -109 35q-125 0 -178 -127l-107 59q77 191 285 191q121 0 199 -72q76 -70 76 -178q0 -141 -127 -256l-242 -215h385v-123z" />
    <glyph glyph-name="two.numr" horiz-adv-x="696" 
d="M637 614h-574v105l345 315q86 77 86 174q0 59 -39 92q-41 35 -109 35q-125 0 -178 -127l-107 60q76 190 285 190q121 0 199 -72q76 -70 76 -178q0 -141 -127 -256l-242 -215h385v-123z" />
    <glyph glyph-name="two.sinf" horiz-adv-x="698" 
d="M637 -328h-574v105l345 315q86 77 86 174q0 59 -39 92q-41 35 -109 35q-125 0 -178 -127l-107 60q76 190 285 190q121 0 199 -72q76 -70 76 -178q0 -141 -127 -256l-242 -215h385v-123z" />
    <glyph glyph-name="two.sups" horiz-adv-x="696" 
d="M637 942h-574v105l345 315q86 77 86 174q0 59 -39 92q-41 35 -109 35q-125 0 -178 -127l-107 59q77 191 285 191q121 0 199 -72q76 -70 76 -178q0 -141 -127 -256l-242 -215h385v-123z" />
    <glyph glyph-name="two.tf" horiz-adv-x="1167" 
d="M1085 0h-993v129l518 446q160 138 226 228q75 103 75 205q0 145 -90 229q-88 82 -239 82q-253 0 -355 -242l-118 70q64 145 192 229q125 82 281 82q203 0 338 -123t135 -327q0 -251 -346 -533l-412 -336h788v-139z" />
    <glyph glyph-name="uni0414.loclBGR" horiz-adv-x="1433" 
d="M791 1434l460 -1299h131v-409h-143v274h-1044v-274h-144v409h131l461 1299h148zM717 1255l-383 -1120h766z" />
    <glyph glyph-name="uni0414.loclBGR.ss01" horiz-adv-x="1433" 
d="M791 1434l460 -1299h131v-135h-1331v135h131l461 1299h148zM717 1255l-383 -1120h766z" />
    <glyph glyph-name="uni0414.ss01" horiz-adv-x="1413" 
d="M1188 1434v-1299h153v-135h-1310v135h116q142 168 142 512v787h899zM317 135h727v1163h-612v-655q0 -337 -115 -508z" />
    <glyph glyph-name="uni041B.loclBGR" horiz-adv-x="1245" 
d="M20 0l529 1434h147l529 -1434h-156l-446 1243l-447 -1243h-156z" />
    <glyph glyph-name="uni0424.loclBGR" horiz-adv-x="1728" 
d="M936 -23v-182h-143v182q-314 21 -514 224q-197 200 -197 516t197 516q199 202 514 223v182h143v-182q315 -21 514 -223q197 -200 197 -516t-197 -516q-200 -203 -514 -224zM793 109v1216q-257 -21 -414 -186q-154 -165 -154 -422q0 -259 154 -424q155 -163 414 -184z
M936 1325v-1216q260 21 412 184q155 162 155 424q0 260 -155 422q-154 165 -412 186z" />
    <glyph glyph-name="uni0426.ss01" horiz-adv-x="1413" 
d="M1188 1434v-1299h153v-135h-1177v1434h143v-1299h737v1299h144z" />
    <glyph glyph-name="uni0429.ss01" horiz-adv-x="2007" 
d="M1782 1434v-1299h153v-135h-1771v1434h143v-1299h594v1299h143v-1299h594v1299h144z" />
    <glyph glyph-name="uni0432.loclBGR" horiz-adv-x="1167" 
d="M1085 410q0 -208 -124 -320q-124 -115 -347 -115q-224 0 -346 131q-125 131 -125 365v481q0 234 119 371q120 135 328 135q171 0 272 -94t101 -250q0 -161 -146 -295q268 -89 268 -409zM360 1227q-81 -100 -81 -275v-166l210 43q97 17 168 17q170 123 170 268
q0 97 -63 154q-65 59 -174 59q-149 0 -230 -100zM823 662q-127 80 -334 36l-210 -43v-184q0 -174 88 -268q91 -97 247 -97q159 0 248 80q88 79 88 224q0 172 -127 252z" />
    <glyph glyph-name="uni0433.loclBGR" horiz-adv-x="929" 
d="M743 289l115 -68q-44 -110 -145 -174q-110 -72 -250 -72q-167 0 -268 82q-103 83 -103 213q0 195 207 260l66 21l65 18q66 17 123 41q127 53 127 146q0 74 -62 121q-59 41 -143 41q-191 0 -256 -154l-113 65q109 220 369 220q147 0 242 -86q98 -82 98 -207
q0 -191 -207 -262l-65 -19l-66 -18q-77 -21 -123 -39q-127 -53 -127 -148q0 -164 236 -164q100 0 176 52q78 50 104 131z" />
    <glyph glyph-name="uni0434.loclBGR" 
d="M1024 823v201h135v-983q0 -221 -151 -348t-363 -127q-358 0 -485 250l119 67q91 -186 366 -186q176 0 279 92q100 90 100 252v160q-142 -226 -414 -226q-218 0 -374 156q-154 157 -154 381t154 381q156 156 374 156q272 0 414 -226zM621 106q169 0 286 117
q117 120 117 289q0 170 -117 287q-116 119 -286 119q-171 0 -287 -119q-117 -117 -117 -287q0 -169 117 -289q117 -117 287 -117z" />
    <glyph glyph-name="uni0436.loclBGR" horiz-adv-x="1380" 
d="M881 532l458 -532h-163l-418 494v-494h-135v494l-418 -494h-164l459 532l-439 492h164l398 -455v865h135v-865l397 455h164z" />
    <glyph glyph-name="uni0438.loclBGR" horiz-adv-x="1142" 
d="M864 487v537h135v-1024h-135v160q-114 -185 -344 -185q-184 0 -293 115q-108 114 -108 305v629h135v-629q0 -135 72 -213q73 -76 206 -76q153 0 240 93q92 103 92 288z" />
    <glyph glyph-name="uni0439.loclBGR" horiz-adv-x="1142" 
d="M289 1307h532v-119h-532v119zM864 487v537h135v-1024h-135v160q-114 -185 -344 -185q-184 0 -293 115q-108 114 -108 305v629h135v-629q0 -135 72 -213q73 -76 206 -76q153 0 240 93q92 103 92 288z" />
    <glyph glyph-name="uni043A.loclBGR" horiz-adv-x="1011" 
d="M422 532l549 -532h-180l-512 494v-494h-136v1434h136v-863l487 453h184z" />
    <glyph glyph-name="uni043B.loclBGR" horiz-adv-x="1044" 
d="M604 1024l420 -1024h-143l-359 883l-358 -883h-144l420 1024h164z" />
    <glyph glyph-name="uni043F.loclBGR" horiz-adv-x="1142" 
d="M915 934q109 -115 109 -305v-629h-135v629q0 135 -72 213q-73 76 -207 76q-152 0 -239 -93q-92 -103 -92 -288v-537h-136v1024h136v-160q114 185 344 185q183 0 292 -115z" />
    <glyph glyph-name="uni0442.loclBGR" horiz-adv-x="1736" 
d="M1513 938q105 -111 105 -299v-639h-135v639q0 131 -70 207q-66 72 -180 72q-132 0 -207 -87q-78 -90 -78 -264v-567h-135v639q0 135 -63 207q-66 72 -177 72q-127 0 -208 -87q-86 -95 -86 -264v-567h-136v1024h136v-150q111 175 313 175q223 0 311 -187q111 187 332 187
q173 0 278 -111z" />
    <glyph glyph-name="uni0446.loclBGR" horiz-adv-x="1216" 
d="M1075 131h80v-405h-135v278q-133 21 -154 162q-114 -191 -346 -191q-184 0 -293 115q-108 114 -108 305v629h135v-629q0 -135 72 -213q73 -76 206 -76q153 0 240 93q92 103 92 288v537h135v-819q0 -74 76 -74z" />
    <glyph glyph-name="uni0448.loclBGR" horiz-adv-x="1736" 
d="M1458 457v567h135v-1024h-135v150q-111 -175 -313 -175q-223 0 -311 187q-111 -187 -332 -187q-175 0 -277 111q-106 109 -106 299v639h135v-639q0 -131 70 -207q66 -72 180 -72q132 0 207 87q77 89 77 264v567h136v-639q0 -133 65 -207q63 -72 174 -72q128 0 209 87
q86 95 86 264z" />
    <glyph glyph-name="uni0449.loclBGR" horiz-adv-x="1810" 
d="M1669 131h80v-405h-135v278q-125 15 -152 152q-111 -181 -317 -181q-223 0 -311 187q-111 -187 -332 -187q-175 0 -277 111q-106 109 -106 299v639h135v-639q0 -131 70 -207q66 -72 180 -72q132 0 207 87q77 89 77 264v567h136v-639q0 -133 65 -207q63 -72 174 -72
q128 0 209 87q86 95 86 264v567h135v-819q0 -74 76 -74z" />
    <glyph glyph-name="uni044A.loclBGR" horiz-adv-x="1150" 
d="M422 692h264q186 0 295 -92q104 -91 104 -256q0 -154 -112 -260q-115 -109 -287 -109q-185 0 -293 105q-106 103 -106 264v549h-287v131h422v-332zM874 178q76 70 76 166q0 103 -69 160t-195 57h-264v-217q0 -96 72 -168q70 -70 192 -70q110 0 188 72z" />
    <glyph glyph-name="uni044C.loclBGR" horiz-adv-x="978" 
d="M254 692h264q186 0 295 -92q105 -92 105 -256q0 -153 -113 -260q-115 -109 -287 -109q-185 0 -293 105q-106 103 -106 264v680h135v-332zM707 178q75 69 75 166q0 103 -69 160t-195 57h-264v-217q0 -96 72 -168q70 -70 192 -70q111 0 189 72z" />
    <glyph glyph-name="uni044E.loclBGR" horiz-adv-x="1638" 
d="M1399 893q157 -154 157 -381q0 -226 -157 -383q-157 -154 -381 -154q-204 0 -356 134q-149 137 -170 337h-213v-446h-136v1434h136v-856h213q21 201 170 335q151 136 356 136q225 0 381 -156zM1018 106q170 0 287 117q116 119 116 289q0 171 -116 287q-116 119 -287 119
t-287 -119q-117 -117 -117 -287q0 -169 117 -289q117 -117 287 -117z" />
    <glyph glyph-name="uni20BD.tf" horiz-adv-x="1167" 
d="M676 573h-328v-192h492v-119h-492v-262h-143v262h-185v119h185v192h-185v136h185v725h471q176 0 303 -127t127 -303q0 -177 -127 -304t-303 -127zM676 1298h-328v-589h328q120 0 203 86q84 90 84 209q0 118 -84 208q-83 86 -203 86z" />
    <glyph glyph-name="yen.tf" horiz-adv-x="1167" 
d="M995 1434h158l-469 -723h342v-119h-371v-123h371v-119h-371v-350h-143v350h-367v119h367v123h-367v119h340l-469 723h158l412 -633z" />
    <glyph glyph-name="zero.dnom" horiz-adv-x="839" 
d="M420 -25q-170 0 -264 119q-95 121 -95 316q0 194 95 315q94 119 264 119q168 0 262 -119q96 -122 96 -315q0 -194 -96 -316q-94 -119 -262 -119zM420 98q108 0 170 80q61 79 61 232q0 152 -61 231q-62 80 -170 80t-170 -80t-62 -231q0 -152 62 -232t170 -80z" />
    <glyph glyph-name="zero.numr" horiz-adv-x="839" 
d="M420 590q-170 0 -264 119q-95 121 -95 315t95 315q94 119 264 119q168 0 262 -119q96 -122 96 -315t-96 -315q-94 -119 -262 -119zM420 713q108 0 170 80q61 79 61 231t-61 231q-62 80 -170 80t-170 -80t-62 -231t62 -231t170 -80z" />
    <glyph glyph-name="zero.sinf" horiz-adv-x="839" 
d="M420 -352q-170 0 -264 119q-95 121 -95 315t95 315q94 119 264 119q168 0 262 -119q96 -122 96 -315t-96 -315q-94 -119 -262 -119zM420 -229q109 0 170 79t61 232q0 152 -61 231q-62 80 -170 80t-170 -80t-62 -231q0 -152 62 -232q61 -79 170 -79z" />
    <glyph glyph-name="zero.sups" horiz-adv-x="839" 
d="M420 918q-171 0 -264 118q-95 121 -95 316q0 194 95 315q94 119 264 119q168 0 262 -119q96 -122 96 -315q0 -194 -96 -316q-93 -118 -262 -118zM420 1040q108 0 170 80q61 79 61 232q0 152 -61 231q-62 80 -170 80t-170 -80t-62 -231q0 -152 62 -232t170 -80z" />
    <glyph glyph-name="zero.tf" horiz-adv-x="1167" 
d="M584 -25q-257 0 -402 201q-141 202 -141 541t141 538q144 203 402 203t399 -203q143 -198 143 -538q0 -343 -143 -541q-142 -201 -399 -201zM584 115q187 0 293 157q106 153 106 445q0 291 -106 444q-106 158 -293 158q-186 0 -295 -158q-105 -156 -105 -444
q0 -289 105 -445q109 -157 295 -157z" />
    </font>
</defs>
</svg>
